Truculenta-72pt.ufo
<glyph name="quotedbl" format="2">
  <advance width="430"/>
  <unicode hex="0022"/>
  <outline>
    <contour>
      <point x="250" y="493" type="curve"/>
      <point x="315" y="503" type="line"/>
      <point x="315" y="503"/>
      <point x="322" y="574"/>
      <point x="331" y="615" type="curve" smooth="yes"/>
      <point x="337" y="657"/>
      <point x="350" y="701"/>
      <point x="350" y="701" type="curve"/>
      <point x="256" y="702" type="line"/>
      <point x="256" y="702"/>
      <point x="257" y="654"/>
      <point x="254" y="604" type="curve" smooth="yes"/>
      <point x="253" y="551"/>
      <point x="250" y="493"/>
    </contour>
    <contour>
      <point x="92" y="490" type="curve"/>
      <point x="156" y="505" type="line"/>
      <point x="156" y="505"/>
      <point x="157" y="577"/>
      <point x="162" y="618" type="curve" smooth="yes"/>
      <point x="165" y="661"/>
      <point x="174" y="706"/>
      <point x="174" y="706" type="curve"/>
      <point x="80" y="698" type="line"/>
      <point x="80" y="698"/>
      <point x="85" y="651"/>
      <point x="87" y="601" type="curve" smooth="yes"/>
      <point x="90" y="548"/>
      <point x="92" y="490"/>
    </contour>
  </outline>
</glyph>
<glyph name="numbersign" format="2">
  <advance width="810"/>
  <unicode hex="0023"/>
  <outline>
    <contour>
      <point x="139" y="-1" type="line"/>
      <point x="212" y="3" type="line"/>
      <point x="294" y="374" type="line"/>
      <point x="375" y="700" type="line"/>
      <point x="304" y="696" type="line"/>
      <point x="239" y="385" type="line"/>
    </contour>
    <contour>
      <point x="60" y="175" type="line"/>
      <point x="60" y="175"/>
      <point x="278" y="180"/>
      <point x="399" y="179" type="curve" smooth="yes"/>
      <point x="524" y="178"/>
      <point x="704" y="177"/>
      <point x="704" y="177" type="curve"/>
      <point x="700" y="240" type="line"/>
      <point x="700" y="240"/>
      <point x="519" y="237"/>
      <point x="402" y="237" type="curve" smooth="yes"/>
      <point x="290" y="237"/>
      <point x="62" y="240"/>
      <point x="62" y="240" type="curve"/>
    </contour>
    <contour>
      <point x="430" y="-2" type="line"/>
      <point x="503" y="1" type="line"/>
      <point x="582" y="363" type="line"/>
      <point x="663" y="686" type="line"/>
      <point x="592" y="687" type="line"/>
      <point x="530" y="385" type="line"/>
    </contour>
    <contour>
      <point x="110" y="462" type="line"/>
      <point x="110" y="462"/>
      <point x="329" y="467"/>
      <point x="450" y="466" type="curve" smooth="yes"/>
      <point x="574" y="465"/>
      <point x="750" y="463"/>
      <point x="750" y="463" type="curve"/>
      <point x="750" y="527" type="line"/>
      <point x="750" y="527"/>
      <point x="569" y="524"/>
      <point x="452" y="524" type="curve" smooth="yes"/>
      <point x="340" y="524"/>
      <point x="102" y="527"/>
      <point x="102" y="527" type="curve"/>
    </contour>
  </outline>
</glyph>
<glyph name="dollar" format="2">
  <advance width="500"/>
  <unicode hex="0024"/>
  <outline>
    <contour>
      <point x="247" y="-10" type="curve"/>
      <point x="361" y="-10"/>
      <point x="428" y="54"/>
      <point x="428" y="151" type="curve"/>
      <point x="428" y="255"/>
      <point x="340" y="295"/>
      <point x="258" y="342" type="curve" smooth="yes"/>
      <point x="195" y="378"/>
      <point x="144" y="424"/>
      <point x="144" y="510" type="curve"/>
      <point x="144" y="580"/>
      <point x="170" y="641"/>
      <point x="253" y="641" type="curve"/>
      <point x="339" y="641"/>
      <point x="358" y="578"/>
      <point x="358" y="507" type="curve" smooth="yes"/>
      <point x="358" y="468"/>
      <point x="353" y="428"/>
      <point x="348" y="394" type="curve"/>
      <point x="421" y="394" type="line"/>
      <point x="425" y="428"/>
      <point x="430" y="467"/>
      <point x="430" y="507" type="curve" smooth="yes"/>
      <point x="430" y="606"/>
      <point x="400" y="704"/>
      <point x="255" y="704" type="curve"/>
      <point x="140" y="704"/>
      <point x="72" y="624"/>
      <point x="72" y="513" type="curve"/>
      <point x="72" y="389"/>
      <point x="141" y="329"/>
      <point x="216" y="286" type="curve" smooth="yes"/>
      <point x="289" y="244"/>
      <point x="355" y="212"/>
      <point x="355" y="144" type="curve"/>
      <point x="355" y="94"/>
      <point x="327" y="51"/>
      <point x="243" y="51" type="curve"/>
      <point x="160" y="51"/>
      <point x="142" y="97"/>
      <point x="142" y="155" type="curve" smooth="yes"/>
      <point x="142" y="174"/>
      <point x="144" y="196"/>
      <point x="147" y="217" type="curve"/>
      <point x="79" y="217" type="line"/>
      <point x="75" y="196"/>
      <point x="73" y="176"/>
      <point x="73" y="156" type="curve" smooth="yes"/>
      <point x="73" y="67"/>
      <point x="116" y="-10"/>
    </contour>
    <contour>
      <point x="279" y="-112" type="line"/>
      <point x="279" y="-112"/>
      <point x="270" y="162"/>
      <point x="270" y="311" type="curve"/>
      <point x="270" y="460"/>
      <point x="283" y="798"/>
      <point x="283" y="798" type="curve"/>
      <point x="222" y="801" type="line"/>
      <point x="222" y="801"/>
      <point x="225" y="541"/>
      <point x="225" y="322" type="curve"/>
      <point x="225" y="102"/>
      <point x="218" y="-111"/>
      <point x="218" y="-111" type="curve"/>
    </contour>
  </outline>
</glyph>
<glyph name="ampersand" format="2">
  <advance width="522"/>
  <unicode hex="0026"/>
  <outline>
    <contour>
      <point x="221" y="-10" type="curve" smooth="yes"/>
      <point x="421" y="-10"/>
      <point x="475" y="202"/>
      <point x="475" y="391" type="curve"/>
      <point x="396" y="398" type="line"/>
      <point x="406" y="243"/>
      <point x="369" y="53"/>
      <point x="230" y="53" type="curve" smooth="yes"/>
      <point x="162" y="53"/>
      <point x="94" y="79"/>
      <point x="94" y="172" type="curve" smooth="yes"/>
      <point x="94" y="272"/>
      <point x="148" y="297"/>
      <point x="206" y="338" type="curve" smooth="yes"/>
      <point x="247" y="367"/>
      <point x="387" y="425"/>
      <point x="387" y="566" type="curve" smooth="yes"/>
      <point x="387" y="637"/>
      <point x="338" y="702"/>
      <point x="241" y="702" type="curve" smooth="yes"/>
      <point x="131" y="702"/>
      <point x="77" y="627"/>
      <point x="77" y="535" type="curve" smooth="yes"/>
      <point x="77" y="400"/>
      <point x="202" y="251"/>
      <point x="338" y="69" type="curve" smooth="yes"/>
      <point x="386" y="5"/>
      <point x="441" y="-4"/>
      <point x="509" y="-7" type="curve"/>
      <point x="518" y="53" type="line"/>
      <point x="454" y="56"/>
      <point x="413" y="75"/>
      <point x="387" y="111" type="curve" smooth="yes"/>
      <point x="239" y="318"/>
      <point x="153" y="429"/>
      <point x="153" y="538" type="curve" smooth="yes"/>
      <point x="153" y="597"/>
      <point x="170" y="639"/>
      <point x="240" y="639" type="curve" smooth="yes"/>
      <point x="306" y="639"/>
      <point x="313" y="583"/>
      <point x="313" y="550" type="curve" smooth="yes"/>
      <point x="313" y="459"/>
      <point x="209" y="417"/>
      <point x="165" y="388" type="curve" smooth="yes"/>
      <point x="105" y="349"/>
      <point x="19" y="297"/>
      <point x="19" y="172" type="curve" smooth="yes"/>
      <point x="19" y="68"/>
      <point x="86" y="-10"/>
    </contour>
  </outline>
</glyph>
<glyph name="quotesingle" format="2">
  <advance width="254"/>
  <unicode hex="0027"/>
  <outline>
    <contour>
      <point x="92" y="490" type="curve"/>
      <point x="156" y="505" type="line"/>
      <point x="156" y="505"/>
      <point x="157" y="577"/>
      <point x="162" y="618" type="curve"/>
      <point x="165" y="661"/>
      <point x="174" y="706"/>
      <point x="174" y="706" type="curve"/>
      <point x="80" y="698" type="line"/>
      <point x="80" y="698"/>
      <point x="85" y="651"/>
      <point x="87" y="601" type="curve"/>
      <point x="90" y="548"/>
      <point x="92" y="490"/>
    </contour>
  </outline>
</glyph>
<glyph name="parenleft" format="2">
  <advance width="364"/>
  <unicode hex="0028"/>
  <outline>
    <contour>
      <point x="262" y="-140" type="curve"/>
      <point x="279" y="-88" type="line"/>
      <point x="161" y="-26"/>
      <point x="148" y="136"/>
      <point x="148" y="281" type="curve" smooth="yes"/>
      <point x="148" y="427"/>
      <point x="157" y="587"/>
      <point x="279" y="651" type="curve"/>
      <point x="262" y="703" type="line"/>
      <point x="157" y="671"/>
      <point x="85" y="549"/>
      <point x="85" y="281" type="curve" smooth="yes"/>
      <point x="85" y="14"/>
      <point x="154" y="-110"/>
    </contour>
  </outline>
</glyph>
<glyph name="parenright" format="2">
  <advance width="364"/>
  <unicode hex="0029"/>
  <outline>
    <contour>
      <point x="102" y="703" type="curve"/>
      <point x="85" y="651" type="line"/>
      <point x="203" y="589"/>
      <point x="216" y="427"/>
      <point x="216" y="282" type="curve" smooth="yes"/>
      <point x="216" y="136"/>
      <point x="207" y="-24"/>
      <point x="85" y="-88" type="curve"/>
      <point x="102" y="-140" type="line"/>
      <point x="207" y="-108"/>
      <point x="279" y="14"/>
      <point x="279" y="282" type="curve" smooth="yes"/>
      <point x="279" y="549"/>
      <point x="210" y="673"/>
    </contour>
  </outline>
</glyph>
<glyph name="asterisk" format="2">
  <advance width="544"/>
  <unicode hex="002A"/>
  <outline>
    <contour>
      <point x="407" y="427" type="curve"/>
      <point x="459" y="473" type="line"/>
      <point x="459" y="473"/>
      <point x="323" y="551"/>
      <point x="276" y="578" type="curve"/>
      <point x="227" y="607"/>
      <point x="130" y="678"/>
      <point x="130" y="678" type="curve"/>
      <point x="85" y="623" type="line"/>
      <point x="85" y="623"/>
      <point x="204" y="564"/>
      <point x="257" y="533" type="curve"/>
      <point x="308" y="504"/>
      <point x="407" y="427"/>
    </contour>
    <contour>
      <point x="121" y="415" type="line"/>
      <point x="121" y="415"/>
      <point x="238" y="504"/>
      <point x="289" y="533" type="curve"/>
      <point x="342" y="564"/>
      <point x="450" y="623"/>
      <point x="450" y="623" type="curve"/>
      <point x="431" y="687" type="line"/>
      <point x="431" y="687"/>
      <point x="319" y="607"/>
      <point x="270" y="578" type="curve"/>
      <point x="223" y="551"/>
      <point x="96" y="473"/>
      <point x="96" y="473" type="curve"/>
    </contour>
    <contour>
      <point x="311" y="357" type="line"/>
      <point x="311" y="357"/>
      <point x="299" y="495"/>
      <point x="299" y="562" type="curve"/>
      <point x="299" y="631"/>
      <point x="309" y="736"/>
      <point x="309" y="736" type="curve"/>
      <point x="240" y="743" type="line"/>
      <point x="240" y="743"/>
      <point x="247" y="626"/>
      <point x="248" y="561" type="curve"/>
      <point x="250" y="499"/>
      <point x="241" y="364"/>
      <point x="241" y="364" type="curve"/>
    </contour>
  </outline>
</glyph>
<glyph name="slash" format="2">
  <advance width="302"/>
  <unicode hex="002F"/>
  <outline>
    <contour>
      <point x="10" y="-1" type="curve"/>
      <point x="81" y="0" type="line"/>
      <point x="81" y="0"/>
      <point x="139" y="197"/>
      <point x="182" y="340" type="curve"/>
      <point x="225" y="484"/>
      <point x="292" y="695"/>
      <point x="292" y="695" type="curve"/>
      <point x="218" y="697" type="line"/>
      <point x="218" y="697"/>
      <point x="163" y="485"/>
      <point x="119" y="339" type="curve"/>
      <point x="76" y="193"/>
      <point x="10" y="-1"/>
    </contour>
  </outline>
</glyph>
<glyph name="zero" format="2">
  <advance width="492"/>
  <unicode hex="0030"/>
  <outline>
    <contour>
      <point x="239" y="-10" type="curve" smooth="yes"/>
      <point x="408" y="-10"/>
      <point x="430" y="157"/>
      <point x="430" y="342" type="curve" smooth="yes"/>
      <point x="430" y="538"/>
      <point x="417" y="707"/>
      <point x="253" y="707" type="curve" smooth="yes"/>
      <point x="89" y="707"/>
      <point x="62" y="535"/>
      <point x="62" y="343" type="curve" smooth="yes"/>
      <point x="62" y="144"/>
      <point x="78" y="-10"/>
    </contour>
    <contour>
      <point x="243" y="48" type="curve" smooth="yes"/>
      <point x="148" y="48"/>
      <point x="133" y="115"/>
      <point x="133" y="338" type="curve" smooth="yes"/>
      <point x="133" y="518"/>
      <point x="149" y="646"/>
      <point x="250" y="646" type="curve" smooth="yes"/>
      <point x="350" y="646"/>
      <point x="361" y="530"/>
      <point x="361" y="353" type="curve" smooth="yes"/>
      <point x="361" y="152"/>
      <point x="344" y="48"/>
    </contour>
  </outline>
</glyph>
<glyph name="one" format="2">
  <advance width="290"/>
  <unicode hex="0031"/>
  <outline>
    <contour>
      <point x="141" y="0" type="curve"/>
      <point x="222" y="0" type="line"/>
      <point x="218" y="99"/>
      <point x="217" y="176"/>
      <point x="217" y="341" type="curve" smooth="yes"/>
      <point x="217" y="503"/>
      <point x="220" y="592"/>
      <point x="223" y="694" type="curve"/>
      <point x="188" y="694" type="line"/>
      <point x="144" y="619" type="line"/>
      <point x="146" y="543"/>
      <point x="146" y="419"/>
      <point x="146" y="342" type="curve" smooth="yes"/>
      <point x="146" y="226"/>
      <point x="144" y="100"/>
    </contour>
    <contour>
      <point x="17" y="585" type="line"/>
      <point x="65" y="585"/>
      <point x="150" y="594"/>
      <point x="182" y="606" type="curve"/>
      <point x="188" y="694" type="line"/>
      <point x="158" y="668"/>
      <point x="62" y="652"/>
      <point x="13" y="645" type="curve"/>
    </contour>
  </outline>
</glyph>
<glyph name="two" format="2">
  <advance width="461"/>
  <unicode hex="0032"/>
  <outline>
    <contour>
      <point x="99" y="40" type="line"/>
      <point x="189" y="122"/>
      <point x="399" y="331"/>
      <point x="399" y="518" type="curve" smooth="yes"/>
      <point x="399" y="638"/>
      <point x="332" y="700"/>
      <point x="232" y="700" type="curve" smooth="yes"/>
      <point x="119" y="700"/>
      <point x="55" y="622"/>
      <point x="55" y="503" type="curve" smooth="yes"/>
      <point x="55" y="478"/>
      <point x="57" y="451"/>
      <point x="62" y="423" type="curve"/>
      <point x="128" y="424" type="line"/>
      <point x="123" y="451"/>
      <point x="121" y="479"/>
      <point x="121" y="503" type="curve" smooth="yes"/>
      <point x="121" y="582"/>
      <point x="152" y="636"/>
      <point x="228" y="636" type="curve" smooth="yes"/>
      <point x="293" y="636"/>
      <point x="326" y="602"/>
      <point x="326" y="506" type="curve" smooth="yes"/>
      <point x="326" y="340"/>
      <point x="143" y="174"/>
      <point x="38" y="62" type="curve"/>
    </contour>
    <contour>
      <point x="36" y="-4" type="line"/>
      <point x="74" y="-2"/>
      <point x="178" y="-1"/>
      <point x="224" y="0" type="curve" smooth="yes"/>
      <point x="235" y="0"/>
      <point x="376" y="0"/>
      <point x="406" y="0" type="curve"/>
      <point x="405" y="69" type="line"/>
      <point x="372" y="65"/>
      <point x="278" y="64"/>
      <point x="235" y="63" type="curve" smooth="yes"/>
      <point x="190" y="62"/>
      <point x="90" y="62"/>
      <point x="38" y="62" type="curve"/>
    </contour>
  </outline>
</glyph>
<glyph name="three" format="2">
  <advance width="425"/>
  <unicode hex="0033"/>
  <outline>
    <contour>
      <point x="207" y="-10" type="curve"/>
      <point x="332" y="-10"/>
      <point x="384" y="58"/>
      <point x="382" y="157" type="curve"/>
      <point x="381" y="241"/>
      <point x="328" y="288"/>
      <point x="264" y="300" type="curve"/>
      <point x="358" y="344"/>
      <point x="376" y="437"/>
      <point x="376" y="502" type="curve" smooth="yes"/>
      <point x="376" y="616"/>
      <point x="332" y="697"/>
      <point x="205" y="697" type="curve" smooth="yes"/>
      <point x="105" y="697"/>
      <point x="35" y="636"/>
      <point x="37" y="523" type="curve"/>
      <point x="106" y="523" type="line"/>
      <point x="105" y="591"/>
      <point x="128" y="636"/>
      <point x="203" y="636" type="curve"/>
      <point x="288" y="636"/>
      <point x="305" y="586"/>
      <point x="305" y="496" type="curve" smooth="yes"/>
      <point x="305" y="406"/>
      <point x="264" y="324"/>
      <point x="173" y="324" type="curve"/>
      <point x="156" y="324"/>
      <point x="112" y="325"/>
      <point x="99" y="326" type="curve"/>
      <point x="101" y="260" type="line"/>
      <point x="114" y="262"/>
      <point x="165" y="262"/>
      <point x="178" y="262" type="curve"/>
      <point x="263" y="262"/>
      <point x="311" y="240"/>
      <point x="313" y="149" type="curve"/>
      <point x="314" y="98"/>
      <point x="300" y="51"/>
      <point x="210" y="51" type="curve"/>
      <point x="138" y="51"/>
      <point x="105" y="87"/>
      <point x="104" y="125" type="curve"/>
      <point x="36" y="124" type="line"/>
      <point x="37" y="72"/>
      <point x="69" y="-10"/>
    </contour>
  </outline>
</glyph>
<glyph name="four" format="2">
  <advance width="464"/>
  <unicode hex="0034"/>
  <outline>
    <contour>
      <point x="84" y="177" type="line"/>
      <point x="100" y="215"/>
      <point x="140" y="304"/>
      <point x="181" y="394" type="curve" smooth="yes"/>
      <point x="228" y="494"/>
      <point x="275" y="595"/>
      <point x="289" y="624" type="curve"/>
      <point x="307" y="673"/>
      <point x="344" y="696"/>
      <point x="344" y="696" type="curve"/>
      <point x="244" y="700" type="line"/>
      <point x="207" y="617"/>
      <point x="163" y="519"/>
      <point x="121" y="425" type="curve" smooth="yes"/>
      <point x="86" y="348"/>
      <point x="52" y="273"/>
      <point x="21" y="209" type="curve"/>
    </contour>
    <contour>
      <point x="36" y="142" type="line"/>
      <point x="36" y="142"/>
      <point x="169" y="146"/>
      <point x="231" y="147" type="curve" smooth="yes"/>
      <point x="296" y="148"/>
      <point x="441" y="147"/>
      <point x="441" y="147" type="curve"/>
      <point x="441" y="216" type="line"/>
      <point x="441" y="216"/>
      <point x="299" y="210"/>
      <point x="230" y="207" type="curve" smooth="yes"/>
      <point x="163" y="205"/>
      <point x="21" y="209"/>
      <point x="21" y="209" type="curve"/>
    </contour>
    <contour>
      <point x="266" y="-3" type="curve"/>
      <point x="343" y="0" type="line"/>
      <point x="342" y="123"/>
      <point x="340" y="215"/>
      <point x="340" y="378" type="curve" smooth="yes"/>
      <point x="340" y="534"/>
      <point x="343" y="595"/>
      <point x="344" y="696" type="curve"/>
      <point x="267" y="687" type="line"/>
      <point x="267" y="576"/>
      <point x="270" y="495"/>
      <point x="270" y="380" type="curve" smooth="yes"/>
      <point x="270" y="264"/>
      <point x="266" y="102"/>
    </contour>
  </outline>
</glyph>
<glyph name="five" format="2">
  <advance width="447"/>
  <unicode hex="0035"/>
  <outline>
    <contour>
      <point x="215" y="-10" type="curve" smooth="yes"/>
      <point x="337" y="-10"/>
      <point x="411" y="70"/>
      <point x="411" y="223" type="curve" smooth="yes"/>
      <point x="411" y="314"/>
      <point x="382" y="444"/>
      <point x="238" y="444" type="curve" smooth="yes"/>
      <point x="183" y="444"/>
      <point x="135" y="415"/>
      <point x="110" y="373" type="curve"/>
      <point x="123" y="301" type="line"/>
      <point x="147" y="358"/>
      <point x="184" y="380"/>
      <point x="231" y="380" type="curve" smooth="yes"/>
      <point x="317" y="380"/>
      <point x="340" y="303"/>
      <point x="340" y="235" type="curve" smooth="yes"/>
      <point x="340" y="118"/>
      <point x="299" y="53"/>
      <point x="217" y="53" type="curve" smooth="yes"/>
      <point x="129" y="53"/>
      <point x="113" y="101"/>
      <point x="113" y="151" type="curve"/>
      <point x="43" y="147" type="line"/>
      <point x="43" y="57"/>
      <point x="99" y="-10"/>
    </contour>
    <contour>
      <point x="123" y="301" type="line"/>
      <point x="125" y="381"/>
      <point x="130" y="426"/>
      <point x="133" y="502" type="curve" smooth="yes"/>
      <point x="135" y="583"/>
      <point x="136" y="622"/>
      <point x="141" y="696" type="curve"/>
      <point x="64" y="702" type="line"/>
      <point x="64" y="702"/>
      <point x="66" y="590"/>
      <point x="64" y="505" type="curve" smooth="yes"/>
      <point x="62" y="427"/>
      <point x="56" y="363"/>
      <point x="54" y="297" type="curve"/>
    </contour>
    <contour>
      <point x="87" y="631" type="line"/>
      <point x="87" y="631"/>
      <point x="140" y="634"/>
      <point x="229" y="634" type="curve" smooth="yes"/>
      <point x="277" y="634"/>
      <point x="385" y="632"/>
      <point x="385" y="632" type="curve"/>
      <point x="389" y="697" type="line"/>
      <point x="389" y="697"/>
      <point x="280" y="697"/>
      <point x="227" y="698" type="curve" smooth="yes"/>
      <point x="184" y="697"/>
      <point x="64" y="701"/>
      <point x="64" y="701" type="curve"/>
    </contour>
  </outline>
</glyph>
<glyph name="six" format="2">
  <advance width="472"/>
  <unicode hex="0036"/>
  <outline>
    <contour>
      <point x="241" y="-10" type="curve" smooth="yes"/>
      <point x="341" y="-10"/>
      <point x="420" y="63"/>
      <point x="420" y="193" type="curve" smooth="yes"/>
      <point x="420" y="320"/>
      <point x="350" y="385"/>
      <point x="250" y="385" type="curve" smooth="yes"/>
      <point x="172" y="385"/>
      <point x="127" y="341"/>
      <point x="104" y="280" type="curve"/>
      <point x="128" y="203" type="line"/>
      <point x="131" y="285"/>
      <point x="179" y="321"/>
      <point x="248" y="321" type="curve" smooth="yes"/>
      <point x="316" y="321"/>
      <point x="350" y="278"/>
      <point x="350" y="191" type="curve" smooth="yes"/>
      <point x="350" y="108"/>
      <point x="305" y="53"/>
      <point x="244" y="53" type="curve" smooth="yes"/>
      <point x="130" y="53"/>
      <point x="126" y="171"/>
      <point x="126" y="279" type="curve" smooth="yes"/>
      <point x="126" y="516"/>
      <point x="144" y="652"/>
      <point x="256" y="652" type="curve" smooth="yes"/>
      <point x="324" y="652"/>
      <point x="343" y="589"/>
      <point x="343" y="525" type="curve" smooth="yes"/>
      <point x="343" y="507"/>
      <point x="341" y="489"/>
      <point x="339" y="472" type="curve"/>
      <point x="409" y="474" type="line"/>
      <point x="413" y="495"/>
      <point x="415" y="516"/>
      <point x="415" y="537" type="curve" smooth="yes"/>
      <point x="415" y="629"/>
      <point x="374" y="713"/>
      <point x="262" y="713" type="curve" smooth="yes"/>
      <point x="133" y="713"/>
      <point x="55" y="622"/>
      <point x="55" y="321" type="curve" smooth="yes"/>
      <point x="55" y="86"/>
      <point x="102" y="-10"/>
    </contour>
  </outline>
</glyph>
<glyph name="seven" format="2">
  <advance width="369"/>
  <unicode hex="0037"/>
  <outline>
    <contour>
      <point x="98" y="-1" type="curve"/>
      <point x="178" y="0" type="line"/>
      <point x="176" y="166"/>
      <point x="194" y="288"/>
      <point x="222" y="381" type="curve" smooth="yes"/>
      <point x="255" y="493"/>
      <point x="303" y="565"/>
      <point x="348" y="627" type="curve"/>
      <point x="348" y="700" type="line"/>
      <point x="281" y="645"/>
      <point x="210" y="545"/>
      <point x="161" y="407" type="curve" smooth="yes"/>
      <point x="121" y="295"/>
      <point x="96" y="157"/>
    </contour>
    <contour>
      <point x="15" y="629" type="line"/>
      <point x="51" y="630"/>
      <point x="116" y="631"/>
      <point x="163" y="631" type="curve" smooth="yes"/>
      <point x="209" y="631"/>
      <point x="304" y="634"/>
      <point x="341" y="633" type="curve"/>
      <point x="348" y="700" type="line"/>
      <point x="308" y="699"/>
      <point x="222" y="698"/>
      <point x="176" y="698" type="curve" smooth="yes"/>
      <point x="127" y="698"/>
      <point x="51" y="698"/>
      <point x="14" y="700" type="curve"/>
    </contour>
  </outline>
</glyph>
<glyph name="eight" format="2">
  <advance width="450"/>
  <unicode hex="0038"/>
  <outline>
    <contour>
      <point x="217" y="272" type="curve" smooth="yes"/>
      <point x="327" y="272"/>
      <point x="396" y="340"/>
      <point x="396" y="481" type="curve" smooth="yes"/>
      <point x="396" y="613"/>
      <point x="354" y="707"/>
      <point x="229" y="707" type="curve" smooth="yes"/>
      <point x="98" y="707"/>
      <point x="54" y="598"/>
      <point x="54" y="471" type="curve" smooth="yes"/>
      <point x="54" y="355"/>
      <point x="117" y="272"/>
    </contour>
    <contour>
      <point x="216" y="-10" type="curve" smooth="yes"/>
      <point x="342" y="-10"/>
      <point x="415" y="46"/>
      <point x="415" y="161" type="curve" smooth="yes"/>
      <point x="415" y="249"/>
      <point x="369" y="331"/>
      <point x="230" y="331" type="curve" smooth="yes"/>
      <point x="82" y="331"/>
      <point x="35" y="237"/>
      <point x="35" y="153" type="curve" smooth="yes"/>
      <point x="35" y="58"/>
      <point x="100" y="-10"/>
    </contour>
    <contour>
      <point x="225" y="48" type="curve" smooth="yes"/>
      <point x="136" y="48"/>
      <point x="104" y="88"/>
      <point x="104" y="160" type="curve" smooth="yes"/>
      <point x="104" y="230"/>
      <point x="144" y="272"/>
      <point x="225" y="272" type="curve" smooth="yes"/>
      <point x="306" y="274"/>
      <point x="344" y="239"/>
      <point x="346" y="154" type="curve" smooth="yes"/>
      <point x="346" y="88"/>
      <point x="319" y="48"/>
    </contour>
    <contour>
      <point x="225" y="331" type="curve" smooth="yes"/>
      <point x="152" y="331"/>
      <point x="125" y="395"/>
      <point x="125" y="483" type="curve" smooth="yes"/>
      <point x="125" y="591"/>
      <point x="153" y="643"/>
      <point x="228" y="643" type="curve" smooth="yes"/>
      <point x="303" y="643"/>
      <point x="326" y="601"/>
      <point x="326" y="476" type="curve" smooth="yes"/>
      <point x="326" y="395"/>
      <point x="298" y="331"/>
    </contour>
  </outline>
</glyph>
<glyph name="nine" format="2">
  <advance width="472"/>
  <unicode hex="0039"/>
  <outline>
    <contour>
      <point x="213" y="-10" type="curve" smooth="yes"/>
      <point x="342" y="-10"/>
      <point x="420" y="81"/>
      <point x="420" y="382" type="curve" smooth="yes"/>
      <point x="420" y="617"/>
      <point x="373" y="713"/>
      <point x="234" y="713" type="curve" smooth="yes"/>
      <point x="124" y="713"/>
      <point x="55" y="620"/>
      <point x="55" y="480" type="curve" smooth="yes"/>
      <point x="55" y="343"/>
      <point x="115" y="258"/>
      <point x="225" y="258" type="curve" smooth="yes"/>
      <point x="303" y="258"/>
      <point x="350" y="302"/>
      <point x="373" y="363" type="curve"/>
      <point x="349" y="440" type="line"/>
      <point x="346" y="358"/>
      <point x="296" y="322"/>
      <point x="227" y="322" type="curve" smooth="yes"/>
      <point x="149" y="322"/>
      <point x="125" y="385"/>
      <point x="125" y="482" type="curve" smooth="yes"/>
      <point x="125" y="575"/>
      <point x="160" y="650"/>
      <point x="231" y="650" type="curve" smooth="yes"/>
      <point x="345" y="650"/>
      <point x="349" y="532"/>
      <point x="349" y="424" type="curve" smooth="yes"/>
      <point x="349" y="187"/>
      <point x="331" y="51"/>
      <point x="219" y="51" type="curve" smooth="yes"/>
      <point x="161" y="51"/>
      <point x="135" y="84"/>
      <point x="135" y="147" type="curve" smooth="yes"/>
      <point x="135" y="154"/>
      <point x="135" y="162"/>
      <point x="136" y="171" type="curve"/>
      <point x="66" y="169" type="line"/>
      <point x="65" y="160"/>
      <point x="65" y="150"/>
      <point x="65" y="142" type="curve" smooth="yes"/>
      <point x="65" y="50"/>
      <point x="116" y="-10"/>
    </contour>
  </outline>
</glyph>
<glyph name="colon" format="2">
  <advance width="246"/>
  <unicode hex="003A"/>
  <outline>
    <contour>
      <point x="161" y="0" type="line"/>
      <point x="161" y="138" type="line"/>
      <point x="85" y="131" type="line"/>
      <point x="88" y="0" type="line"/>
    </contour>
    <contour>
      <point x="161" y="423" type="line"/>
      <point x="161" y="560" type="line"/>
      <point x="85" y="553" type="line"/>
      <point x="88" y="423" type="line"/>
    </contour>
  </outline>
</glyph>
<glyph name="semicolon" format="2">
  <advance width="251"/>
  <unicode hex="003B"/>
  <outline>
    <contour>
      <point x="129" y="-134" type="line"/>
      <point x="152" y="-96"/>
      <point x="166" y="-50"/>
      <point x="166" y="1" type="curve" smooth="yes"/>
      <point x="166" y="125" type="line"/>
      <point x="85" y="118" type="line"/>
      <point x="87" y="0" type="line"/>
      <point x="126" y="-3" type="line"/>
      <point x="126" y="-44"/>
      <point x="116" y="-79"/>
      <point x="94" y="-117" type="curve"/>
    </contour>
    <contour>
      <point x="164" y="423" type="line"/>
      <point x="164" y="560" type="line"/>
      <point x="88" y="553" type="line"/>
      <point x="91" y="423" type="line"/>
    </contour>
  </outline>
</glyph>
<glyph name="less" format="2">
  <advance width="500"/>
  <unicode hex="003C"/>
  <outline>
    <contour>
      <point x="467" y="476" type="line"/>
      <point x="467" y="476"/>
      <point x="305" y="418"/>
      <point x="223" y="388" type="curve"/>
      <point x="136" y="357"/>
      <point x="24" y="313"/>
      <point x="24" y="313" type="curve"/>
      <point x="15" y="246" type="line"/>
      <point x="15" y="246"/>
      <point x="178" y="303"/>
      <point x="271" y="332" type="curve"/>
      <point x="368" y="360"/>
      <point x="481" y="395"/>
      <point x="481" y="395" type="curve"/>
    </contour>
    <contour>
      <point x="474" y="104" type="curve"/>
      <point x="475" y="185" type="line"/>
      <point x="475" y="185"/>
      <point x="347" y="218"/>
      <point x="260" y="242" type="curve"/>
      <point x="169" y="267"/>
      <point x="24" y="313"/>
      <point x="24" y="313" type="curve"/>
      <point x="15" y="246" type="line"/>
      <point x="15" y="246"/>
      <point x="149" y="205"/>
      <point x="244" y="177" type="curve"/>
      <point x="329" y="154"/>
      <point x="449" y="113"/>
    </contour>
  </outline>
</glyph>
<glyph name="equal" format="2">
  <advance width="500"/>
  <unicode hex="003D"/>
  <outline>
    <contour>
      <point x="79" y="189" type="line"/>
      <point x="79" y="189"/>
      <point x="199" y="192"/>
      <point x="251" y="193" type="curve"/>
      <point x="306" y="194"/>
      <point x="415" y="192"/>
      <point x="415" y="192" type="curve"/>
      <point x="422" y="254" type="line"/>
      <point x="422" y="254"/>
      <point x="304" y="251"/>
      <point x="246" y="250" type="curve"/>
      <point x="189" y="248"/>
      <point x="78" y="252"/>
      <point x="78" y="252" type="curve"/>
    </contour>
    <contour>
      <point x="79" y="325" type="line"/>
      <point x="79" y="325"/>
      <point x="199" y="328"/>
      <point x="251" y="329" type="curve"/>
      <point x="306" y="329"/>
      <point x="415" y="328"/>
      <point x="415" y="328" type="curve"/>
      <point x="417" y="390" type="line"/>
      <point x="417" y="390"/>
      <point x="310" y="387"/>
      <point x="251" y="385" type="curve"/>
      <point x="195" y="383"/>
      <point x="87" y="387"/>
      <point x="87" y="387" type="curve"/>
    </contour>
  </outline>
</glyph>
<glyph name="greater" format="2">
  <advance width="500"/>
  <unicode hex="003E"/>
  <outline>
    <contour>
      <point x="29" y="104" type="line"/>
      <point x="29" y="104"/>
      <point x="191" y="162"/>
      <point x="273" y="192" type="curve"/>
      <point x="360" y="223"/>
      <point x="472" y="267"/>
      <point x="472" y="267" type="curve"/>
      <point x="481" y="334" type="line"/>
      <point x="481" y="334"/>
      <point x="318" y="277"/>
      <point x="225" y="248" type="curve"/>
      <point x="128" y="220"/>
      <point x="15" y="185"/>
      <point x="15" y="185" type="curve"/>
    </contour>
    <contour>
      <point x="22" y="476" type="curve"/>
      <point x="21" y="395" type="line"/>
      <point x="21" y="395"/>
      <point x="149" y="362"/>
      <point x="236" y="338" type="curve"/>
      <point x="327" y="313"/>
      <point x="472" y="267"/>
      <point x="472" y="267" type="curve"/>
      <point x="481" y="334" type="line"/>
      <point x="481" y="334"/>
      <point x="347" y="375"/>
      <point x="252" y="403" type="curve"/>
      <point x="167" y="426"/>
      <point x="47" y="467"/>
    </contour>
  </outline>
</glyph>
<glyph name="question" format="2">
  <advance width="516"/>
  <unicode hex="003F"/>
  <guideline x="431" y="767" angle="90"/>
  <guideline x="341" y="767" angle="90"/>
  <outline>
    <contour>
      <point x="290" y="215" type="line"/>
      <point x="286" y="235"/>
      <point x="283" y="251"/>
      <point x="283" y="276" type="curve" smooth="yes"/>
      <point x="283" y="326"/>
      <point x="310" y="355"/>
      <point x="342" y="385" type="curve" smooth="yes"/>
      <point x="383" y="425"/>
      <point x="431" y="466"/>
      <point x="431" y="563" type="curve" smooth="yes"/>
      <point x="431" y="663"/>
      <point x="360" y="716"/>
      <point x="266" y="716" type="curve" smooth="yes"/>
      <point x="172" y="716"/>
      <point x="85" y="658"/>
      <point x="85" y="542" type="curve" smooth="yes"/>
      <point x="85" y="515"/>
      <point x="89" y="486"/>
      <point x="98" y="456" type="curve"/>
      <point x="169" y="455" type="line"/>
      <point x="159" y="486"/>
      <point x="155" y="515"/>
      <point x="155" y="540" type="curve" smooth="yes"/>
      <point x="155" y="618"/>
      <point x="204" y="654"/>
      <point x="259" y="654" type="curve" smooth="yes"/>
      <point x="320" y="654"/>
      <point x="359" y="624"/>
      <point x="359" y="558" type="curve" smooth="yes"/>
      <point x="359" y="498"/>
      <point x="327" y="465"/>
      <point x="292" y="431" type="curve" smooth="yes"/>
      <point x="254" y="393"/>
      <point x="213" y="356"/>
      <point x="213" y="282" type="curve" smooth="yes"/>
      <point x="213" y="257"/>
      <point x="216" y="231"/>
      <point x="219" y="216" type="curve"/>
    </contour>
    <contour>
      <point x="299" y="-3" type="line"/>
      <point x="290" y="128" type="line"/>
      <point x="220" y="126" type="line"/>
      <point x="219" y="0" type="line"/>
    </contour>
  </outline>
</glyph>
<glyph name="A" format="2">
  <advance width="437"/>
  <unicode hex="0041"/>
  <anchor x="214" y="0" name="bottom"/>
  <anchor x="395" y="0" name="ogonek"/>
  <anchor x="219" y="693" name="top"/>
  <outline>
    <contour>
      <point x="345" y="-6" type="curve"/>
      <point x="421" y="-1" type="line"/>
      <point x="398" y="90"/>
      <point x="368" y="225"/>
      <point x="340" y="357" type="curve" smooth="yes"/>
      <point x="312" y="490"/>
      <point x="287" y="622"/>
      <point x="273" y="704" type="curve"/>
      <point x="165" y="702" type="line"/>
      <point x="214" y="642" type="line"/>
      <point x="232" y="546"/>
      <point x="253" y="444"/>
      <point x="274" y="342" type="curve" smooth="yes"/>
      <point x="299" y="222"/>
      <point x="324" y="103"/>
    </contour>
    <contour>
      <point x="86" y="161" type="line"/>
      <point x="342" y="169" type="line"/>
      <point x="342" y="225" type="line"/>
      <point x="86" y="230" type="line"/>
    </contour>
    <contour>
      <point x="86" y="5" type="line"/>
      <point x="109" y="110"/>
      <point x="133" y="229"/>
      <point x="158" y="349" type="curve" smooth="yes"/>
      <point x="178" y="447"/>
      <point x="199" y="545"/>
      <point x="220" y="636" type="curve"/>
      <point x="273" y="704" type="line"/>
      <point x="165" y="702" type="line"/>
      <point x="149" y="619"/>
      <point x="123" y="489"/>
      <point x="94" y="358" type="curve" smooth="yes"/>
      <point x="66" y="227"/>
      <point x="37" y="94"/>
      <point x="16" y="6" type="curve"/>
    </contour>
  </outline>
</glyph>
<glyph name="B" format="2">
  <advance width="432"/>
  <unicode hex="0042"/>
  <outline>
    <contour>
      <point x="118" y="211" type="line"/>
      <point x="286" y="211"/>
      <point x="391" y="288"/>
      <point x="391" y="472" type="curve" smooth="yes"/>
      <point x="391" y="666"/>
      <point x="329" y="719"/>
      <point x="176" y="719" type="curve" smooth="yes"/>
      <point x="143" y="719"/>
      <point x="106" y="717"/>
      <point x="65" y="713" type="curve"/>
      <point x="88" y="648" type="line"/>
      <point x="124" y="654"/>
      <point x="155" y="658"/>
      <point x="182" y="658" type="curve" smooth="yes"/>
      <point x="287" y="658"/>
      <point x="321" y="605"/>
      <point x="321" y="469" type="curve" smooth="yes"/>
      <point x="321" y="315"/>
      <point x="263" y="262"/>
      <point x="114" y="262" type="curve"/>
    </contour>
    <contour>
      <point x="174" y="-10" type="curve" smooth="yes"/>
      <point x="301" y="-10"/>
      <point x="398" y="14"/>
      <point x="398" y="124" type="curve" smooth="yes"/>
      <point x="398" y="217"/>
      <point x="330" y="265"/>
      <point x="114" y="262" type="curve"/>
      <point x="118" y="204" type="line"/>
      <point x="132" y="205"/>
      <point x="183" y="204"/>
      <point x="194" y="204" type="curve" smooth="yes"/>
      <point x="303" y="204"/>
      <point x="328" y="171"/>
      <point x="328" y="126" type="curve" smooth="yes"/>
      <point x="328" y="67"/>
      <point x="276" y="52"/>
      <point x="207" y="52" type="curve" smooth="yes"/>
      <point x="173" y="52"/>
      <point x="134" y="56"/>
      <point x="96" y="60" type="curve"/>
      <point x="62" y="-6" type="line"/>
      <point x="101" y="-8"/>
      <point x="139" y="-10"/>
    </contour>
    <contour>
      <point x="62" y="-6" type="curve"/>
      <point x="139" y="4" type="line"/>
      <point x="139" y="4"/>
      <point x="134" y="216"/>
      <point x="134" y="335" type="curve" smooth="yes"/>
      <point x="134" y="451"/>
      <point x="143" y="704"/>
      <point x="143" y="704" type="curve"/>
      <point x="65" y="713" type="line"/>
      <point x="65" y="713"/>
      <point x="66" y="504"/>
      <point x="66" y="333" type="curve" smooth="yes"/>
      <point x="66" y="162"/>
      <point x="62" y="-6"/>
    </contour>
  </outline>
</glyph>
<glyph name="C" format="2">
  <advance width="426"/>
  <unicode hex="0043"/>
  <anchor x="220" y="0" name="bottom"/>
  <anchor x="228" y="693" name="top"/>
  <outline>
    <contour>
      <point x="226" y="-10" type="curve"/>
      <point x="330" y="-10"/>
      <point x="382" y="59"/>
      <point x="382" y="155" type="curve" smooth="yes"/>
      <point x="382" y="172"/>
      <point x="380" y="190"/>
      <point x="377" y="208" type="curve"/>
      <point x="311" y="208" type="line"/>
      <point x="312" y="191"/>
      <point x="314" y="171"/>
      <point x="314" y="156" type="curve" smooth="yes"/>
      <point x="314" y="87"/>
      <point x="296" y="51"/>
      <point x="225" y="51" type="curve" smooth="yes"/>
      <point x="164" y="51"/>
      <point x="144" y="87"/>
      <point x="130" y="157" type="curve" smooth="yes"/>
      <point x="121" y="203"/>
      <point x="120" y="269"/>
      <point x="120" y="336" type="curve" smooth="yes"/>
      <point x="120" y="389"/>
      <point x="121" y="462"/>
      <point x="131" y="519" type="curve" smooth="yes"/>
      <point x="144" y="591"/>
      <point x="174" y="641"/>
      <point x="232" y="641" type="curve" smooth="yes"/>
      <point x="298" y="641"/>
      <point x="316" y="582"/>
      <point x="316" y="492" type="curve" smooth="yes"/>
      <point x="316" y="445"/>
      <point x="310" y="395"/>
      <point x="305" y="353" type="curve"/>
      <point x="374" y="352" type="line"/>
      <point x="382" y="405"/>
      <point x="388" y="457"/>
      <point x="388" y="505" type="curve" smooth="yes"/>
      <point x="388" y="616"/>
      <point x="355" y="701"/>
      <point x="236" y="701" type="curve" smooth="yes"/>
      <point x="135" y="701"/>
      <point x="88" y="634"/>
      <point x="66" y="541" type="curve" smooth="yes"/>
      <point x="51" y="481"/>
      <point x="48" y="410.008"/>
      <point x="48" y="340" type="curve" smooth="yes"/>
      <point x="48" y="266"/>
      <point x="50" y="198"/>
      <point x="62" y="142" type="curve" smooth="yes"/>
      <point x="81" y="49"/>
      <point x="125" y="-10"/>
    </contour>
  </outline>
</glyph>
<glyph name="D" format="2">
  <advance width="447"/>
  <unicode hex="0044"/>
  <anchor x="140" y="348" name="center"/>
  <anchor x="214" y="693" name="top"/>
  <outline>
    <contour>
      <point x="172" y="-10" type="curve" smooth="yes"/>
      <point x="363" y="-10"/>
      <point x="399" y="90"/>
      <point x="399" y="359" type="curve" smooth="yes"/>
      <point x="399" y="628"/>
      <point x="358" y="708"/>
      <point x="172" y="708" type="curve" smooth="yes"/>
      <point x="140" y="708"/>
      <point x="103" y="706"/>
      <point x="62" y="702" type="curve"/>
      <point x="85" y="636" type="line"/>
      <point x="123" y="644"/>
      <point x="155" y="647"/>
      <point x="182" y="647" type="curve" smooth="yes"/>
      <point x="318" y="647"/>
      <point x="329" y="545"/>
      <point x="329" y="354" type="curve" smooth="yes"/>
      <point x="329" y="146"/>
      <point x="311" y="57"/>
      <point x="185" y="57" type="curve" smooth="yes"/>
      <point x="163" y="57"/>
      <point x="138" y="59"/>
      <point x="110" y="64" type="curve"/>
      <point x="65" y="-3" type="line"/>
      <point x="105" y="-8"/>
      <point x="140" y="-10"/>
    </contour>
    <contour>
      <point x="65" y="-3" type="curve"/>
      <point x="140" y="-3" type="line"/>
      <point x="138" y="104"/>
      <point x="136" y="277"/>
      <point x="136" y="361" type="curve"/>
      <point x="137" y="459"/>
      <point x="138" y="616"/>
      <point x="139" y="692" type="curve"/>
      <point x="62" y="702" type="line"/>
      <point x="65" y="630"/>
      <point x="69" y="488"/>
      <point x="69" y="363" type="curve"/>
      <point x="69" y="238"/>
      <point x="67" y="81"/>
    </contour>
  </outline>
</glyph>
<glyph name="E" format="2">
  <advance width="393"/>
  <unicode hex="0045"/>
  <anchor x="211" y="0" name="bottom"/>
  <anchor x="314" y="-3" name="ogonek"/>
  <anchor x="213" y="693" name="top"/>
  <outline>
    <contour>
      <point x="62" y="-5" type="curve"/>
      <point x="140" y="5" type="line"/>
      <point x="140" y="5"/>
      <point x="136" y="277"/>
      <point x="136" y="393" type="curve"/>
      <point x="136" y="509"/>
      <point x="139" y="690"/>
      <point x="139" y="690" type="curve"/>
      <point x="62" y="699" type="line"/>
      <point x="62" y="699"/>
      <point x="65" y="562"/>
      <point x="65" y="391" type="curve"/>
      <point x="65" y="220"/>
      <point x="62" y="-5"/>
    </contour>
    <contour>
      <point x="62" y="-5" type="line"/>
      <point x="360" y="0" type="line"/>
      <point x="360" y="61" type="line"/>
      <point x="106" y="66" type="line"/>
    </contour>
    <contour>
      <point x="101" y="203" type="line"/>
      <point x="355" y="207" type="line"/>
      <point x="357" y="268" type="line"/>
      <point x="101" y="271" type="line"/>
    </contour>
    <contour>
      <point x="94" y="625" type="line"/>
      <point x="348" y="626" type="line"/>
      <point x="348" y="693" type="line"/>
      <point x="62" y="699" type="line"/>
    </contour>
  </outline>
</glyph>
<glyph name="F" format="2">
  <advance width="370"/>
  <unicode hex="0046"/>
  <outline>
    <contour>
      <point x="62" y="-3" type="curve"/>
      <point x="139" y="0" type="line"/>
      <point x="139" y="0"/>
      <point x="135" y="206"/>
      <point x="135" y="322" type="curve"/>
      <point x="135" y="438"/>
      <point x="139" y="699"/>
      <point x="139" y="699" type="curve"/>
      <point x="63" y="709" type="line"/>
      <point x="63" y="709"/>
      <point x="66" y="495"/>
      <point x="66" y="324" type="curve"/>
      <point x="66" y="153"/>
      <point x="62" y="-3"/>
    </contour>
    <contour>
      <point x="103" y="241" type="line"/>
      <point x="334" y="250" type="line"/>
      <point x="332" y="307" type="line"/>
      <point x="103" y="309" type="line"/>
    </contour>
    <contour>
      <point x="106" y="638" type="line"/>
      <point x="330" y="640" type="line"/>
      <point x="333" y="702" type="line"/>
      <point x="63" y="709" type="line"/>
    </contour>
  </outline>
</glyph>
<glyph name="G" format="2">
  <advance width="429"/>
  <unicode hex="0047"/>
  <anchor x="219" y="0" name="bottom"/>
  <anchor x="222" y="693" name="top"/>
  <outline>
    <contour>
      <point x="48" y="347" type="curve" smooth="yes"/>
      <point x="48" y="279"/>
      <point x="49" y="209"/>
      <point x="61" y="150" type="curve" smooth="yes"/>
      <point x="79" y="60"/>
      <point x="120" y="-7"/>
      <point x="214" y="-7" type="curve" smooth="yes"/>
      <point x="285" y="-7"/>
      <point x="314" y="16"/>
      <point x="338" y="39" type="curve"/>
      <point x="350" y="0" type="line"/>
      <point x="386" y="0" type="line"/>
      <point x="380" y="258" type="line"/>
      <point x="225" y="260" type="line"/>
      <point x="225" y="198" type="line"/>
      <point x="315" y="200" type="line"/>
      <point x="317" y="184"/>
      <point x="319" y="169"/>
      <point x="319" y="156" type="curve" smooth="yes"/>
      <point x="319" y="92"/>
      <point x="291" y="55"/>
      <point x="224" y="55" type="curve" smooth="yes"/>
      <point x="166" y="55"/>
      <point x="140" y="93"/>
      <point x="129" y="164" type="curve" smooth="yes"/>
      <point x="121" y="210"/>
      <point x="120" y="270"/>
      <point x="120" y="342" type="curve" smooth="yes"/>
      <point x="120" y="406"/>
      <point x="122" y="472"/>
      <point x="132" y="527" type="curve" smooth="yes"/>
      <point x="145" y="598"/>
      <point x="173" y="649"/>
      <point x="231" y="649" type="curve" smooth="yes"/>
      <point x="292" y="649"/>
      <point x="312" y="608"/>
      <point x="312" y="530" type="curve" smooth="yes"/>
      <point x="312" y="490"/>
      <point x="307" y="442"/>
      <point x="299" y="384" type="curve"/>
      <point x="369" y="384" type="line"/>
      <point x="376" y="434"/>
      <point x="380" y="481"/>
      <point x="380" y="522" type="curve" smooth="yes"/>
      <point x="380" y="637"/>
      <point x="346" y="710"/>
      <point x="233" y="710" type="curve" smooth="yes"/>
      <point x="139" y="710"/>
      <point x="90" y="650"/>
      <point x="67" y="552" type="curve" smooth="yes"/>
      <point x="53" y="495"/>
      <point x="48" y="425"/>
    </contour>
  </outline>
</glyph>
<glyph name="H" format="2">
  <advance width="472"/>
  <unicode hex="0048"/>
  <anchor x="234" y="0" name="bottom"/>
  <anchor x="233" y="459" name="center"/>
  <anchor x="233" y="693" name="top"/>
  <outline>
    <contour>
      <point x="321" y="0" type="curve"/>
      <point x="406" y="0" type="line"/>
      <point x="406" y="0"/>
      <point x="401" y="212"/>
      <point x="401" y="383" type="curve"/>
      <point x="401" y="554"/>
      <point x="410" y="708"/>
      <point x="410" y="708" type="curve"/>
      <point x="326" y="706" type="line"/>
      <point x="326" y="706"/>
      <point x="330" y="497"/>
      <point x="330" y="381" type="curve"/>
      <point x="330" y="269"/>
      <point x="321" y="0"/>
    </contour>
    <contour>
      <point x="114" y="251" type="line"/>
      <point x="114" y="191" type="line"/>
      <point x="369" y="187" type="line"/>
      <point x="369" y="258" type="line"/>
    </contour>
    <contour>
      <point x="66" y="2" type="curve"/>
      <point x="147" y="3" type="line"/>
      <point x="147" y="3"/>
      <point x="142" y="235"/>
      <point x="142" y="352" type="curve"/>
      <point x="142" y="468"/>
      <point x="146" y="698"/>
      <point x="146" y="698" type="curve"/>
      <point x="62" y="694" type="line"/>
      <point x="62" y="694"/>
      <point x="71" y="524"/>
      <point x="71" y="353" type="curve"/>
      <point x="71" y="183"/>
      <point x="66" y="2"/>
    </contour>
  </outline>
</glyph>
<glyph name="I" format="2">
  <advance width="209"/>
  <unicode hex="0049"/>
  <anchor x="102" y="0" name="bottom"/>
  <anchor x="107" y="-3" name="ogonek"/>
  <anchor x="104" y="693" name="top"/>
  <outline>
    <contour>
      <point x="66" y="699" type="line"/>
      <point x="68" y="657"/>
      <point x="67" y="487"/>
      <point x="67" y="328" type="curve"/>
      <point x="67" y="157"/>
      <point x="62" y="1"/>
      <point x="62" y="1" type="curve"/>
      <point x="142" y="-1" type="line"/>
      <point x="142" y="-1"/>
      <point x="137" y="213"/>
      <point x="137" y="330" type="curve"/>
      <point x="137" y="446"/>
      <point x="147" y="701"/>
      <point x="147" y="701" type="curve"/>
    </contour>
  </outline>
</glyph>
<glyph name="J" format="2">
  <advance width="388"/>
  <unicode hex="004A"/>
  <anchor x="287" y="693" name="top"/>
  <outline>
    <contour>
      <point x="172" y="-10" type="curve"/>
      <point x="290" y="-10"/>
      <point x="328" y="74"/>
      <point x="328" y="201" type="curve"/>
      <point x="328" y="271"/>
      <point x="328" y="334"/>
      <point x="328" y="402" type="curve"/>
      <point x="328" y="492"/>
      <point x="328" y="604"/>
      <point x="330" y="697" type="curve"/>
      <point x="252" y="695" type="line"/>
      <point x="256" y="608"/>
      <point x="257" y="464"/>
      <point x="257" y="396" type="curve"/>
      <point x="258" y="319"/>
      <point x="258" y="243"/>
      <point x="258" y="203" type="curve"/>
      <point x="258" y="120"/>
      <point x="244" y="48"/>
      <point x="174" y="48" type="curve"/>
      <point x="107" y="48"/>
      <point x="87" y="94"/>
      <point x="87" y="179" type="curve" smooth="yes"/>
      <point x="87" y="213"/>
      <point x="90" y="253"/>
      <point x="95" y="298" type="curve"/>
      <point x="31" y="299" type="line"/>
      <point x="26" y="259"/>
      <point x="21" y="219"/>
      <point x="21" y="181" type="curve" smooth="yes"/>
      <point x="21" y="77"/>
      <point x="52" y="-10"/>
    </contour>
  </outline>
</glyph>
<glyph name="K" format="2">
  <advance width="419"/>
  <unicode hex="004B"/>
  <anchor x="229" y="0" name="bottom"/>
  <outline>
    <contour>
      <point x="332" y="1" type="curve"/>
      <point x="428" y="5" type="line"/>
      <point x="342" y="104"/>
      <point x="256" y="207"/>
      <point x="182" y="301" type="curve"/>
      <point x="241" y="405"/>
      <point x="359" y="605"/>
      <point x="421" y="704" type="curve"/>
      <point x="339" y="702" type="line"/>
      <point x="292" y="609"/>
      <point x="196" y="435"/>
      <point x="106" y="281" type="curve"/>
      <point x="184" y="190"/>
      <point x="266" y="89"/>
    </contour>
    <contour>
      <point x="62" y="0" type="curve"/>
      <point x="142" y="0" type="line"/>
      <point x="142" y="0"/>
      <point x="138" y="212"/>
      <point x="138" y="357" type="curve"/>
      <point x="138" y="503"/>
      <point x="144" y="702"/>
      <point x="144" y="702" type="curve"/>
      <point x="65" y="703" type="line"/>
      <point x="65" y="703"/>
      <point x="68" y="499"/>
      <point x="68" y="356" type="curve"/>
      <point x="68" y="213"/>
      <point x="62" y="0"/>
    </contour>
  </outline>
</glyph>
<glyph name="M" format="2">
  <advance width="644"/>
  <unicode hex="004D"/>
  <outline>
    <contour>
      <point x="62" y="-1" type="curve"/>
      <point x="131" y="-1" type="line"/>
      <point x="130" y="123"/>
      <point x="129" y="252"/>
      <point x="128" y="357" type="curve" smooth="yes"/>
      <point x="128" y="474"/>
      <point x="127" y="563"/>
      <point x="127" y="584" type="curve"/>
      <point x="147" y="519"/>
      <point x="165" y="450"/>
      <point x="184" y="374" type="curve" smooth="yes"/>
      <point x="210" y="271"/>
      <point x="238" y="153"/>
      <point x="275" y="10" type="curve"/>
      <point x="362" y="7" type="line"/>
      <point x="403" y="163"/>
      <point x="431" y="274"/>
      <point x="454" y="368" type="curve" smooth="yes"/>
      <point x="474" y="447"/>
      <point x="490" y="514"/>
      <point x="510" y="587" type="curve"/>
      <point x="511" y="517"/>
      <point x="511" y="449"/>
      <point x="511" y="358" type="curve" smooth="yes"/>
      <point x="510" y="268"/>
      <point x="510" y="157"/>
      <point x="509" y="0" type="curve"/>
      <point x="582" y="-2" type="line"/>
      <point x="580" y="102"/>
      <point x="579" y="239"/>
      <point x="579" y="369" type="curve" smooth="yes"/>
      <point x="579" y="499"/>
      <point x="580" y="622"/>
      <point x="581" y="697" type="curve"/>
      <point x="470" y="697" type="line"/>
      <point x="451" y="620"/>
      <point x="421" y="492"/>
      <point x="391" y="365" type="curve" smooth="yes"/>
      <point x="365" y="256"/>
      <point x="339" y="149"/>
      <point x="319" y="75" type="curve"/>
      <point x="300" y="147"/>
      <point x="274" y="251"/>
      <point x="248" y="357" type="curve" smooth="yes"/>
      <point x="216" y="485"/>
      <point x="185" y="618"/>
      <point x="166" y="704" type="curve"/>
      <point x="63" y="702" type="line"/>
      <point x="65" y="610"/>
      <point x="65" y="476"/>
      <point x="65" y="344" type="curve" smooth="yes"/>
      <point x="65" y="215"/>
      <point x="64" y="87"/>
    </contour>
  </outline>
</glyph>
<glyph name="N" format="2">
  <advance width="479"/>
  <unicode hex="004E"/>
  <anchor x="242" y="0" name="bottom"/>
  <anchor x="245" y="693" name="top"/>
  <outline>
    <contour>
      <point x="62" y="704" type="line"/>
      <point x="65" y="614"/>
      <point x="67" y="481"/>
      <point x="67" y="349" type="curve" smooth="yes"/>
      <point x="67" y="220"/>
      <point x="66" y="91"/>
      <point x="65" y="1" type="curve"/>
      <point x="137" y="0" type="line"/>
      <point x="135" y="121"/>
      <point x="135" y="239"/>
      <point x="134" y="342" type="curve" smooth="yes"/>
      <point x="134" y="441"/>
      <point x="133" y="528"/>
      <point x="133" y="593" type="curve"/>
      <point x="154" y="530"/>
      <point x="179" y="445"/>
      <point x="205" y="355" type="curve" smooth="yes"/>
      <point x="240" y="233"/>
      <point x="276" y="101"/>
      <point x="303" y="1" type="curve"/>
      <point x="415" y="9" type="line"/>
      <point x="413" y="108"/>
      <point x="412" y="241"/>
      <point x="412" y="369" type="curve" smooth="yes"/>
      <point x="412" y="503"/>
      <point x="414" y="633"/>
      <point x="417" y="715" type="curve"/>
      <point x="342" y="715" type="line"/>
      <point x="344" y="598"/>
      <point x="344" y="482"/>
      <point x="345" y="374" type="curve" smooth="yes"/>
      <point x="345" y="280"/>
      <point x="346" y="191"/>
      <point x="346" y="110" type="curve"/>
      <point x="328" y="167"/>
      <point x="300" y="261"/>
      <point x="271" y="362" type="curve" smooth="yes"/>
      <point x="237" y="485"/>
      <point x="200" y="617"/>
      <point x="178" y="704" type="curve"/>
    </contour>
  </outline>
</glyph>
<glyph name="P" format="2">
  <advance width="407"/>
  <unicode hex="0050"/>
  <outline>
    <contour>
      <point x="116" y="211" type="line"/>
      <point x="282" y="211"/>
      <point x="387" y="270"/>
      <point x="387" y="457" type="curve"/>
      <point x="387" y="667"/>
      <point x="321" y="714"/>
      <point x="158" y="714" type="curve" smooth="yes"/>
      <point x="129" y="714"/>
      <point x="98" y="712"/>
      <point x="63" y="710" type="curve"/>
      <point x="85" y="646" type="line"/>
      <point x="120" y="650"/>
      <point x="149" y="652"/>
      <point x="175" y="652" type="curve" smooth="yes"/>
      <point x="287" y="652"/>
      <point x="317" y="607"/>
      <point x="317" y="454" type="curve"/>
      <point x="317" y="301"/>
      <point x="245" y="276"/>
      <point x="112" y="276" type="curve"/>
    </contour>
    <contour>
      <point x="62" y="-6" type="curve"/>
      <point x="141" y="-2" type="line"/>
      <point x="139" y="103"/>
      <point x="137" y="274"/>
      <point x="137" y="359" type="curve"/>
      <point x="137" y="457"/>
      <point x="141" y="608"/>
      <point x="143" y="703" type="curve"/>
      <point x="63" y="710" type="line"/>
      <point x="64" y="632"/>
      <point x="66" y="482"/>
      <point x="66" y="357" type="curve"/>
      <point x="66" y="232"/>
      <point x="64" y="77"/>
    </contour>
  </outline>
</glyph>
<glyph name="R" format="2">
  <advance width="433"/>
  <unicode hex="0052"/>
  <anchor x="224" y="0" name="bottom"/>
  <anchor x="211" y="693" name="top"/>
  <outline>
    <contour>
      <point x="116" y="221" type="line"/>
      <point x="282" y="221"/>
      <point x="387" y="280"/>
      <point x="387" y="462" type="curve"/>
      <point x="387" y="670"/>
      <point x="319" y="714"/>
      <point x="158" y="714" type="curve" smooth="yes"/>
      <point x="129" y="714"/>
      <point x="98" y="712"/>
      <point x="63" y="710" type="curve"/>
      <point x="85" y="646" type="line"/>
      <point x="120" y="650"/>
      <point x="149" y="652"/>
      <point x="175" y="652" type="curve" smooth="yes"/>
      <point x="285" y="652"/>
      <point x="317" y="610"/>
      <point x="317" y="459" type="curve"/>
      <point x="317" y="311"/>
      <point x="245" y="286"/>
      <point x="112" y="286" type="curve"/>
    </contour>
    <contour>
      <point x="62" y="-6" type="curve"/>
      <point x="141" y="-2" type="line"/>
      <point x="139" y="106"/>
      <point x="137" y="278"/>
      <point x="137" y="359" type="curve"/>
      <point x="137" y="457"/>
      <point x="141" y="608"/>
      <point x="143" y="703" type="curve"/>
      <point x="63" y="710" type="line"/>
      <point x="64" y="632"/>
      <point x="66" y="482"/>
      <point x="66" y="357" type="curve"/>
      <point x="66" y="232"/>
      <point x="64" y="77"/>
    </contour>
    <contour>
      <point x="331" y="-6" type="curve"/>
      <point x="424" y="-3" type="line"/>
      <point x="364" y="103"/>
      <point x="312" y="203"/>
      <point x="271" y="301" type="curve"/>
      <point x="200" y="271" type="line"/>
      <point x="252" y="173"/>
      <point x="293" y="85"/>
    </contour>
  </outline>
</glyph>
<glyph name="S" format="2">
  <advance width="422"/>
  <unicode hex="0053"/>
  <anchor x="206" y="0" name="bottom"/>
  <anchor x="222" y="693" name="top"/>
  <outline>
    <contour>
      <point x="210" y="-10" type="curve"/>
      <point x="319" y="-10"/>
      <point x="386" y="54"/>
      <point x="386" y="151" type="curve"/>
      <point x="386" y="255"/>
      <point x="298" y="293"/>
      <point x="221" y="342" type="curve" smooth="yes"/>
      <point x="163" y="380"/>
      <point x="112" y="424"/>
      <point x="112" y="510" type="curve"/>
      <point x="112" y="580"/>
      <point x="138" y="641"/>
      <point x="216" y="641" type="curve"/>
      <point x="297" y="641"/>
      <point x="316" y="578"/>
      <point x="316" y="507" type="curve" smooth="yes"/>
      <point x="316" y="468"/>
      <point x="311" y="428"/>
      <point x="306" y="394" type="curve"/>
      <point x="379" y="394" type="line"/>
      <point x="383" y="428"/>
      <point x="388" y="467"/>
      <point x="388" y="507" type="curve" smooth="yes"/>
      <point x="388" y="606"/>
      <point x="358" y="704"/>
      <point x="218" y="704" type="curve"/>
      <point x="108" y="704"/>
      <point x="40" y="624"/>
      <point x="40" y="513" type="curve"/>
      <point x="40" y="389"/>
      <point x="110" y="331"/>
      <point x="179" y="286" type="curve" smooth="yes"/>
      <point x="246" y="243"/>
      <point x="313" y="212"/>
      <point x="313" y="144" type="curve"/>
      <point x="313" y="94"/>
      <point x="285" y="51"/>
      <point x="206" y="51" type="curve"/>
      <point x="128" y="51"/>
      <point x="110" y="97"/>
      <point x="110" y="155" type="curve" smooth="yes"/>
      <point x="110" y="174"/>
      <point x="112" y="196"/>
      <point x="115" y="217" type="curve"/>
      <point x="47" y="217" type="line"/>
      <point x="43" y="196"/>
      <point x="41" y="176"/>
      <point x="41" y="156" type="curve" smooth="yes"/>
      <point x="41" y="67"/>
      <point x="84" y="-10"/>
    </contour>
  </outline>
</glyph>
<glyph name="V" format="2">
  <advance width="430"/>
  <unicode hex="0056"/>
  <outline>
    <contour>
      <point x="12" y="712" type="line"/>
      <point x="32" y="620"/>
      <point x="62" y="485"/>
      <point x="90" y="352" type="curve" smooth="yes"/>
      <point x="118" y="218"/>
      <point x="145" y="86"/>
      <point x="162" y="3" type="curve"/>
      <point x="270" y="0" type="line"/>
      <point x="288" y="89"/>
      <point x="316" y="226"/>
      <point x="344" y="363" type="curve" smooth="yes"/>
      <point x="371" y="491"/>
      <point x="399" y="620"/>
      <point x="418" y="708" type="curve"/>
      <point x="342" y="705" type="line"/>
      <point x="321" y="600"/>
      <point x="296" y="475"/>
      <point x="273" y="358" type="curve" smooth="yes"/>
      <point x="253" y="255"/>
      <point x="233" y="157"/>
      <point x="217" y="84" type="curve"/>
      <point x="199" y="172"/>
      <point x="182" y="259"/>
      <point x="164" y="350" type="curve" smooth="yes"/>
      <point x="142" y="463"/>
      <point x="119" y="582"/>
      <point x="93" y="713" type="curve"/>
    </contour>
  </outline>
</glyph>
<glyph name="W" format="2">
  <advance width="733"/>
  <unicode hex="0057"/>
  <anchor x="363" y="693" name="top"/>
  <outline>
    <contour>
      <point x="259" y="0" type="line"/>
      <point x="282" y="109"/>
      <point x="309" y="238"/>
      <point x="332" y="349" type="curve" smooth="yes"/>
      <point x="344" y="411"/>
      <point x="356" y="467"/>
      <point x="365" y="512" type="curve"/>
      <point x="377" y="462"/>
      <point x="389" y="403"/>
      <point x="401" y="340" type="curve" smooth="yes"/>
      <point x="424" y="228"/>
      <point x="446" y="104"/>
      <point x="466" y="1" type="curve"/>
      <point x="576" y="0" type="line"/>
      <point x="591" y="81"/>
      <point x="616" y="210"/>
      <point x="643" y="342" type="curve" smooth="yes"/>
      <point x="670" y="476"/>
      <point x="699" y="615"/>
      <point x="721" y="714" type="curve"/>
      <point x="648" y="713" type="line"/>
      <point x="626" y="599"/>
      <point x="600" y="470"/>
      <point x="576" y="352" type="curve" smooth="yes"/>
      <point x="556" y="249"/>
      <point x="536" y="154"/>
      <point x="522" y="85" type="curve"/>
      <point x="504" y="167"/>
      <point x="484" y="260"/>
      <point x="467" y="349" type="curve" smooth="yes"/>
      <point x="443" y="468"/>
      <point x="423" y="580"/>
      <point x="412" y="651" type="curve"/>
      <point x="323" y="650" type="line"/>
      <point x="310" y="573"/>
      <point x="290" y="463"/>
      <point x="268" y="353" type="curve" smooth="yes"/>
      <point x="249" y="254"/>
      <point x="228" y="156"/>
      <point x="211" y="83" type="curve"/>
      <point x="192" y="174"/>
      <point x="174" y="264"/>
      <point x="156" y="357" type="curve" smooth="yes"/>
      <point x="135" y="466"/>
      <point x="114" y="578"/>
      <point x="90" y="701" type="curve"/>
      <point x="12" y="701" type="line"/>
      <point x="30" y="613"/>
      <point x="58" y="479"/>
      <point x="85" y="347" type="curve" smooth="yes"/>
      <point x="112" y="214"/>
      <point x="139" y="83"/>
      <point x="154" y="0" type="curve"/>
    </contour>
  </outline>
</glyph>
<glyph name="X" format="2">
  <advance width="413"/>
  <unicode hex="0058"/>
  <outline>
    <contour>
      <point x="-13" y="-2" type="curve"/>
      <point x="72" y="-1" type="line"/>
      <point x="72" y="-1"/>
      <point x="149" y="175"/>
      <point x="234" y="350" type="curve"/>
      <point x="317" y="521"/>
      <point x="409" y="691"/>
      <point x="409" y="691" type="curve"/>
      <point x="327" y="692" type="line"/>
      <point x="327" y="692"/>
      <point x="249" y="527"/>
      <point x="168" y="359" type="curve"/>
      <point x="83" y="184"/>
      <point x="-13" y="-2"/>
    </contour>
    <contour>
      <point x="336" y="-11" type="curve"/>
      <point x="426" y="-7" type="line"/>
      <point x="426" y="-7"/>
      <point x="325" y="196"/>
      <point x="246" y="369" type="curve"/>
      <point x="168" y="536"/>
      <point x="101" y="688"/>
      <point x="101" y="688" type="curve"/>
      <point x="12" y="690" type="line"/>
      <point x="12" y="690"/>
      <point x="101" y="516"/>
      <point x="181" y="346" type="curve"/>
      <point x="261" y="173"/>
      <point x="336" y="-11"/>
    </contour>
  </outline>
</glyph>
<glyph name="Y" format="2">
  <advance width="379"/>
  <unicode hex="0059"/>
  <anchor x="186" y="0" name="bottom"/>
  <anchor x="188" y="693" name="top"/>
  <outline>
    <contour>
      <point x="148" y="0" type="curve"/>
      <point x="224" y="1" type="line"/>
      <point x="224" y="1"/>
      <point x="221" y="114"/>
      <point x="218" y="224" type="curve"/>
      <point x="149" y="233" type="line"/>
      <point x="152" y="71"/>
      <point x="148" y="0"/>
    </contour>
    <contour>
      <point x="-10" y="704" type="line"/>
      <point x="12" y="636"/>
      <point x="43" y="534"/>
      <point x="73" y="429" type="curve" smooth="yes"/>
      <point x="104" y="326"/>
      <point x="134" y="220"/>
      <point x="155" y="141" type="curve"/>
      <point x="215" y="141" type="line"/>
      <point x="235" y="212"/>
      <point x="268" y="320"/>
      <point x="302" y="427" type="curve" smooth="yes"/>
      <point x="334" y="531"/>
      <point x="367" y="634"/>
      <point x="389" y="698" type="curve"/>
      <point x="309" y="696" type="line"/>
      <point x="285" y="613"/>
      <point x="259" y="518"/>
      <point x="235" y="435" type="curve" smooth="yes"/>
      <point x="217" y="371"/>
      <point x="200" y="314"/>
      <point x="186" y="274" type="curve"/>
      <point x="172" y="318"/>
      <point x="156" y="379"/>
      <point x="139" y="445" type="curve" smooth="yes"/>
      <point x="115" y="534"/>
      <point x="91" y="630"/>
      <point x="70" y="704" type="curve"/>
    </contour>
  </outline>
</glyph>
<glyph name="Z" format="2">
  <advance width="363"/>
  <unicode hex="005A"/>
  <anchor x="190" y="693" name="top"/>
  <outline>
    <contour>
      <point x="25" y="693" type="curve"/>
      <point x="24" y="623" type="line"/>
      <point x="24" y="623"/>
      <point x="96" y="626"/>
      <point x="168" y="626" type="curve" smooth="yes"/>
      <point x="198" y="626"/>
      <point x="233" y="625"/>
      <point x="263" y="625" type="curve"/>
      <point x="231" y="551"/>
      <point x="185" y="452"/>
      <point x="138" y="347" type="curve" smooth="yes"/>
      <point x="96" y="255"/>
      <point x="50" y="158"/>
      <point x="8" y="69" type="curve"/>
      <point x="12" y="1" type="line"/>
      <point x="12" y="1"/>
      <point x="109" y="3"/>
      <point x="182" y="3" type="curve" smooth="yes"/>
      <point x="245" y="2"/>
      <point x="293" y="1"/>
      <point x="355" y="0" type="curve"/>
      <point x="355" y="72" type="line"/>
      <point x="297" y="71"/>
      <point x="260" y="71"/>
      <point x="203" y="69" type="curve" smooth="yes"/>
      <point x="173" y="68"/>
      <point x="127" y="69"/>
      <point x="90" y="69" type="curve"/>
      <point x="127" y="155"/>
      <point x="168" y="244"/>
      <point x="208" y="330" type="curve" smooth="yes"/>
      <point x="256" y="433"/>
      <point x="303" y="533"/>
      <point x="347" y="623" type="curve"/>
      <point x="344" y="695" type="line"/>
      <point x="287" y="694"/>
      <point x="248" y="693"/>
      <point x="191" y="692" type="curve" smooth="yes"/>
      <point x="131" y="691"/>
      <point x="59" y="691"/>
    </contour>
  </outline>
</glyph>
<glyph name="bracketleft" format="2">
  <advance width="417"/>
  <unicode hex="005B"/>
  <outline>
    <contour>
      <point x="85" y="-137" type="curve"/>
      <point x="154" y="-130" type="line"/>
      <point x="154" y="-130"/>
      <point x="154" y="179"/>
      <point x="154" y="315" type="curve"/>
      <point x="154" y="452"/>
      <point x="154" y="671"/>
      <point x="154" y="671" type="curve"/>
      <point x="92" y="691" type="line"/>
      <point x="92" y="691"/>
      <point x="96" y="505"/>
      <point x="96" y="304" type="curve"/>
      <point x="96" y="104"/>
      <point x="85" y="-137"/>
    </contour>
    <contour>
      <point x="85" y="-137" type="line"/>
      <point x="135" y="-135"/>
      <point x="328" y="-130"/>
      <point x="328" y="-130" type="curve"/>
      <point x="331" y="-75" type="line"/>
      <point x="331" y="-75"/>
      <point x="160" y="-74"/>
      <point x="110" y="-71" type="curve"/>
    </contour>
    <contour>
      <point x="119" y="631" type="line"/>
      <point x="169" y="632"/>
      <point x="332" y="633"/>
      <point x="332" y="633" type="curve"/>
      <point x="325" y="693" type="line"/>
      <point x="325" y="693"/>
      <point x="140" y="691"/>
      <point x="92" y="691" type="curve"/>
    </contour>
  </outline>
</glyph>
<glyph name="backslash" format="2">
  <advance width="302"/>
  <unicode hex="005C"/>
  <outline>
    <contour>
      <point x="292" y="-1" type="line"/>
      <point x="292" y="-1"/>
      <point x="226" y="193"/>
      <point x="183" y="339" type="curve"/>
      <point x="139" y="485"/>
      <point x="84" y="697"/>
      <point x="84" y="697" type="curve"/>
      <point x="10" y="695" type="line"/>
      <point x="10" y="695"/>
      <point x="77" y="484"/>
      <point x="120" y="340" type="curve"/>
      <point x="163" y="197"/>
      <point x="221" y="0"/>
      <point x="221" y="0" type="curve"/>
    </contour>
  </outline>
</glyph>
<glyph name="bracketright" format="2">
  <advance width="417"/>
  <unicode hex="005D"/>
  <outline>
    <contour>
      <point x="325" y="-135" type="line"/>
      <point x="323" y="-55"/>
      <point x="321" y="105"/>
      <point x="321" y="252" type="curve"/>
      <point x="321" y="398"/>
      <point x="327" y="589"/>
      <point x="332" y="693" type="curve"/>
      <point x="263" y="686" type="line"/>
      <point x="263" y="553"/>
      <point x="263" y="340"/>
      <point x="263" y="241" type="curve"/>
      <point x="263" y="141"/>
      <point x="263" y="-21"/>
      <point x="263" y="-115" type="curve"/>
    </contour>
    <contour>
      <point x="92" y="-137" type="line"/>
      <point x="172" y="-136"/>
      <point x="290" y="-135"/>
      <point x="325" y="-135" type="curve"/>
      <point x="298" y="-75" type="line"/>
      <point x="262" y="-76"/>
      <point x="155" y="-77"/>
      <point x="85" y="-77" type="curve"/>
    </contour>
    <contour>
      <point x="86" y="631" type="line"/>
      <point x="160" y="631"/>
      <point x="271" y="629"/>
      <point x="307" y="627" type="curve"/>
      <point x="332" y="693" type="line"/>
      <point x="296" y="692"/>
      <point x="172" y="688"/>
      <point x="89" y="686" type="curve"/>
    </contour>
  </outline>
</glyph>
<glyph name="underscore" format="2">
  <advance width="404"/>
  <unicode hex="005F"/>
  <outline>
    <contour>
      <point x="32" y="-115" type="line"/>
      <point x="32" y="-115"/>
      <point x="136" y="-112"/>
      <point x="203" y="-111" type="curve" smooth="yes"/>
      <point x="275" y="-110"/>
      <point x="372" y="-112"/>
      <point x="372" y="-112" type="curve"/>
      <point x="374" y="-46" type="line"/>
      <point x="374" y="-46"/>
      <point x="272" y="-49"/>
      <point x="197" y="-50" type="curve" smooth="yes"/>
      <point x="123" y="-52"/>
      <point x="30" y="-48"/>
      <point x="30" y="-48" type="curve"/>
    </contour>
  </outline>
</glyph>
<glyph name="a" format="2">
  <advance width="358"/>
  <unicode hex="0061"/>
  <anchor x="173" y="0" name="bottom"/>
  <anchor x="294" y="-3" name="ogonek"/>
  <anchor x="173" y="555" name="top"/>
  <outline>
    <contour>
      <point x="250" y="0" type="line"/>
      <point x="312" y="0" type="line"/>
      <point x="307" y="277" type="line"/>
      <point x="308" y="384" type="line" smooth="yes"/>
      <point x="309" y="473"/>
      <point x="287" y="565"/>
      <point x="175" y="565" type="curve" smooth="yes"/>
      <point x="107" y="565"/>
      <point x="47" y="524"/>
      <point x="47" y="435" type="curve" smooth="yes"/>
      <point x="47" y="415"/>
      <point x="50" y="393"/>
      <point x="56" y="369" type="curve"/>
      <point x="114" y="372" type="line"/>
      <point x="108" y="394"/>
      <point x="106" y="413"/>
      <point x="106" y="429" type="curve" smooth="yes"/>
      <point x="106" y="490"/>
      <point x="141" y="516"/>
      <point x="173" y="516" type="curve" smooth="yes"/>
      <point x="213" y="516"/>
      <point x="245" y="485"/>
      <point x="246" y="406" type="curve" smooth="yes"/>
      <point x="250" y="113" type="line"/>
    </contour>
    <contour>
      <point x="139" y="-7" type="curve" smooth="yes"/>
      <point x="250" y="-7"/>
      <point x="281" y="90"/>
      <point x="281" y="304" type="curve"/>
      <point x="249" y="241" type="line"/>
      <point x="249" y="120"/>
      <point x="210" y="50"/>
      <point x="147" y="50" type="curve" smooth="yes"/>
      <point x="108" y="50"/>
      <point x="94" y="79"/>
      <point x="94" y="123" type="curve" smooth="yes"/>
      <point x="94" y="172"/>
      <point x="123" y="209"/>
      <point x="179" y="248" type="curve" smooth="yes"/>
      <point x="255" y="300"/>
      <point x="282" y="334"/>
      <point x="282" y="399" type="curve"/>
      <point x="246" y="406" type="line"/>
      <point x="246" y="338"/>
      <point x="180" y="314"/>
      <point x="127" y="275" type="curve" smooth="yes"/>
      <point x="69" y="233"/>
      <point x="32" y="191"/>
      <point x="32" y="120" type="curve" smooth="yes"/>
      <point x="32" y="46"/>
      <point x="73" y="-7"/>
    </contour>
  </outline>
</glyph>
<glyph name="b" format="2">
  <advance width="400"/>
  <unicode hex="0062"/>
  <outline>
    <contour>
      <point x="214" y="-7" type="curve" smooth="yes"/>
      <point x="284" y="-7"/>
      <point x="330" y="49"/>
      <point x="344" y="136" type="curve" smooth="yes"/>
      <point x="355" y="207"/>
      <point x="356" y="299"/>
      <point x="356" y="391" type="curve" smooth="yes"/>
      <point x="356" y="495"/>
      <point x="319" y="563"/>
      <point x="234" y="564" type="curve" smooth="yes"/>
      <point x="120" y="565"/>
      <point x="88" y="405"/>
      <point x="90" y="271" type="curve"/>
      <point x="124" y="319" type="line"/>
      <point x="124" y="445"/>
      <point x="174" y="504"/>
      <point x="229" y="504" type="curve" smooth="yes"/>
      <point x="279" y="504"/>
      <point x="296" y="462"/>
      <point x="296" y="374" type="curve" smooth="yes"/>
      <point x="296" y="298"/>
      <point x="294" y="217"/>
      <point x="285" y="151" type="curve" smooth="yes"/>
      <point x="277" y="93"/>
      <point x="251" y="54"/>
      <point x="209" y="54" type="curve" smooth="yes"/>
      <point x="161" y="54"/>
      <point x="123" y="104"/>
      <point x="123" y="238" type="curve"/>
      <point x="89" y="277" type="line"/>
      <point x="87" y="107"/>
      <point x="112" y="-7"/>
    </contour>
    <contour>
      <point x="119" y="-1" type="line"/>
      <point x="122" y="96" type="line"/>
      <point x="122" y="176"/>
      <point x="124" y="276"/>
      <point x="124" y="344" type="curve"/>
      <point x="124" y="490"/>
      <point x="129" y="701"/>
      <point x="129" y="701" type="curve"/>
      <point x="53" y="696" type="line"/>
      <point x="53" y="696"/>
      <point x="62" y="489"/>
      <point x="62" y="345" type="curve"/>
      <point x="62" y="202"/>
      <point x="57" y="1"/>
      <point x="57" y="1" type="curve"/>
    </contour>
  </outline>
</glyph>
<glyph name="c" format="2">
  <advance width="373"/>
  <unicode hex="0063"/>
  <anchor x="202" y="0" name="bottom"/>
  <anchor x="195" y="555" name="top"/>
  <outline>
    <contour>
      <point x="190" y="-13" type="curve" smooth="yes"/>
      <point x="295" y="-13"/>
      <point x="333" y="52"/>
      <point x="333" y="155" type="curve" smooth="yes"/>
      <point x="333" y="165"/>
      <point x="333" y="176"/>
      <point x="332" y="187" type="curve"/>
      <point x="270" y="185" type="line"/>
      <point x="272" y="170"/>
      <point x="273" y="156"/>
      <point x="273" y="142" type="curve" smooth="yes"/>
      <point x="273" y="87"/>
      <point x="255" y="44"/>
      <point x="197" y="44" type="curve" smooth="yes"/>
      <point x="152" y="44"/>
      <point x="129" y="77"/>
      <point x="119" y="133" type="curve" smooth="yes"/>
      <point x="112" y="170"/>
      <point x="110" y="217"/>
      <point x="110" y="270" type="curve" smooth="yes"/>
      <point x="110" y="314"/>
      <point x="111" y="356"/>
      <point x="116" y="391" type="curve" smooth="yes"/>
      <point x="125" y="462"/>
      <point x="148" y="509"/>
      <point x="201" y="509" type="curve" smooth="yes"/>
      <point x="255" y="509"/>
      <point x="269" y="463"/>
      <point x="269" y="403" type="curve" smooth="yes"/>
      <point x="269" y="373"/>
      <point x="265" y="339"/>
      <point x="262" y="306" type="curve"/>
      <point x="325" y="305" type="line"/>
      <point x="329" y="332"/>
      <point x="331" y="362"/>
      <point x="331" y="391" type="curve" smooth="yes"/>
      <point x="331" y="479"/>
      <point x="306" y="563"/>
      <point x="209" y="563" type="curve" smooth="yes"/>
      <point x="119" y="563"/>
      <point x="76" y="508"/>
      <point x="57" y="423" type="curve" smooth="yes"/>
      <point x="47" y="380"/>
      <point x="44" y="328"/>
      <point x="44" y="272" type="curve" smooth="yes"/>
      <point x="44" y="212"/>
      <point x="48" y="155"/>
      <point x="61" y="109" type="curve" smooth="yes"/>
      <point x="80" y="36"/>
      <point x="119" y="-13"/>
    </contour>
  </outline>
</glyph>
<glyph name="d" format="2">
  <advance width="394"/>
  <unicode hex="0064"/>
  <anchor x="288" y="625" name="center"/>
  <anchor x="364" y="463" name="topright"/>
  <outline>
    <contour>
      <point x="44" y="276" type="curve" smooth="yes"/>
      <point x="44" y="203"/>
      <point x="46" y="133"/>
      <point x="62" y="81" type="curve" smooth="yes"/>
      <point x="79" y="26"/>
      <point x="110" y="-10"/>
      <point x="170" y="-10" type="curve" smooth="yes"/>
      <point x="229" y="-10"/>
      <point x="264" y="29"/>
      <point x="284" y="67" type="curve"/>
      <point x="284" y="0" type="line"/>
      <point x="349" y="0" type="line"/>
      <point x="346" y="132"/>
      <point x="345" y="222"/>
      <point x="345" y="353" type="curve" smooth="yes"/>
      <point x="345" y="448"/>
      <point x="347" y="551"/>
      <point x="351" y="693" type="curve"/>
      <point x="280" y="694" type="line"/>
      <point x="281" y="637"/>
      <point x="282" y="568"/>
      <point x="283" y="512" type="curve"/>
      <point x="266" y="540"/>
      <point x="240" y="566"/>
      <point x="189" y="566" type="curve" smooth="yes"/>
      <point x="112" y="566"/>
      <point x="74" y="507"/>
      <point x="57" y="424" type="curve" smooth="yes"/>
      <point x="47" y="379"/>
      <point x="44" y="328"/>
    </contour>
    <contour>
      <point x="109" y="272" type="curve" smooth="yes"/>
      <point x="109" y="321"/>
      <point x="111" y="370"/>
      <point x="118" y="411" type="curve" smooth="yes"/>
      <point x="129" y="469"/>
      <point x="151" y="510"/>
      <point x="196" y="510" type="curve" smooth="yes"/>
      <point x="239" y="510"/>
      <point x="262" y="469"/>
      <point x="273" y="415" type="curve" smooth="yes"/>
      <point x="281" y="377"/>
      <point x="283" y="334"/>
      <point x="283" y="293" type="curve" smooth="yes"/>
      <point x="283" y="247"/>
      <point x="280" y="196"/>
      <point x="270" y="152" type="curve" smooth="yes"/>
      <point x="257" y="92"/>
      <point x="230" y="46"/>
      <point x="182" y="46" type="curve" smooth="yes"/>
      <point x="137" y="46"/>
      <point x="120" y="79"/>
      <point x="113" y="132" type="curve" smooth="yes"/>
      <point x="108" y="170"/>
      <point x="109" y="218"/>
    </contour>
  </outline>
</glyph>
<glyph name="e" format="2">
  <advance width="375"/>
  <unicode hex="0065"/>
  <anchor x="196" y="0" name="bottom"/>
  <anchor x="234" y="-5" name="ogonek"/>
  <anchor x="201" y="555" name="top"/>
  <outline>
    <contour>
      <point x="195" y="-12" type="curve" smooth="yes"/>
      <point x="289" y="-12"/>
      <point x="332" y="49"/>
      <point x="332" y="139" type="curve" smooth="yes"/>
      <point x="332" y="154"/>
      <point x="331" y="169"/>
      <point x="329" y="185" type="curve"/>
      <point x="270" y="185" type="line"/>
      <point x="272" y="170"/>
      <point x="273" y="156"/>
      <point x="273" y="143" type="curve" smooth="yes"/>
      <point x="273" y="86"/>
      <point x="253" y="44"/>
      <point x="199" y="44" type="curve" smooth="yes"/>
      <point x="152" y="44"/>
      <point x="129" y="79"/>
      <point x="119" y="134" type="curve" smooth="yes"/>
      <point x="111" y="176"/>
      <point x="110" y="229"/>
      <point x="110" y="288" type="curve" smooth="yes"/>
      <point x="110" y="324"/>
      <point x="112" y="359"/>
      <point x="116" y="390" type="curve" smooth="yes"/>
      <point x="126" y="460"/>
      <point x="149" y="509"/>
      <point x="200" y="509" type="curve" smooth="yes"/>
      <point x="253" y="509"/>
      <point x="268" y="470"/>
      <point x="268" y="409" type="curve" smooth="yes"/>
      <point x="268" y="381"/>
      <point x="265" y="349"/>
      <point x="261" y="314" type="curve"/>
      <point x="319" y="263" type="line"/>
      <point x="326" y="308"/>
      <point x="331" y="356"/>
      <point x="331" y="393" type="curve" smooth="yes"/>
      <point x="331" y="502"/>
      <point x="293" y="564"/>
      <point x="206" y="564" type="curve" smooth="yes"/>
      <point x="118" y="564"/>
      <point x="75" y="506"/>
      <point x="56" y="422" type="curve" smooth="yes"/>
      <point x="47" y="383"/>
      <point x="44" y="337"/>
      <point x="44" y="289" type="curve" smooth="yes"/>
      <point x="44" y="221"/>
      <point x="48" y="158"/>
      <point x="61" y="108" type="curve" smooth="yes"/>
      <point x="80" y="35"/>
      <point x="119" y="-12"/>
    </contour>
    <contour>
      <point x="71" y="256" type="line"/>
      <point x="178" y="261"/>
      <point x="319" y="263"/>
      <point x="319" y="263" type="curve"/>
      <point x="319" y="317" type="line"/>
      <point x="70" y="315" type="line"/>
    </contour>
  </outline>
</glyph>
<glyph name="f" format="2">
  <advance width="287"/>
  <unicode hex="0066"/>
  <outline>
    <contour>
      <point x="8" y="497" type="line"/>
      <point x="8" y="497"/>
      <point x="95" y="500"/>
      <point x="160" y="500" type="curve"/>
      <point x="225" y="501"/>
      <point x="284" y="501"/>
      <point x="284" y="501" type="curve"/>
      <point x="288" y="553" type="line"/>
      <point x="288" y="553"/>
      <point x="225" y="551"/>
      <point x="162" y="551" type="curve"/>
      <point x="99" y="551"/>
      <point x="13" y="553"/>
      <point x="13" y="553" type="curve"/>
    </contour>
    <contour>
      <point x="233" y="716" type="curve" smooth="yes"/>
      <point x="142" y="716"/>
      <point x="92" y="644"/>
      <point x="92" y="532" type="curve" smooth="yes"/>
      <point x="92" y="423"/>
      <point x="92" y="393"/>
      <point x="92" y="270" type="curve" smooth="yes"/>
      <point x="92" y="125"/>
      <point x="83" y="-3"/>
      <point x="83" y="-3" type="curve"/>
      <point x="162" y="0" type="line"/>
      <point x="162" y="0"/>
      <point x="155" y="128"/>
      <point x="155" y="272" type="curve" smooth="yes"/>
      <point x="155" y="361"/>
      <point x="153" y="415"/>
      <point x="159" y="548" type="curve" smooth="yes"/>
      <point x="162" y="612"/>
      <point x="175" y="666"/>
      <point x="228" y="666" type="curve" smooth="yes"/>
      <point x="260" y="666"/>
      <point x="286" y="648"/>
      <point x="288" y="601" type="curve"/>
      <point x="354" y="598" type="line"/>
      <point x="359" y="660"/>
      <point x="312" y="716"/>
    </contour>
  </outline>
</glyph>
<glyph name="g" format="2">
  <advance width="396"/>
  <unicode hex="0067"/>
  <anchor x="187" y="555" name="top"/>
  <outline>
    <contour>
      <point x="183" y="-166" type="curve" smooth="yes"/>
      <point x="281" y="-166"/>
      <point x="342" y="-115"/>
      <point x="342" y="14" type="curve" smooth="yes"/>
      <point x="342" y="51"/>
      <point x="341" y="125"/>
      <point x="341" y="278" type="curve"/>
      <point x="341" y="384"/>
      <point x="351" y="498"/>
      <point x="358" y="555" type="curve"/>
      <point x="292" y="555" type="line"/>
      <point x="282" y="468"/>
      <point x="278" y="362"/>
      <point x="278" y="276" type="curve"/>
      <point x="278" y="144"/>
      <point x="276" y="46"/>
      <point x="276" y="-2" type="curve" smooth="yes"/>
      <point x="276" y="-94"/>
      <point x="232" y="-109"/>
      <point x="189" y="-109" type="curve" smooth="yes"/>
      <point x="148" y="-109"/>
      <point x="119" y="-91"/>
      <point x="119" y="-61" type="curve" smooth="yes"/>
      <point x="119" y="-57"/>
      <point x="120" y="-53"/>
      <point x="121" y="-49" type="curve"/>
      <point x="66" y="-58" type="line"/>
      <point x="65" y="-64"/>
      <point x="65" y="-69"/>
      <point x="65" y="-75" type="curve" smooth="yes"/>
      <point x="65" y="-129"/>
      <point x="109" y="-166"/>
    </contour>
    <contour>
      <point x="176" y="-10" type="curve" smooth="yes"/>
      <point x="313" y="-10"/>
      <point x="311" y="179"/>
      <point x="311" y="269" type="curve"/>
      <point x="278" y="233" type="line"/>
      <point x="278" y="112"/>
      <point x="234" y="47"/>
      <point x="185" y="47" type="curve" smooth="yes"/>
      <point x="150" y="47"/>
      <point x="130" y="80"/>
      <point x="120" y="131" type="curve" smooth="yes"/>
      <point x="111" y="172"/>
      <point x="109" y="225"/>
      <point x="109" y="282" type="curve" smooth="yes"/>
      <point x="109" y="325"/>
      <point x="111" y="367"/>
      <point x="118" y="403" type="curve" smooth="yes"/>
      <point x="129" y="464"/>
      <point x="152" y="507"/>
      <point x="198" y="507" type="curve" smooth="yes"/>
      <point x="252" y="507"/>
      <point x="278" y="432"/>
      <point x="278" y="311" type="curve"/>
      <point x="311" y="269" type="line"/>
      <point x="311" y="492"/>
      <point x="275" y="563"/>
      <point x="189" y="563" type="curve" smooth="yes"/>
      <point x="113" y="563"/>
      <point x="74" y="502"/>
      <point x="56" y="419" type="curve" smooth="yes"/>
      <point x="47" y="377"/>
      <point x="44" y="329"/>
      <point x="44" y="281" type="curve" smooth="yes"/>
      <point x="44" y="215"/>
      <point x="49" y="155"/>
      <point x="62" y="107" type="curve" smooth="yes"/>
      <point x="81" y="35"/>
      <point x="117" y="-10"/>
    </contour>
  </outline>
</glyph>
<glyph name="h" format="2">
  <advance width="405"/>
  <unicode hex="0068"/>
  <anchor x="200" y="0" name="bottom"/>
  <anchor x="157" y="628" name="center"/>
  <anchor x="94" y="669" name="top"/>
  <outline>
    <contour>
      <point x="60" y="0" type="curve"/>
      <point x="131" y="0" type="line"/>
      <point x="131" y="0"/>
      <point x="125" y="154"/>
      <point x="125" y="298" type="curve"/>
      <point x="125" y="441"/>
      <point x="132" y="703"/>
      <point x="132" y="703" type="curve"/>
      <point x="60" y="703" type="line"/>
      <point x="60" y="703"/>
      <point x="63" y="491"/>
      <point x="63" y="346" type="curve"/>
      <point x="63" y="200"/>
      <point x="60" y="0"/>
    </contour>
    <contour>
      <point x="353" y="-3" type="line"/>
      <point x="351" y="48"/>
      <point x="344" y="157"/>
      <point x="344" y="303" type="curve" smooth="yes"/>
      <point x="344" y="340"/>
      <point x="344" y="334"/>
      <point x="344" y="410" type="curve" smooth="yes"/>
      <point x="344" y="520"/>
      <point x="301" y="562"/>
      <point x="240" y="562" type="curve" smooth="yes"/>
      <point x="106" y="562"/>
      <point x="87" y="373"/>
      <point x="87" y="251" type="curve"/>
      <point x="125" y="298" type="line"/>
      <point x="125" y="453"/>
      <point x="179" y="504"/>
      <point x="226" y="504" type="curve" smooth="yes"/>
      <point x="260" y="504"/>
      <point x="282" y="480"/>
      <point x="282" y="405" type="curve" smooth="yes"/>
      <point x="282" y="361"/>
      <point x="282" y="322"/>
      <point x="282" y="296" type="curve" smooth="yes"/>
      <point x="282" y="171"/>
      <point x="276" y="46"/>
      <point x="273" y="1" type="curve"/>
    </contour>
  </outline>
</glyph>
<glyph name="i" format="2">
  <advance width="204"/>
  <unicode hex="0069"/>
  <anchor x="102" y="0" name="bottom"/>
  <anchor x="111" y="-2" name="ogonek"/>
  <outline>
    <contour>
      <point x="144" y="0" type="line"/>
      <point x="144" y="0"/>
      <point x="135" y="141"/>
      <point x="135" y="285" type="curve"/>
      <point x="135" y="428"/>
      <point x="140" y="557"/>
      <point x="140" y="557" type="curve"/>
      <point x="64" y="556" type="line"/>
      <point x="64" y="556"/>
      <point x="73" y="432"/>
      <point x="73" y="286" type="curve"/>
      <point x="73" y="140"/>
      <point x="64" y="1"/>
      <point x="64" y="1" type="curve"/>
    </contour>
    <contour>
      <point x="138" y="617" type="line"/>
      <point x="142" y="702" type="line"/>
      <point x="64" y="698" type="line"/>
      <point x="66" y="613" type="line"/>
    </contour>
  </outline>
</glyph>
<glyph name="k" format="2">
  <advance width="388"/>
  <unicode hex="006B"/>
  <anchor x="213" y="0" name="bottom"/>
  <outline>
    <contour>
      <point x="329" y="0" type="curve"/>
      <point x="408" y="3" type="line"/>
      <point x="323" y="103"/>
      <point x="244" y="204"/>
      <point x="174" y="295" type="curve"/>
      <point x="246" y="391"/>
      <point x="313" y="478"/>
      <point x="380" y="559" type="curve"/>
      <point x="308" y="561" type="line"/>
      <point x="255" y="485"/>
      <point x="195" y="404"/>
      <point x="105" y="289" type="curve"/>
      <point x="176" y="197"/>
      <point x="262" y="88"/>
    </contour>
    <contour>
      <point x="60" y="0" type="curve"/>
      <point x="135" y="1" type="line"/>
      <point x="135" y="1"/>
      <point x="128" y="213"/>
      <point x="128" y="359" type="curve"/>
      <point x="128" y="504"/>
      <point x="135" y="698"/>
      <point x="135" y="698" type="curve"/>
      <point x="63" y="700" type="line"/>
      <point x="63" y="700"/>
      <point x="66" y="501"/>
      <point x="66" y="357" type="curve"/>
      <point x="66" y="214"/>
      <point x="60" y="0"/>
    </contour>
  </outline>
</glyph>
<glyph name="l" format="2">
  <advance width="191"/>
  <unicode hex="006C"/>
  <anchor x="98" y="0" name="bottom"/>
  <anchor x="97" y="359" name="center"/>
  <anchor x="97" y="693" name="top"/>
  <anchor x="279" y="473" name="topright"/>
  <outline>
    <contour>
      <point x="60" y="2" type="curve"/>
      <point x="135" y="10" type="line"/>
      <point x="131" y="97"/>
      <point x="125" y="251"/>
      <point x="125" y="358" type="curve"/>
      <point x="125" y="465"/>
      <point x="131" y="615"/>
      <point x="135" y="698" type="curve"/>
      <point x="61" y="697" type="line"/>
      <point x="62" y="612"/>
      <point x="63" y="461"/>
      <point x="63" y="357" type="curve"/>
      <point x="63" y="221"/>
      <point x="63" y="63"/>
    </contour>
  </outline>
</glyph>
<glyph name="m" format="2">
  <advance width="613"/>
  <unicode hex="006D"/>
  <outline>
    <contour>
      <point x="273" y="1" type="curve"/>
      <point x="350" y="1" type="line"/>
      <point x="346" y="52"/>
      <point x="340" y="180"/>
      <point x="342" y="312" type="curve" smooth="yes"/>
      <point x="344" y="483"/>
      <point x="316" y="560"/>
      <point x="238" y="560" type="curve" smooth="yes"/>
      <point x="123" y="560"/>
      <point x="93" y="402"/>
      <point x="91" y="269" type="curve"/>
      <point x="130" y="313" type="line"/>
      <point x="130" y="429"/>
      <point x="172" y="502"/>
      <point x="226" y="502" type="curve" smooth="yes"/>
      <point x="264" y="502"/>
      <point x="282" y="471"/>
      <point x="282" y="397" type="curve" smooth="yes"/>
      <point x="282" y="353"/>
      <point x="282" y="315"/>
      <point x="282" y="219" type="curve" smooth="yes"/>
      <point x="282" y="98"/>
      <point x="277" y="59"/>
    </contour>
    <contour>
      <point x="59" y="1" type="curve"/>
      <point x="134" y="1" type="line"/>
      <point x="132" y="57"/>
      <point x="129" y="188"/>
      <point x="130" y="313" type="curve"/>
      <point x="128" y="420"/>
      <point x="129" y="515"/>
      <point x="130" y="559" type="curve"/>
      <point x="64" y="556" type="line"/>
      <point x="64" y="556"/>
      <point x="68" y="432"/>
      <point x="68" y="286" type="curve" smooth="yes"/>
      <point x="68" y="157"/>
      <point x="63" y="59"/>
    </contour>
    <contour>
      <point x="549" y="0" type="line"/>
      <point x="551" y="70"/>
      <point x="554" y="147"/>
      <point x="555" y="216" type="curve" smooth="yes"/>
      <point x="557" y="288"/>
      <point x="558" y="351"/>
      <point x="558" y="389" type="curve" smooth="yes"/>
      <point x="558" y="497"/>
      <point x="533" y="565"/>
      <point x="451" y="565" type="curve" smooth="yes"/>
      <point x="323" y="565"/>
      <point x="301" y="420"/>
      <point x="303" y="249" type="curve"/>
      <point x="342" y="312" type="line"/>
      <point x="342" y="438"/>
      <point x="373" y="512"/>
      <point x="441" y="512" type="curve" smooth="yes"/>
      <point x="479" y="512"/>
      <point x="496" y="470"/>
      <point x="496" y="406" type="curve" smooth="yes"/>
      <point x="496" y="346"/>
      <point x="494" y="282"/>
      <point x="492" y="213" type="curve" smooth="yes"/>
      <point x="489" y="149"/>
      <point x="486" y="80"/>
      <point x="482" y="8" type="curve"/>
    </contour>
  </outline>
</glyph>
<glyph name="n" format="2">
  <advance width="410"/>
  <unicode hex="006E"/>
  <anchor x="206" y="0" name="bottom"/>
  <anchor x="216" y="555" name="top"/>
  <anchor x="119" y="555" name="topright"/>
  <outline>
    <contour>
      <point x="358" y="-3" type="line"/>
      <point x="356" y="48"/>
      <point x="349" y="157"/>
      <point x="349" y="303" type="curve" smooth="yes"/>
      <point x="349" y="340"/>
      <point x="349" y="334"/>
      <point x="349" y="410" type="curve" smooth="yes"/>
      <point x="349" y="520"/>
      <point x="306" y="562"/>
      <point x="245" y="562" type="curve" smooth="yes"/>
      <point x="111" y="562"/>
      <point x="92" y="373"/>
      <point x="92" y="251" type="curve"/>
      <point x="130" y="298" type="line"/>
      <point x="130" y="453"/>
      <point x="184" y="504"/>
      <point x="231" y="504" type="curve" smooth="yes"/>
      <point x="265" y="504"/>
      <point x="287" y="480"/>
      <point x="287" y="405" type="curve" smooth="yes"/>
      <point x="287" y="361"/>
      <point x="287" y="322"/>
      <point x="287" y="296" type="curve" smooth="yes"/>
      <point x="287" y="171"/>
      <point x="281" y="46"/>
      <point x="278" y="1" type="curve"/>
    </contour>
    <contour>
      <point x="59" y="1" type="curve"/>
      <point x="134" y="1" type="line"/>
      <point x="133" y="58"/>
      <point x="130" y="143"/>
      <point x="130" y="298" type="curve"/>
      <point x="128" y="405"/>
      <point x="130" y="515"/>
      <point x="131" y="559" type="curve"/>
      <point x="64" y="556" type="line"/>
      <point x="64" y="556"/>
      <point x="68" y="432"/>
      <point x="68" y="286" type="curve" smooth="yes"/>
      <point x="68" y="143"/>
      <point x="62" y="57"/>
    </contour>
  </outline>
</glyph>
<glyph name="p" format="2">
  <advance width="414"/>
  <unicode hex="0070"/>
  <outline>
    <contour>
      <point x="60" y="-146" type="curve"/>
      <point x="135" y="-145" type="line"/>
      <point x="133" y="38" type="line"/>
      <point x="148" y="12"/>
      <point x="176" y="-14"/>
      <point x="225" y="-14" type="curve" smooth="yes"/>
      <point x="302" y="-14"/>
      <point x="340" y="45"/>
      <point x="357" y="128" type="curve" smooth="yes"/>
      <point x="366" y="173"/>
      <point x="370" y="224"/>
      <point x="370" y="276" type="curve" smooth="yes"/>
      <point x="370" y="349"/>
      <point x="368" y="419"/>
      <point x="352" y="471" type="curve" smooth="yes"/>
      <point x="335" y="526"/>
      <point x="304" y="562"/>
      <point x="244" y="562" type="curve" smooth="yes"/>
      <point x="185" y="562"/>
      <point x="150" y="521"/>
      <point x="133" y="485" type="curve"/>
      <point x="133" y="557" type="line"/>
      <point x="61" y="555" type="line"/>
      <point x="68" y="509"/>
      <point x="69" y="336"/>
      <point x="69" y="211" type="curve" smooth="yes"/>
      <point x="69" y="67"/>
      <point x="60" y="-146"/>
    </contour>
    <contour>
      <point x="132" y="213" type="curve" smooth="yes"/>
      <point x="133" y="324" type="line" smooth="yes"/>
      <point x="134" y="418"/>
      <point x="166" y="506"/>
      <point x="234" y="506" type="curve" smooth="yes"/>
      <point x="279" y="506"/>
      <point x="294" y="473"/>
      <point x="301" y="420" type="curve" smooth="yes"/>
      <point x="306" y="382"/>
      <point x="305" y="334"/>
      <point x="305" y="280" type="curve" smooth="yes"/>
      <point x="305" y="231"/>
      <point x="303" y="182"/>
      <point x="296" y="141" type="curve" smooth="yes"/>
      <point x="285" y="83"/>
      <point x="265" y="42"/>
      <point x="220" y="42" type="curve" smooth="yes"/>
      <point x="155" y="42"/>
      <point x="131" y="120"/>
    </contour>
  </outline>
</glyph>
<glyph name="q" format="2">
  <advance width="393"/>
  <unicode hex="0071"/>
  <outline>
    <contour>
      <point x="44" y="281" type="curve" smooth="yes"/>
      <point x="44" y="210"/>
      <point x="50" y="143"/>
      <point x="67" y="91" type="curve" smooth="yes"/>
      <point x="87" y="31"/>
      <point x="123" y="-9"/>
      <point x="184" y="-9" type="curve" smooth="yes"/>
      <point x="235" y="-9"/>
      <point x="264" y="22"/>
      <point x="282" y="49" type="curve"/>
      <point x="278" y="-146" type="line"/>
      <point x="350" y="-147" type="line"/>
      <point x="350" y="-147"/>
      <point x="345" y="59"/>
      <point x="345" y="205" type="curve" smooth="yes"/>
      <point x="345" y="351"/>
      <point x="356" y="564"/>
      <point x="356" y="564" type="curve"/>
      <point x="284" y="562" type="line"/>
      <point x="284" y="490" type="line"/>
      <point x="269" y="528"/>
      <point x="239" y="567"/>
      <point x="184" y="567" type="curve" smooth="yes"/>
      <point x="122" y="567"/>
      <point x="87" y="531"/>
      <point x="67" y="472" type="curve" smooth="yes"/>
      <point x="50" y="422"/>
      <point x="44" y="356"/>
    </contour>
    <contour>
      <point x="109" y="285" type="curve" smooth="yes"/>
      <point x="109" y="338"/>
      <point x="110" y="387"/>
      <point x="116" y="425" type="curve" smooth="yes"/>
      <point x="126" y="477"/>
      <point x="146" y="511"/>
      <point x="190" y="511" type="curve" smooth="yes"/>
      <point x="231" y="511"/>
      <point x="256" y="468"/>
      <point x="270" y="405" type="curve" smooth="yes"/>
      <point x="279" y="364"/>
      <point x="283" y="315"/>
      <point x="283" y="265" type="curve" smooth="yes"/>
      <point x="283" y="224"/>
      <point x="281" y="180"/>
      <point x="273" y="142" type="curve" smooth="yes"/>
      <point x="262" y="88"/>
      <point x="237" y="47"/>
      <point x="194" y="47" type="curve" smooth="yes"/>
      <point x="149" y="47"/>
      <point x="129" y="88"/>
      <point x="118" y="146" type="curve" smooth="yes"/>
      <point x="110" y="187"/>
      <point x="109" y="236"/>
    </contour>
  </outline>
</glyph>
<glyph name="r" format="2">
  <advance width="336"/>
  <unicode hex="0072"/>
  <anchor x="96" y="0" name="bottom"/>
  <anchor x="198" y="555" name="top"/>
  <outline>
    <contour>
      <point x="249" y="271" type="curve"/>
      <point x="311" y="271" type="line"/>
      <point x="322" y="328"/>
      <point x="329" y="383"/>
      <point x="329" y="429" type="curve" smooth="yes"/>
      <point x="329" y="513"/>
      <point x="302" y="571"/>
      <point x="233" y="571" type="curve" smooth="yes"/>
      <point x="106" y="571"/>
      <point x="94" y="369"/>
      <point x="91" y="284" type="curve"/>
      <point x="130" y="326" type="line"/>
      <point x="130" y="479"/>
      <point x="185" y="512"/>
      <point x="221" y="512" type="curve" smooth="yes"/>
      <point x="258" y="512"/>
      <point x="272" y="482"/>
      <point x="272" y="433" type="curve" smooth="yes"/>
      <point x="272" y="391"/>
      <point x="262" y="335"/>
    </contour>
    <contour>
      <point x="59" y="1" type="curve"/>
      <point x="134" y="1" type="line"/>
      <point x="132" y="57"/>
      <point x="129" y="201"/>
      <point x="130" y="326" type="curve"/>
      <point x="126" y="433"/>
      <point x="128" y="515"/>
      <point x="128" y="559" type="curve"/>
      <point x="60" y="556" type="line"/>
      <point x="65" y="498"/>
      <point x="68" y="409"/>
      <point x="68" y="286" type="curve" smooth="yes"/>
      <point x="68" y="157"/>
      <point x="63" y="59"/>
    </contour>
  </outline>
</glyph>
<glyph name="s" format="2">
  <advance width="349"/>
  <unicode hex="0073"/>
  <anchor x="176" y="0" name="bottom"/>
  <anchor x="185" y="555" name="top"/>
  <outline>
    <contour>
      <point x="175" y="-10" type="curve" smooth="yes"/>
      <point x="255" y="-10"/>
      <point x="317" y="43"/>
      <point x="317" y="129" type="curve" smooth="yes"/>
      <point x="317" y="214"/>
      <point x="241" y="247"/>
      <point x="183" y="291" type="curve" smooth="yes"/>
      <point x="138" y="327"/>
      <point x="98" y="359"/>
      <point x="98" y="419" type="curve" smooth="yes"/>
      <point x="98" y="480"/>
      <point x="127" y="514"/>
      <point x="178" y="514" type="curve" smooth="yes"/>
      <point x="233" y="514"/>
      <point x="248" y="461"/>
      <point x="248" y="399" type="curve" smooth="yes"/>
      <point x="248" y="372"/>
      <point x="245" y="350"/>
      <point x="241" y="320" type="curve"/>
      <point x="309" y="320" type="line"/>
      <point x="313" y="351"/>
      <point x="315" y="372"/>
      <point x="315" y="399" type="curve" smooth="yes"/>
      <point x="315" y="500"/>
      <point x="281" y="572"/>
      <point x="178" y="572" type="curve" smooth="yes"/>
      <point x="99" y="572"/>
      <point x="33" y="517"/>
      <point x="33" y="415" type="curve" smooth="yes"/>
      <point x="33" y="323"/>
      <point x="88" y="284"/>
      <point x="144" y="243" type="curve" smooth="yes"/>
      <point x="196" y="203"/>
      <point x="253" y="173"/>
      <point x="253" y="127" type="curve" smooth="yes"/>
      <point x="253" y="80"/>
      <point x="229" y="44"/>
      <point x="176" y="44" type="curve" smooth="yes"/>
      <point x="111" y="44"/>
      <point x="96" y="88"/>
      <point x="96" y="137" type="curve" smooth="yes"/>
      <point x="96" y="150"/>
      <point x="98" y="164"/>
      <point x="99" y="177" type="curve"/>
      <point x="39" y="177" type="line"/>
      <point x="35" y="159"/>
      <point x="33" y="142"/>
      <point x="33" y="124" type="curve" smooth="yes"/>
      <point x="33" y="45"/>
      <point x="79" y="-10"/>
    </contour>
  </outline>
</glyph>
<glyph name="t" format="2">
  <advance width="357"/>
  <unicode hex="0074"/>
  <anchor x="175" y="0" name="bottom"/>
  <anchor x="156" y="401" name="center"/>
  <anchor x="220" y="555" name="topright"/>
  <outline>
    <contour>
      <point x="182" y="-10" type="curve"/>
      <point x="287" y="-10"/>
      <point x="317" y="78"/>
      <point x="317" y="186" type="curve" smooth="yes"/>
      <point x="317" y="223"/>
      <point x="313" y="264"/>
      <point x="308" y="303" type="curve"/>
      <point x="248" y="303" type="line"/>
      <point x="252" y="269"/>
      <point x="256" y="231"/>
      <point x="256" y="195" type="curve" smooth="yes"/>
      <point x="256" y="115"/>
      <point x="240" y="44"/>
      <point x="182" y="44" type="curve" smooth="yes"/>
      <point x="128" y="44"/>
      <point x="118" y="90"/>
      <point x="118" y="173" type="curve" smooth="yes"/>
      <point x="118" y="207"/>
      <point x="120" y="247"/>
      <point x="123" y="294" type="curve" smooth="yes"/>
      <point x="127" y="356"/>
      <point x="139" y="520"/>
      <point x="151" y="637" type="curve"/>
      <point x="71" y="636" type="line"/>
      <point x="76" y="565"/>
      <point x="69" y="543"/>
      <point x="60" y="300" type="curve" smooth="yes"/>
      <point x="58" y="246"/>
      <point x="54" y="197"/>
      <point x="54" y="155" type="curve" smooth="yes"/>
      <point x="54" y="65"/>
      <point x="79" y="-10"/>
    </contour>
    <contour>
      <point x="12" y="496" type="line"/>
      <point x="12" y="496"/>
      <point x="102" y="501"/>
      <point x="167" y="502" type="curve"/>
      <point x="232" y="503"/>
      <point x="316" y="505"/>
      <point x="316" y="505" type="curve"/>
      <point x="322" y="556" type="line"/>
      <point x="322" y="556"/>
      <point x="212" y="553"/>
      <point x="149" y="553" type="curve"/>
      <point x="137" y="553"/>
      <point x="12" y="554"/>
      <point x="18" y="554" type="curve"/>
    </contour>
  </outline>
</glyph>
<glyph name="u" format="2">
  <advance width="393"/>
  <unicode hex="0075"/>
  <anchor x="200" y="0" name="bottom"/>
  <anchor x="321" y="0" name="ogonek"/>
  <anchor x="199" y="555" name="top"/>
  <anchor x="277" y="575" name="topright"/>
  <outline>
    <contour>
      <point x="152" y="-10" type="curve" smooth="yes"/>
      <point x="273" y="-10"/>
      <point x="299" y="130"/>
      <point x="299" y="288" type="curve"/>
      <point x="275" y="281" type="line"/>
      <point x="275" y="136"/>
      <point x="219" y="43"/>
      <point x="159" y="43" type="curve" smooth="yes"/>
      <point x="122" y="43"/>
      <point x="113" y="81"/>
      <point x="113" y="138" type="curve" smooth="yes"/>
      <point x="113" y="160"/>
      <point x="115" y="216"/>
      <point x="118" y="283" type="curve" smooth="yes"/>
      <point x="122" y="375"/>
      <point x="128" y="496"/>
      <point x="132" y="564" type="curve"/>
      <point x="63" y="558" type="line"/>
      <point x="63" y="546"/>
      <point x="60" y="409"/>
      <point x="57" y="302" type="curve" smooth="yes"/>
      <point x="55" y="231"/>
      <point x="53" y="169"/>
      <point x="53" y="159" type="curve" smooth="yes"/>
      <point x="53" y="60"/>
      <point x="65" y="-10"/>
    </contour>
    <contour>
      <point x="279" y="0" type="line"/>
      <point x="345" y="0" type="line"/>
      <point x="342" y="95"/>
      <point x="340" y="189"/>
      <point x="337" y="284" type="curve" smooth="yes"/>
      <point x="336" y="314"/>
      <point x="339" y="499"/>
      <point x="341" y="564" type="curve"/>
      <point x="270" y="565" type="line"/>
      <point x="272" y="474"/>
      <point x="275" y="343"/>
      <point x="275" y="281" type="curve" smooth="yes"/>
      <point x="275" y="222"/>
      <point x="275" y="164"/>
      <point x="273" y="105" type="curve"/>
    </contour>
  </outline>
</glyph>
<glyph name="v" format="2">
  <advance width="364"/>
  <unicode hex="0076"/>
  <outline>
    <contour>
      <point x="10" y="559" type="line"/>
      <point x="10" y="559"/>
      <point x="48" y="418"/>
      <point x="77" y="274" type="curve" smooth="yes"/>
      <point x="103" y="147"/>
      <point x="119" y="84"/>
      <point x="134" y="-3" type="curve"/>
      <point x="231" y="-6" type="line"/>
      <point x="248" y="77"/>
      <point x="266" y="157"/>
      <point x="289" y="274" type="curve" smooth="yes"/>
      <point x="317" y="418"/>
      <point x="354" y="557"/>
      <point x="354" y="557" type="curve"/>
      <point x="282" y="554" type="line"/>
      <point x="271" y="487"/>
      <point x="254" y="401"/>
      <point x="231" y="282" type="curve" smooth="yes"/>
      <point x="219" y="224"/>
      <point x="194" y="114"/>
      <point x="182" y="45" type="curve"/>
      <point x="169" y="114"/>
      <point x="145" y="224"/>
      <point x="135" y="282" type="curve" smooth="yes"/>
      <point x="114" y="402"/>
      <point x="100" y="495"/>
      <point x="88" y="559" type="curve"/>
    </contour>
  </outline>
</glyph>
<glyph name="w" format="2">
  <advance width="588"/>
  <unicode hex="0077"/>
  <anchor x="291" y="555" name="top"/>
  <outline>
    <contour>
      <point x="132" y="-3" type="curve"/>
      <point x="222" y="0" type="line"/>
      <point x="236" y="69"/>
      <point x="252" y="162"/>
      <point x="267" y="259" type="curve" smooth="yes"/>
      <point x="276" y="319"/>
      <point x="285" y="378"/>
      <point x="293" y="429" type="curve"/>
      <point x="301" y="377"/>
      <point x="311" y="315"/>
      <point x="320" y="253" type="curve" smooth="yes"/>
      <point x="335" y="154"/>
      <point x="350" y="56"/>
      <point x="360" y="-3" type="curve"/>
      <point x="450" y="-6" type="line"/>
      <point x="469" y="77"/>
      <point x="488" y="157"/>
      <point x="513" y="274" type="curve" smooth="yes"/>
      <point x="544" y="418"/>
      <point x="578" y="557"/>
      <point x="578" y="557" type="curve"/>
      <point x="505" y="558" type="line"/>
      <point x="494" y="491"/>
      <point x="477" y="401"/>
      <point x="454" y="282" type="curve" smooth="yes"/>
      <point x="443" y="224"/>
      <point x="418" y="122"/>
      <point x="406" y="53" type="curve"/>
      <point x="393" y="134"/>
      <point x="384" y="198"/>
      <point x="374" y="272" type="curve" smooth="yes"/>
      <point x="363" y="349"/>
      <point x="352" y="429"/>
      <point x="339" y="524" type="curve"/>
      <point x="250" y="524" type="line"/>
      <point x="236" y="428"/>
      <point x="224" y="349"/>
      <point x="212" y="272" type="curve" smooth="yes"/>
      <point x="200" y="199"/>
      <point x="190" y="136"/>
      <point x="175" y="53" type="curve"/>
      <point x="162" y="122"/>
      <point x="142" y="224"/>
      <point x="132" y="282" type="curve" smooth="yes"/>
      <point x="111" y="402"/>
      <point x="97" y="491"/>
      <point x="87" y="555" type="curve"/>
      <point x="10" y="555" type="line"/>
      <point x="10" y="555"/>
      <point x="42" y="418"/>
      <point x="73" y="274" type="curve" smooth="yes"/>
      <point x="100" y="147"/>
      <point x="115" y="84"/>
    </contour>
  </outline>
</glyph>
<glyph name="x" format="2">
  <advance width="316"/>
  <unicode hex="0078"/>
  <outline>
    <contour>
      <point x="60" y="-4" type="line"/>
      <point x="60" y="-4"/>
      <point x="118" y="140"/>
      <point x="187" y="281" type="curve" smooth="yes"/>
      <point x="254" y="418"/>
      <point x="325" y="558"/>
      <point x="325" y="558" type="curve"/>
      <point x="252" y="558" type="line"/>
      <point x="252" y="558"/>
      <point x="193" y="434"/>
      <point x="130" y="299" type="curve" smooth="yes"/>
      <point x="64" y="158"/>
      <point x="-16" y="-2"/>
      <point x="-16" y="-2" type="curve"/>
    </contour>
    <contour>
      <point x="261" y="0" type="curve"/>
      <point x="335" y="3" type="line"/>
      <point x="335" y="3"/>
      <point x="260" y="158"/>
      <point x="192" y="299" type="curve" smooth="yes"/>
      <point x="126" y="436"/>
      <point x="74" y="558"/>
      <point x="74" y="558" type="curve"/>
      <point x="-5" y="558" type="line"/>
      <point x="-5" y="558"/>
      <point x="68" y="418"/>
      <point x="136" y="281" type="curve" smooth="yes"/>
      <point x="205" y="140"/>
      <point x="261" y="0"/>
    </contour>
  </outline>
</glyph>
<glyph name="y" format="2">
  <advance width="369"/>
  <unicode hex="0079"/>
  <anchor x="304" y="30" name="bottom"/>
  <anchor x="180" y="555" name="top"/>
  <outline>
    <contour>
      <point x="189" y="-148" type="line"/>
      <point x="218" y="-24"/>
      <point x="248" y="124"/>
      <point x="282" y="265" type="curve" smooth="yes"/>
      <point x="307" y="370"/>
      <point x="332" y="471"/>
      <point x="354" y="556" type="curve"/>
      <point x="279" y="556" type="line"/>
      <point x="261" y="455"/>
      <point x="242" y="362"/>
      <point x="222" y="272" type="curve" smooth="yes"/>
      <point x="190" y="129"/>
      <point x="158" y="-5"/>
      <point x="115" y="-146" type="curve"/>
    </contour>
    <contour>
      <point x="161" y="-9" type="curve"/>
      <point x="214" y="38" type="line"/>
      <point x="189" y="120"/>
      <point x="172" y="198"/>
      <point x="150" y="281" type="curve" smooth="yes"/>
      <point x="128" y="363"/>
      <point x="108" y="450"/>
      <point x="87" y="553" type="curve"/>
      <point x="10" y="550" type="line"/>
      <point x="37" y="455"/>
      <point x="62" y="360"/>
      <point x="87" y="270" type="curve" smooth="yes"/>
      <point x="115" y="169"/>
      <point x="140" y="73"/>
    </contour>
  </outline>
</glyph>
<glyph name="z" format="2">
  <advance width="287"/>
  <unicode hex="007A"/>
  <anchor x="141" y="555" name="top"/>
  <outline>
    <contour>
      <point x="55" y="10" type="line"/>
      <point x="92" y="98"/>
      <point x="130" y="181"/>
      <point x="168" y="262" type="curve" smooth="yes"/>
      <point x="205" y="339"/>
      <point x="242" y="413"/>
      <point x="280" y="489" type="curve"/>
      <point x="227" y="535" type="line"/>
      <point x="183" y="437"/>
      <point x="146" y="355"/>
      <point x="112" y="283" type="curve" smooth="yes"/>
      <point x="74" y="200"/>
      <point x="40" y="129"/>
      <point x="7" y="62" type="curve"/>
    </contour>
    <contour>
      <point x="8" y="-4" type="line"/>
      <point x="8" y="-4"/>
      <point x="97" y="0"/>
      <point x="147" y="0" type="curve"/>
      <point x="197" y="-1"/>
      <point x="288" y="0"/>
      <point x="288" y="0" type="curve"/>
      <point x="289" y="64" type="line"/>
      <point x="289" y="64"/>
      <point x="210" y="62"/>
      <point x="162" y="61" type="curve"/>
      <point x="113" y="61"/>
      <point x="7" y="62"/>
      <point x="7" y="62" type="curve"/>
    </contour>
    <contour>
      <point x="16" y="489" type="line"/>
      <point x="16" y="489"/>
      <point x="89" y="491"/>
      <point x="138" y="491" type="curve"/>
      <point x="186" y="491"/>
      <point x="280" y="489"/>
      <point x="280" y="489" type="curve"/>
      <point x="277" y="555" type="line"/>
      <point x="277" y="555"/>
      <point x="214" y="552"/>
      <point x="154" y="552" type="curve"/>
      <point x="104" y="551"/>
      <point x="17" y="552"/>
      <point x="17" y="552" type="curve"/>
    </contour>
  </outline>
</glyph>
<glyph name="braceleft" format="2">
  <advance width="495"/>
  <unicode hex="007B"/>
  <outline>
    <contour>
      <point x="302" y="-130" type="curve" smooth="yes"/>
      <point x="334" y="-130"/>
      <point x="371" y="-122"/>
      <point x="410" y="-106" type="curve"/>
      <point x="397" y="-57" type="line"/>
      <point x="362" y="-70"/>
      <point x="332" y="-77"/>
      <point x="308" y="-77" type="curve" smooth="yes"/>
      <point x="261" y="-77"/>
      <point x="236" y="-50"/>
      <point x="236" y="8" type="curve" smooth="yes"/>
      <point x="236" y="42"/>
      <point x="257" y="130"/>
      <point x="257" y="177" type="curve" smooth="yes"/>
      <point x="257" y="227"/>
      <point x="225" y="271"/>
      <point x="172" y="278" type="curve"/>
      <point x="225" y="285"/>
      <point x="255" y="324"/>
      <point x="255" y="374" type="curve" smooth="yes"/>
      <point x="255" y="421"/>
      <point x="224" y="530"/>
      <point x="224" y="564" type="curve" smooth="yes"/>
      <point x="224" y="620"/>
      <point x="248" y="648"/>
      <point x="295" y="648" type="curve" smooth="yes"/>
      <point x="318" y="648"/>
      <point x="346" y="641"/>
      <point x="379" y="629" type="curve"/>
      <point x="396" y="679" type="line"/>
      <point x="356" y="695"/>
      <point x="320" y="703"/>
      <point x="288" y="703" type="curve" smooth="yes"/>
      <point x="213" y="703"/>
      <point x="166" y="658"/>
      <point x="166" y="572" type="curve" smooth="yes"/>
      <point x="166" y="516"/>
      <point x="198" y="438"/>
      <point x="198" y="384" type="curve" smooth="yes"/>
      <point x="198" y="311"/>
      <point x="122" y="302"/>
      <point x="85" y="302" type="curve"/>
      <point x="92" y="243" type="line"/>
      <point x="129" y="243"/>
      <point x="198" y="235"/>
      <point x="198" y="161" type="curve" smooth="yes"/>
      <point x="198" y="107"/>
      <point x="176" y="57"/>
      <point x="176" y="1" type="curve" smooth="yes"/>
      <point x="176" y="-84"/>
      <point x="226" y="-130"/>
    </contour>
  </outline>
</glyph>
<glyph name="braceright" format="2">
  <advance width="495"/>
  <unicode hex="007D"/>
  <outline>
    <contour>
      <point x="207" y="-130" type="curve" smooth="yes"/>
      <point x="282" y="-130"/>
      <point x="329" y="-85"/>
      <point x="329" y="1" type="curve" smooth="yes"/>
      <point x="329" y="57"/>
      <point x="297" y="135"/>
      <point x="297" y="189" type="curve" smooth="yes"/>
      <point x="297" y="262"/>
      <point x="373" y="271"/>
      <point x="410" y="271" type="curve"/>
      <point x="403" y="330" type="line"/>
      <point x="366" y="330"/>
      <point x="297" y="338"/>
      <point x="297" y="412" type="curve" smooth="yes"/>
      <point x="297" y="466"/>
      <point x="319" y="516"/>
      <point x="319" y="572" type="curve" smooth="yes"/>
      <point x="319" y="657"/>
      <point x="269" y="703"/>
      <point x="193" y="703" type="curve" smooth="yes"/>
      <point x="161" y="703"/>
      <point x="124" y="695"/>
      <point x="85" y="679" type="curve"/>
      <point x="98" y="630" type="line"/>
      <point x="133" y="643"/>
      <point x="163" y="650"/>
      <point x="187" y="650" type="curve" smooth="yes"/>
      <point x="234" y="650"/>
      <point x="259" y="623"/>
      <point x="259" y="565" type="curve" smooth="yes"/>
      <point x="259" y="531"/>
      <point x="238" y="443"/>
      <point x="238" y="396" type="curve" smooth="yes"/>
      <point x="238" y="346"/>
      <point x="270" y="302"/>
      <point x="323" y="295" type="curve"/>
      <point x="270" y="288"/>
      <point x="240" y="249"/>
      <point x="240" y="199" type="curve" smooth="yes"/>
      <point x="240" y="152"/>
      <point x="271" y="43"/>
      <point x="271" y="9" type="curve" smooth="yes"/>
      <point x="271" y="-47"/>
      <point x="247" y="-75"/>
      <point x="200" y="-75" type="curve" smooth="yes"/>
      <point x="177" y="-75"/>
      <point x="149" y="-68"/>
      <point x="116" y="-56" type="curve"/>
      <point x="99" y="-106" type="line"/>
      <point x="139" y="-122"/>
      <point x="175" y="-130"/>
    </contour>
  </outline>
</glyph>
<glyph name="exclamdown" format="2">
  <advance width="255"/>
  <unicode hex="00A1"/>
  <outline>
    <contour>
      <point x="86" y="-146" type="curve"/>
      <point x="170" y="-145" type="line"/>
      <point x="170" y="-145"/>
      <point x="164" y="23"/>
      <point x="161" y="133" type="curve"/>
      <point x="158" y="242"/>
      <point x="157" y="323"/>
      <point x="157" y="323" type="curve"/>
      <point x="96" y="321" type="line"/>
      <point x="96" y="321"/>
      <point x="95" y="208"/>
      <point x="93" y="132" type="curve"/>
      <point x="92" y="57"/>
      <point x="86" y="-146"/>
    </contour>
    <contour>
      <point x="89" y="423" type="line"/>
      <point x="158" y="422" type="line"/>
      <point x="165" y="557" type="line"/>
      <point x="85" y="552" type="line"/>
    </contour>
  </outline>
</glyph>
<glyph name="cent" format="2">
  <advance width="500"/>
  <unicode hex="00A2"/>
  <outline>
    <contour>
      <point x="240" y="27" type="curve" smooth="yes"/>
      <point x="359" y="27"/>
      <point x="404" y="99"/>
      <point x="404" y="193" type="curve" smooth="yes"/>
      <point x="404" y="204"/>
      <point x="403" y="216"/>
      <point x="402" y="227" type="curve"/>
      <point x="340" y="225" type="line"/>
      <point x="342" y="212"/>
      <point x="343" y="200"/>
      <point x="343" y="187" type="curve" smooth="yes"/>
      <point x="343" y="131"/>
      <point x="319" y="84"/>
      <point x="247" y="84" type="curve" smooth="yes"/>
      <point x="206" y="84"/>
      <point x="181" y="113"/>
      <point x="167" y="152" type="curve" smooth="yes"/>
      <point x="144" y="215"/>
      <point x="145" y="335"/>
      <point x="168" y="401" type="curve" smooth="yes"/>
      <point x="182" y="442"/>
      <point x="209" y="472"/>
      <point x="251" y="472" type="curve" smooth="yes"/>
      <point x="321" y="472"/>
      <point x="338" y="424"/>
      <point x="338" y="371" type="curve" smooth="yes"/>
      <point x="338" y="349"/>
      <point x="335" y="327"/>
      <point x="332" y="306" type="curve"/>
      <point x="395" y="305" type="line"/>
      <point x="399" y="325"/>
      <point x="402" y="345"/>
      <point x="402" y="366" type="curve" smooth="yes"/>
      <point x="402" y="448"/>
      <point x="364" y="526"/>
      <point x="259" y="526" type="curve" smooth="yes"/>
      <point x="184" y="526"/>
      <point x="137" y="485"/>
      <point x="111" y="426" type="curve" smooth="yes"/>
      <point x="73" y="339"/>
      <point x="74" y="195"/>
      <point x="116" y="110" type="curve" smooth="yes"/>
      <point x="140" y="61"/>
      <point x="180" y="27"/>
    </contour>
    <contour>
      <point x="279" y="-44" type="line"/>
      <point x="279" y="-44"/>
      <point x="270" y="162"/>
      <point x="270" y="311" type="curve"/>
      <point x="270" y="460"/>
      <point x="283" y="604"/>
      <point x="283" y="604" type="curve"/>
      <point x="222" y="607" type="line"/>
      <point x="222" y="607"/>
      <point x="225" y="541"/>
      <point x="225" y="322" type="curve"/>
      <point x="225" y="102"/>
      <point x="218" y="-43"/>
      <point x="218" y="-43" type="curve"/>
    </contour>
  </outline>
</glyph>
<glyph name="yen" format="2">
  <advance width="500"/>
  <unicode hex="00A5"/>
  <outline>
    <contour>
      <point x="208" y="0" type="line"/>
      <point x="284" y="1" type="line"/>
      <point x="279" y="224" type="line"/>
      <point x="295" y="275"/>
      <point x="329" y="369"/>
      <point x="363" y="462" type="curve" smooth="yes"/>
      <point x="398" y="559"/>
      <point x="433" y="654"/>
      <point x="449" y="698" type="curve"/>
      <point x="369" y="696" type="line"/>
      <point x="353" y="642"/>
      <point x="329" y="567"/>
      <point x="305" y="497" type="curve" smooth="yes"/>
      <point x="281" y="426"/>
      <point x="259" y="360"/>
      <point x="246" y="324" type="curve"/>
      <point x="237" y="354"/>
      <point x="216" y="420"/>
      <point x="194" y="491" type="curve" smooth="yes"/>
      <point x="170" y="570"/>
      <point x="144" y="656"/>
      <point x="130" y="704" type="curve"/>
      <point x="50" y="704" type="line"/>
      <point x="65" y="659"/>
      <point x="100" y="559"/>
      <point x="134" y="458" type="curve" smooth="yes"/>
      <point x="163" y="371"/>
      <point x="194" y="282"/>
      <point x="210" y="230" type="curve"/>
    </contour>
    <contour>
      <point x="90" y="87" type="line"/>
      <point x="139" y="90"/>
      <point x="216" y="94"/>
      <point x="252" y="94" type="curve"/>
      <point x="289" y="94"/>
      <point x="354" y="92"/>
      <point x="392" y="90" type="curve"/>
      <point x="403" y="155" type="line"/>
      <point x="357" y="153"/>
      <point x="284" y="151"/>
      <point x="249" y="150" type="curve"/>
      <point x="216" y="149"/>
      <point x="141" y="150"/>
      <point x="93" y="150" type="curve"/>
    </contour>
    <contour>
      <point x="90" y="202" type="line"/>
      <point x="139" y="205"/>
      <point x="216" y="209"/>
      <point x="252" y="209" type="curve"/>
      <point x="289" y="209"/>
      <point x="354" y="207"/>
      <point x="392" y="205" type="curve"/>
      <point x="403" y="270" type="line"/>
      <point x="357" y="268"/>
      <point x="284" y="266"/>
      <point x="249" y="265" type="curve"/>
      <point x="216" y="264"/>
      <point x="141" y="265"/>
      <point x="93" y="265" type="curve"/>
    </contour>
  </outline>
</glyph>
<glyph name="brokenbar" format="2">
  <advance width="239"/>
  <unicode hex="00A6"/>
  <outline>
    <contour>
      <point x="88" y="351" type="curve"/>
      <point x="144" y="351" type="line"/>
      <point x="146" y="513"/>
      <point x="153" y="694"/>
      <point x="153" y="694" type="curve"/>
      <point x="86" y="693" type="line"/>
      <point x="86" y="693"/>
      <point x="88" y="511"/>
    </contour>
    <contour>
      <point x="85" y="-134" type="curve"/>
      <point x="154" y="-136" type="line"/>
      <point x="154" y="-136"/>
      <point x="147" y="31"/>
      <point x="145" y="186" type="curve"/>
      <point x="88" y="186" type="line"/>
      <point x="88" y="46"/>
      <point x="89" y="-69"/>
    </contour>
  </outline>
</glyph>
<glyph name="dieresis" format="2">
  <advance width="305"/>
  <unicode hex="00A8"/>
  <anchor x="153" y="555" name="_top"/>
  <outline>
    <contour>
      <point x="281" y="631" type="line"/>
      <point x="284" y="709" type="line"/>
      <point x="220" y="716" type="line"/>
      <point x="222" y="630" type="line"/>
    </contour>
    <contour>
      <point x="82" y="631" type="line"/>
      <point x="85" y="709" type="line"/>
      <point x="21" y="716" type="line"/>
      <point x="23" y="630" type="line"/>
    </contour>
  </outline>
</glyph>
<glyph name="ordfeminine" format="2">
  <advance width="347"/>
  <unicode hex="00AA"/>
  <outline>
    <contour>
      <point x="65" y="518" type="curve" smooth="yes"/>
      <point x="65" y="480"/>
      <point x="96" y="461"/>
      <point x="135" y="461" type="curve" smooth="yes"/>
      <point x="164" y="461"/>
      <point x="196" y="472"/>
      <point x="219" y="495" type="curve"/>
      <point x="221" y="480"/>
      <point x="230" y="468"/>
      <point x="239" y="461" type="curve"/>
      <point x="279" y="481" type="line"/>
      <point x="271" y="490"/>
      <point x="260" y="503"/>
      <point x="261" y="524" type="curve" smooth="yes"/>
      <point x="264" y="624" type="line" smooth="yes"/>
      <point x="265" y="654"/>
      <point x="250" y="703"/>
      <point x="171" y="703" type="curve" smooth="yes"/>
      <point x="110" y="703"/>
      <point x="74" y="673"/>
      <point x="74" y="627" type="curve"/>
      <point x="118" y="621" type="line"/>
      <point x="118" y="653"/>
      <point x="143" y="666"/>
      <point x="171" y="666" type="curve" smooth="yes"/>
      <point x="206" y="666"/>
      <point x="217" y="649"/>
      <point x="217" y="632" type="curve" smooth="yes"/>
      <point x="217" y="606"/>
      <point x="180" y="602"/>
      <point x="143" y="589" type="curve" smooth="yes"/>
      <point x="104" y="577"/>
      <point x="65" y="563"/>
    </contour>
    <contour>
      <point x="111" y="521" type="curve" smooth="yes"/>
      <point x="111" y="540"/>
      <point x="130" y="547"/>
      <point x="153" y="555" type="curve" smooth="yes"/>
      <point x="177" y="563"/>
      <point x="206" y="568"/>
      <point x="219" y="578" type="curve"/>
      <point x="218" y="554" type="line" smooth="yes"/>
      <point x="217" y="518"/>
      <point x="175" y="499"/>
      <point x="140" y="499" type="curve" smooth="yes"/>
      <point x="121" y="499"/>
      <point x="111" y="506"/>
    </contour>
  </outline>
</glyph>
<glyph name="guillemetleft" format="2">
  <advance width="716"/>
  <unicode hex="00AB"/>
  <outline>
    <contour>
      <point x="92" y="249" type="line"/>
      <point x="92" y="249"/>
      <point x="160" y="302"/>
      <point x="226" y="344" type="curve" smooth="yes"/>
      <point x="285" y="382"/>
      <point x="357" y="423"/>
      <point x="357" y="423" type="curve"/>
      <point x="324" y="477" type="line"/>
      <point x="287" y="449"/>
      <point x="245" y="420"/>
      <point x="200" y="388" type="curve" smooth="yes"/>
      <point x="149" y="352"/>
      <point x="85" y="313"/>
      <point x="85" y="313" type="curve"/>
    </contour>
    <contour>
      <point x="334" y="117" type="curve"/>
      <point x="361" y="176" type="line"/>
      <point x="361" y="176"/>
      <point x="302" y="205"/>
      <point x="240" y="236" type="curve" smooth="yes"/>
      <point x="184" y="264"/>
      <point x="85" y="315"/>
      <point x="85" y="313" type="curve"/>
      <point x="92" y="249" type="line"/>
      <point x="92" y="249"/>
      <point x="153" y="219"/>
      <point x="210" y="189" type="curve" smooth="yes"/>
      <point x="271" y="157"/>
      <point x="314" y="131"/>
    </contour>
    <contour>
      <point x="362" y="249" type="line"/>
      <point x="362" y="249"/>
      <point x="430" y="302"/>
      <point x="496" y="344" type="curve" smooth="yes"/>
      <point x="555" y="382"/>
      <point x="627" y="423"/>
      <point x="627" y="423" type="curve"/>
      <point x="594" y="477" type="line"/>
      <point x="557" y="449"/>
      <point x="515" y="420"/>
      <point x="470" y="388" type="curve" smooth="yes"/>
      <point x="419" y="352"/>
      <point x="355" y="313"/>
      <point x="355" y="313" type="curve"/>
    </contour>
    <contour>
      <point x="604" y="117" type="curve"/>
      <point x="631" y="176" type="line"/>
      <point x="631" y="176"/>
      <point x="572" y="205"/>
      <point x="510" y="236" type="curve" smooth="yes"/>
      <point x="454" y="264"/>
      <point x="355" y="315"/>
      <point x="355" y="313" type="curve"/>
      <point x="362" y="249" type="line"/>
      <point x="362" y="249"/>
      <point x="423" y="219"/>
      <point x="480" y="189" type="curve" smooth="yes"/>
      <point x="541" y="157"/>
      <point x="584" y="131"/>
    </contour>
  </outline>
</glyph>
<glyph name="twosuperior" format="2">
  <advance width="292"/>
  <unicode hex="00B2"/>
  <outline>
    <contour>
      <point x="115" y="590" type="line"/>
      <point x="160" y="617"/>
      <point x="226" y="666"/>
      <point x="226" y="731" type="curve" smooth="yes"/>
      <point x="226" y="774"/>
      <point x="203" y="805"/>
      <point x="151" y="805" type="curve" smooth="yes"/>
      <point x="97" y="805"/>
      <point x="69" y="770"/>
      <point x="69" y="722" type="curve" smooth="yes"/>
      <point x="69" y="713"/>
      <point x="70" y="703"/>
      <point x="72" y="692" type="curve"/>
      <point x="121" y="693" type="line"/>
      <point x="119" y="704"/>
      <point x="117" y="716"/>
      <point x="117" y="727" type="curve" smooth="yes"/>
      <point x="117" y="750"/>
      <point x="125" y="768"/>
      <point x="147" y="768" type="curve" smooth="yes"/>
      <point x="170" y="768"/>
      <point x="176" y="751"/>
      <point x="176" y="731" type="curve" smooth="yes"/>
      <point x="176" y="676"/>
      <point x="131" y="645"/>
      <point x="68" y="604" type="curve"/>
    </contour>
    <contour>
      <point x="67" y="563" type="line"/>
      <point x="67" y="563"/>
      <point x="118" y="564"/>
      <point x="149" y="565" type="curve"/>
      <point x="180" y="565"/>
      <point x="230" y="565"/>
      <point x="230" y="565" type="curve"/>
      <point x="229" y="607" type="line"/>
      <point x="229" y="607"/>
      <point x="184" y="606"/>
      <point x="154" y="605" type="curve"/>
      <point x="126" y="605"/>
      <point x="68" y="604"/>
      <point x="68" y="604" type="curve"/>
    </contour>
  </outline>
</glyph>
<glyph name="threesuperior" format="2">
  <advance width="292"/>
  <unicode hex="00B3"/>
  <outline>
    <contour>
      <point x="137" y="559" type="curve" smooth="yes"/>
      <point x="197" y="559"/>
      <point x="217" y="593"/>
      <point x="217" y="622" type="curve" smooth="yes"/>
      <point x="217" y="649"/>
      <point x="201" y="664"/>
      <point x="185" y="668" type="curve"/>
      <point x="206" y="682"/>
      <point x="221" y="699"/>
      <point x="221" y="739" type="curve" smooth="yes"/>
      <point x="221" y="775"/>
      <point x="196" y="806"/>
      <point x="143" y="806" type="curve" smooth="yes"/>
      <point x="90" y="806"/>
      <point x="66" y="775"/>
      <point x="66" y="739" type="curve" smooth="yes"/>
      <point x="66" y="732"/>
      <point x="67" y="725"/>
      <point x="69" y="718" type="curve"/>
      <point x="118" y="719" type="line"/>
      <point x="117" y="725"/>
      <point x="116" y="730"/>
      <point x="116" y="736" type="curve" smooth="yes"/>
      <point x="116" y="753"/>
      <point x="123" y="767"/>
      <point x="143" y="767" type="curve" smooth="yes"/>
      <point x="170" y="767"/>
      <point x="173" y="747"/>
      <point x="173" y="724" type="curve" smooth="yes"/>
      <point x="173" y="680"/>
      <point x="156" y="682"/>
      <point x="128" y="682" type="curve"/>
      <point x="120" y="682"/>
      <point x="113" y="682"/>
      <point x="101" y="682" type="curve"/>
      <point x="101" y="651" type="line"/>
      <point x="110" y="651"/>
      <point x="127" y="651"/>
      <point x="134" y="651" type="curve"/>
      <point x="160" y="651"/>
      <point x="168" y="644"/>
      <point x="168" y="627" type="curve" smooth="yes"/>
      <point x="168" y="612"/>
      <point x="163" y="595"/>
      <point x="139" y="595" type="curve" smooth="yes"/>
      <point x="114" y="595"/>
      <point x="110" y="614"/>
      <point x="110" y="626" type="curve"/>
      <point x="63" y="625" type="line"/>
      <point x="63" y="607"/>
      <point x="66" y="559"/>
    </contour>
  </outline>
</glyph>
<glyph name="onesuperior" format="2">
  <advance width="292"/>
  <unicode hex="00B9"/>
  <outline>
    <contour>
      <point x="145" y="567" type="curve"/>
      <point x="201" y="567" type="line"/>
      <point x="198" y="645"/>
      <point x="198" y="721"/>
      <point x="202" y="801" type="curve"/>
      <point x="172" y="801" type="line"/>
      <point x="147" y="751" type="line"/>
      <point x="149" y="691"/>
      <point x="148" y="621"/>
    </contour>
    <contour>
      <point x="73" y="723" type="line"/>
      <point x="107" y="723"/>
      <point x="147" y="730"/>
      <point x="168" y="738" type="curve"/>
      <point x="172" y="801" type="line"/>
      <point x="152" y="781"/>
      <point x="105" y="761"/>
      <point x="70" y="756" type="curve"/>
    </contour>
  </outline>
</glyph>
<glyph name="ordmasculine" format="2">
  <advance width="332"/>
  <unicode hex="00BA"/>
  <outline>
    <contour>
      <point x="162" y="469" type="curve" smooth="yes"/>
      <point x="234" y="469"/>
      <point x="267" y="519"/>
      <point x="267" y="590" type="curve" smooth="yes"/>
      <point x="267" y="654"/>
      <point x="241" y="703"/>
      <point x="169" y="703" type="curve" smooth="yes"/>
      <point x="104" y="703"/>
      <point x="65" y="658"/>
      <point x="65" y="588" type="curve" smooth="yes"/>
      <point x="65" y="510"/>
      <point x="100" y="469"/>
    </contour>
    <contour>
      <point x="164" y="514" type="curve" smooth="yes"/>
      <point x="134" y="514"/>
      <point x="113" y="534"/>
      <point x="113" y="589" type="curve" smooth="yes"/>
      <point x="113" y="636"/>
      <point x="130" y="661"/>
      <point x="168" y="661" type="curve" smooth="yes"/>
      <point x="199" y="661"/>
      <point x="219" y="644"/>
      <point x="219" y="593" type="curve" smooth="yes"/>
      <point x="219" y="543"/>
      <point x="211" y="514"/>
    </contour>
  </outline>
</glyph>
<glyph name="guillemetright" format="2">
  <advance width="716"/>
  <unicode hex="00BB"/>
  <outline>
    <contour>
      <point x="631" y="281" type="curve"/>
      <point x="624" y="345" type="line"/>
      <point x="598" y="358"/>
      <point x="548" y="383"/>
      <point x="506" y="405" type="curve" smooth="yes"/>
      <point x="445" y="437"/>
      <point x="402" y="463"/>
      <point x="382" y="477" type="curve"/>
      <point x="355" y="418" type="line"/>
      <point x="380" y="406"/>
      <point x="431" y="381"/>
      <point x="476" y="358" type="curve" smooth="yes"/>
      <point x="532" y="330"/>
      <point x="631" y="279"/>
    </contour>
    <contour>
      <point x="361" y="281" type="curve"/>
      <point x="354" y="345" type="line"/>
      <point x="328" y="358"/>
      <point x="278" y="383"/>
      <point x="236" y="405" type="curve" smooth="yes"/>
      <point x="175" y="437"/>
      <point x="132" y="463"/>
      <point x="112" y="477" type="curve"/>
      <point x="85" y="418" type="line"/>
      <point x="110" y="406"/>
      <point x="161" y="381"/>
      <point x="206" y="358" type="curve" smooth="yes"/>
      <point x="262" y="330"/>
      <point x="361" y="279"/>
    </contour>
    <contour>
      <point x="392" y="117" type="line"/>
      <point x="429" y="145"/>
      <point x="471" y="174"/>
      <point x="516" y="206" type="curve" smooth="yes"/>
      <point x="553" y="232"/>
      <point x="603" y="264"/>
      <point x="631" y="281" type="curve"/>
      <point x="624" y="345" type="line"/>
      <point x="595" y="322"/>
      <point x="538" y="281"/>
      <point x="490" y="250" type="curve" smooth="yes"/>
      <point x="447" y="222"/>
      <point x="390" y="189"/>
      <point x="359" y="171" type="curve"/>
    </contour>
    <contour>
      <point x="122" y="117" type="line"/>
      <point x="159" y="145"/>
      <point x="201" y="174"/>
      <point x="246" y="206" type="curve" smooth="yes"/>
      <point x="283" y="232"/>
      <point x="333" y="264"/>
      <point x="361" y="281" type="curve"/>
      <point x="354" y="345" type="line"/>
      <point x="325" y="322"/>
      <point x="268" y="281"/>
      <point x="220" y="250" type="curve" smooth="yes"/>
      <point x="177" y="222"/>
      <point x="120" y="189"/>
      <point x="89" y="171" type="curve"/>
    </contour>
  </outline>
</glyph>
<glyph name="onequarter" format="2">
  <advance width="696"/>
  <unicode hex="00BC"/>
  <outline>
    <contour>
      <point x="110" y="-1" type="curve"/>
      <point x="183" y="0" type="line"/>
      <point x="247" y="113"/>
      <point x="308" y="228"/>
      <point x="374" y="340" type="curve" smooth="yes"/>
      <point x="443" y="458"/>
      <point x="514" y="577"/>
      <point x="584" y="695" type="curve"/>
      <point x="510" y="697" type="line"/>
      <point x="445" y="578"/>
      <point x="384" y="458"/>
      <point x="315" y="339" type="curve" smooth="yes"/>
      <point x="248" y="224"/>
      <point x="178" y="112"/>
    </contour>
    <contour>
      <point x="143" y="462" type="curve"/>
      <point x="199" y="462" type="line"/>
      <point x="196" y="540"/>
      <point x="196" y="616"/>
      <point x="200" y="696" type="curve"/>
      <point x="170" y="696" type="line"/>
      <point x="150" y="676"/>
      <point x="103" y="656"/>
      <point x="68" y="651" type="curve"/>
      <point x="71" y="618" type="line"/>
      <point x="96" y="618"/>
      <point x="124" y="622"/>
      <point x="146" y="627" type="curve"/>
      <point x="147" y="572"/>
      <point x="146" y="510"/>
    </contour>
    <contour>
      <point x="521" y="-1" type="line"/>
      <point x="566" y="0" type="line"/>
      <point x="565" y="49" type="line"/>
      <point x="599" y="49" type="line"/>
      <point x="599" y="91" type="line"/>
      <point x="565" y="90" type="line"/>
      <point x="565" y="127" type="line" smooth="yes"/>
      <point x="565" y="169"/>
      <point x="566" y="214"/>
      <point x="566" y="235" type="curve"/>
      <point x="489" y="236" type="line"/>
      <point x="478" y="212"/>
      <point x="466" y="181"/>
      <point x="454" y="153" type="curve"/>
      <point x="424" y="89" type="line"/>
      <point x="429" y="48" type="line"/>
      <point x="522" y="49" type="line"/>
    </contour>
    <contour>
      <point x="471" y="88" type="line"/>
      <point x="521" y="211" type="line"/>
      <point x="522" y="88" type="line"/>
    </contour>
  </outline>
</glyph>
<glyph name="onehalf" format="2">
  <advance width="696"/>
  <unicode hex="00BD"/>
  <outline>
    <contour>
      <point x="110" y="-1" type="curve"/>
      <point x="183" y="0" type="line"/>
      <point x="247" y="113"/>
      <point x="308" y="228"/>
      <point x="374" y="340" type="curve" smooth="yes"/>
      <point x="443" y="458"/>
      <point x="514" y="577"/>
      <point x="584" y="695" type="curve"/>
      <point x="510" y="697" type="line"/>
      <point x="445" y="578"/>
      <point x="384" y="458"/>
      <point x="315" y="339" type="curve" smooth="yes"/>
      <point x="248" y="224"/>
      <point x="178" y="112"/>
    </contour>
    <contour>
      <point x="457" y="-2" type="line"/>
      <point x="479" y="-2"/>
      <point x="516" y="0"/>
      <point x="539" y="0" type="curve" smooth="yes"/>
      <point x="620" y="0" type="line"/>
      <point x="619" y="42" type="line"/>
      <point x="600" y="42"/>
      <point x="562" y="41"/>
      <point x="528" y="40" type="curve"/>
      <point x="570" y="68"/>
      <point x="616" y="112"/>
      <point x="616" y="166" type="curve" smooth="yes"/>
      <point x="616" y="209"/>
      <point x="593" y="240"/>
      <point x="541" y="240" type="curve" smooth="yes"/>
      <point x="487" y="240"/>
      <point x="459" y="205"/>
      <point x="459" y="157" type="curve" smooth="yes"/>
      <point x="459" y="148"/>
      <point x="460" y="138"/>
      <point x="462" y="127" type="curve"/>
      <point x="511" y="128" type="line"/>
      <point x="509" y="139"/>
      <point x="507" y="151"/>
      <point x="507" y="162" type="curve" smooth="yes"/>
      <point x="507" y="185"/>
      <point x="515" y="203"/>
      <point x="537" y="203" type="curve" smooth="yes"/>
      <point x="560" y="203"/>
      <point x="566" y="186"/>
      <point x="566" y="166" type="curve" smooth="yes"/>
      <point x="566" y="111"/>
      <point x="521" y="80"/>
      <point x="458" y="39" type="curve"/>
    </contour>
    <contour>
      <point x="143" y="462" type="curve"/>
      <point x="199" y="462" type="line"/>
      <point x="196" y="540"/>
      <point x="196" y="616"/>
      <point x="200" y="696" type="curve"/>
      <point x="170" y="696" type="line"/>
      <point x="150" y="676"/>
      <point x="103" y="656"/>
      <point x="68" y="651" type="curve"/>
      <point x="71" y="618" type="line"/>
      <point x="96" y="618"/>
      <point x="124" y="622"/>
      <point x="146" y="627" type="curve"/>
      <point x="147" y="572"/>
      <point x="146" y="510"/>
    </contour>
  </outline>
</glyph>
<glyph name="threequarters" format="2">
  <advance width="696"/>
  <unicode hex="00BE"/>
  <outline>
    <contour>
      <point x="110" y="-1" type="curve"/>
      <point x="183" y="0" type="line"/>
      <point x="247" y="113"/>
      <point x="308" y="228"/>
      <point x="374" y="340" type="curve" smooth="yes"/>
      <point x="443" y="458"/>
      <point x="514" y="577"/>
      <point x="584" y="695" type="curve"/>
      <point x="510" y="697" type="line"/>
      <point x="445" y="578"/>
      <point x="384" y="458"/>
      <point x="315" y="339" type="curve" smooth="yes"/>
      <point x="248" y="224"/>
      <point x="178" y="112"/>
    </contour>
    <contour>
      <point x="152" y="455" type="curve" smooth="yes"/>
      <point x="212" y="455"/>
      <point x="232" y="489"/>
      <point x="232" y="518" type="curve" smooth="yes"/>
      <point x="232" y="545"/>
      <point x="216" y="560"/>
      <point x="200" y="564" type="curve"/>
      <point x="221" y="578"/>
      <point x="236" y="595"/>
      <point x="236" y="635" type="curve" smooth="yes"/>
      <point x="236" y="671"/>
      <point x="211" y="702"/>
      <point x="158" y="702" type="curve" smooth="yes"/>
      <point x="105" y="702"/>
      <point x="81" y="671"/>
      <point x="81" y="635" type="curve" smooth="yes"/>
      <point x="81" y="628"/>
      <point x="82" y="621"/>
      <point x="84" y="614" type="curve"/>
      <point x="133" y="615" type="line"/>
      <point x="132" y="621"/>
      <point x="131" y="626"/>
      <point x="131" y="632" type="curve" smooth="yes"/>
      <point x="131" y="649"/>
      <point x="138" y="663"/>
      <point x="158" y="663" type="curve" smooth="yes"/>
      <point x="185" y="663"/>
      <point x="188" y="643"/>
      <point x="188" y="620" type="curve" smooth="yes"/>
      <point x="188" y="576"/>
      <point x="171" y="578"/>
      <point x="143" y="578" type="curve"/>
      <point x="135" y="578"/>
      <point x="128" y="578"/>
      <point x="116" y="578" type="curve"/>
      <point x="116" y="547" type="line"/>
      <point x="125" y="547"/>
      <point x="142" y="547"/>
      <point x="149" y="547" type="curve"/>
      <point x="175" y="547"/>
      <point x="183" y="540"/>
      <point x="183" y="523" type="curve" smooth="yes"/>
      <point x="183" y="508"/>
      <point x="178" y="491"/>
      <point x="154" y="491" type="curve" smooth="yes"/>
      <point x="129" y="491"/>
      <point x="125" y="510"/>
      <point x="125" y="522" type="curve"/>
      <point x="78" y="521" type="line"/>
      <point x="78" y="503"/>
      <point x="81" y="455"/>
    </contour>
    <contour>
      <point x="521" y="-1" type="line"/>
      <point x="566" y="0" type="line"/>
      <point x="565" y="49" type="line"/>
      <point x="599" y="49" type="line"/>
      <point x="599" y="91" type="line"/>
      <point x="565" y="90" type="line"/>
      <point x="565" y="127" type="line" smooth="yes"/>
      <point x="565" y="169"/>
      <point x="566" y="214"/>
      <point x="566" y="235" type="curve"/>
      <point x="489" y="236" type="line"/>
      <point x="478" y="212"/>
      <point x="466" y="181"/>
      <point x="454" y="153" type="curve"/>
      <point x="424" y="89" type="line"/>
      <point x="429" y="48" type="line"/>
      <point x="522" y="49" type="line"/>
    </contour>
    <contour>
      <point x="471" y="88" type="line"/>
      <point x="521" y="211" type="line"/>
      <point x="522" y="88" type="line"/>
    </contour>
  </outline>
</glyph>
<glyph name="questiondown" format="2">
  <advance width="516"/>
  <unicode hex="00BF"/>
  <outline>
    <contour>
      <point x="226" y="341" type="line"/>
      <point x="230" y="321"/>
      <point x="233" y="305"/>
      <point x="233" y="280" type="curve" smooth="yes"/>
      <point x="233" y="238"/>
      <point x="214" y="211"/>
      <point x="190" y="186" type="curve" smooth="yes"/>
      <point x="146" y="141"/>
      <point x="85" y="102"/>
      <point x="85" y="-7" type="curve" smooth="yes"/>
      <point x="85" y="-109"/>
      <point x="156" y="-160"/>
      <point x="250" y="-160" type="curve" smooth="yes"/>
      <point x="344" y="-160"/>
      <point x="431" y="-102"/>
      <point x="431" y="14" type="curve" smooth="yes"/>
      <point x="431" y="41"/>
      <point x="427" y="70"/>
      <point x="418" y="100" type="curve"/>
      <point x="349" y="101" type="line"/>
      <point x="359" y="70"/>
      <point x="363" y="41"/>
      <point x="363" y="16" type="curve" smooth="yes"/>
      <point x="363" y="-62"/>
      <point x="314" y="-98"/>
      <point x="257" y="-98" type="curve" smooth="yes"/>
      <point x="196" y="-98"/>
      <point x="156" y="-68"/>
      <point x="156" y="-2" type="curve" smooth="yes"/>
      <point x="156" y="63"/>
      <point x="195" y="97"/>
      <point x="233" y="134" type="curve" smooth="yes"/>
      <point x="269" y="169"/>
      <point x="303" y="206"/>
      <point x="303" y="274" type="curve" smooth="yes"/>
      <point x="303" y="299"/>
      <point x="300" y="325"/>
      <point x="297" y="340" type="curve"/>
    </contour>
    <contour>
      <point x="298" y="561" type="line"/>
      <point x="218" y="555" type="line"/>
      <point x="227" y="428" type="line"/>
      <point x="292" y="430" type="line"/>
    </contour>
  </outline>
</glyph>
<glyph name="AE" format="2">
  <advance width="623"/>
  <unicode hex="00C6"/>
  <anchor x="377" y="693" name="top"/>
  <outline>
    <contour>
      <point x="16" y="1" type="curve"/>
      <point x="101" y="-1" type="line"/>
      <point x="118" y="52"/>
      <point x="134" y="104"/>
      <point x="151" y="157" type="curve"/>
      <point x="293" y="159" type="line"/>
      <point x="290" y="-4" type="line"/>
      <point x="590" y="0" type="line"/>
      <point x="590" y="61" type="line"/>
      <point x="369" y="65" type="line"/>
      <point x="367" y="204" type="line"/>
      <point x="585" y="207" type="line"/>
      <point x="587" y="268" type="line"/>
      <point x="367" y="271" type="line"/>
      <point x="367" y="393" type="line" smooth="yes"/>
      <point x="367" y="470"/>
      <point x="368" y="548"/>
      <point x="368" y="625" type="curve"/>
      <point x="578" y="626" type="line"/>
      <point x="578" y="693" type="line"/>
      <point x="242" y="698" type="line"/>
      <point x="223" y="621"/>
      <point x="181" y="473"/>
      <point x="138" y="346" type="curve" smooth="yes"/>
      <point x="96" y="220"/>
      <point x="44" y="75"/>
    </contour>
    <contour>
      <point x="293" y="217" type="line"/>
      <point x="169" y="218" type="line"/>
      <point x="180" y="255"/>
      <point x="192" y="293"/>
      <point x="204" y="330" type="curve" smooth="yes"/>
      <point x="236" y="432"/>
      <point x="269" y="542"/>
      <point x="291" y="605" type="curve"/>
      <point x="293" y="552"/>
      <point x="294" y="466"/>
      <point x="294" y="391" type="curve" smooth="yes"/>
    </contour>
  </outline>
</glyph>
<glyph name="Eth" format="2">
  <advance width="447"/>
  <unicode hex="00D0"/>
  <outline>
    <contour>
      <point x="-9" y="317" type="line"/>
      <point x="17" y="318"/>
      <point x="75" y="319"/>
      <point x="137" y="319" type="curve"/>
      <point x="178" y="319"/>
      <point x="249" y="318"/>
      <point x="292" y="317" type="curve"/>
      <point x="289" y="373" type="line"/>
      <point x="253" y="371"/>
      <point x="188" y="369"/>
      <point x="143" y="370" type="curve"/>
      <point x="79" y="371"/>
      <point x="22" y="372"/>
      <point x="-3" y="373" type="curve"/>
    </contour>
    <component base="D"/>
  </outline>
</glyph>
<glyph name="Thorn" format="2">
  <advance width="407"/>
  <unicode hex="00DE"/>
  <outline>
    <contour>
      <point x="116" y="141" type="line"/>
      <point x="282" y="141"/>
      <point x="387" y="200"/>
      <point x="387" y="357" type="curve"/>
      <point x="387" y="552"/>
      <point x="306" y="584"/>
      <point x="158" y="584" type="curve" smooth="yes"/>
      <point x="141" y="584"/>
      <point x="124" y="583"/>
      <point x="105" y="582" type="curve"/>
      <point x="105" y="518" type="line"/>
      <point x="131" y="521"/>
      <point x="154" y="522"/>
      <point x="175" y="522" type="curve" smooth="yes"/>
      <point x="272" y="522"/>
      <point x="317" y="492"/>
      <point x="317" y="354" type="curve"/>
      <point x="317" y="231"/>
      <point x="245" y="206"/>
      <point x="112" y="206" type="curve"/>
    </contour>
    <contour>
      <point x="62" y="-6" type="curve"/>
      <point x="141" y="-2" type="line"/>
      <point x="139" y="103"/>
      <point x="137" y="274"/>
      <point x="137" y="359" type="curve"/>
      <point x="137" y="457"/>
      <point x="141" y="608"/>
      <point x="143" y="703" type="curve"/>
      <point x="63" y="710" type="line"/>
      <point x="64" y="632"/>
      <point x="66" y="482"/>
      <point x="66" y="357" type="curve"/>
      <point x="66" y="232"/>
      <point x="64" y="77"/>
    </contour>
  </outline>
</glyph>
<glyph name="germandbls" format="2">
  <advance width="460"/>
  <unicode hex="00DF"/>
  <outline>
    <contour>
      <point x="52" y="-3" type="curve"/>
      <point x="129" y="0" type="line"/>
      <point x="126" y="55"/>
      <point x="122" y="167"/>
      <point x="122" y="271" type="curve" smooth="yes"/>
      <point x="122" y="415"/>
      <point x="124" y="448"/>
      <point x="127" y="512" type="curve" smooth="yes"/>
      <point x="131" y="595"/>
      <point x="159" y="647"/>
      <point x="245" y="647" type="curve" smooth="yes"/>
      <point x="321" y="647"/>
      <point x="347" y="602"/>
      <point x="347" y="546" type="curve" smooth="yes"/>
      <point x="347" y="468"/>
      <point x="241" y="426"/>
      <point x="241" y="346" type="curve" smooth="yes"/>
      <point x="241" y="284"/>
      <point x="285" y="254"/>
      <point x="326" y="226" type="curve" smooth="yes"/>
      <point x="360" y="202"/>
      <point x="392" y="181"/>
      <point x="392" y="143" type="curve" smooth="yes"/>
      <point x="392" y="82"/>
      <point x="343" y="32"/>
      <point x="221" y="52" type="curve"/>
      <point x="216" y="-1" type="line"/>
      <point x="389" y="-21"/>
      <point x="457" y="51"/>
      <point x="457" y="145" type="curve" smooth="yes"/>
      <point x="457" y="211"/>
      <point x="408" y="246"/>
      <point x="366" y="275" type="curve" smooth="yes"/>
      <point x="333" y="298"/>
      <point x="305" y="318"/>
      <point x="305" y="347" type="curve" smooth="yes"/>
      <point x="305" y="412"/>
      <point x="410" y="450"/>
      <point x="410" y="552" type="curve" smooth="yes"/>
      <point x="410" y="618"/>
      <point x="371" y="701"/>
      <point x="244" y="701" type="curve" smooth="yes"/>
      <point x="115" y="701"/>
      <point x="61" y="614"/>
      <point x="61" y="509" type="curve" smooth="yes"/>
      <point x="61" y="418"/>
      <point x="60" y="416"/>
      <point x="60" y="270" type="curve" smooth="yes"/>
      <point x="60" y="163"/>
      <point x="55" y="52"/>
    </contour>
  </outline>
</glyph>
<glyph name="ae" format="2">
  <advance width="580"/>
  <unicode hex="00E6"/>
  <anchor x="312" y="555" name="top"/>
  <outline>
    <contour>
      <point x="139" y="-7" type="curve" smooth="yes"/>
      <point x="210" y="-7"/>
      <point x="246" y="23"/>
      <point x="274" y="83" type="curve"/>
      <point x="295" y="26"/>
      <point x="334" y="-12"/>
      <point x="400" y="-12" type="curve" smooth="yes"/>
      <point x="494" y="-12"/>
      <point x="537" y="49"/>
      <point x="537" y="139" type="curve" smooth="yes"/>
      <point x="537" y="154"/>
      <point x="536" y="169"/>
      <point x="534" y="185" type="curve"/>
      <point x="475" y="185" type="line"/>
      <point x="477" y="170"/>
      <point x="478" y="156"/>
      <point x="478" y="143" type="curve" smooth="yes"/>
      <point x="478" y="86"/>
      <point x="458" y="44"/>
      <point x="404" y="44" type="curve" smooth="yes"/>
      <point x="357" y="44"/>
      <point x="334" y="79"/>
      <point x="324" y="134" type="curve" smooth="yes"/>
      <point x="317" y="169"/>
      <point x="316" y="211"/>
      <point x="315" y="258" type="curve"/>
      <point x="387" y="260"/>
      <point x="477" y="262"/>
      <point x="524" y="263" type="curve"/>
      <point x="531" y="308"/>
      <point x="536" y="356"/>
      <point x="536" y="393" type="curve" smooth="yes"/>
      <point x="536" y="502"/>
      <point x="498" y="564"/>
      <point x="411" y="564" type="curve" smooth="yes"/>
      <point x="353" y="564"/>
      <point x="314" y="539"/>
      <point x="289" y="497" type="curve"/>
      <point x="271" y="537"/>
      <point x="237" y="565"/>
      <point x="175" y="565" type="curve" smooth="yes"/>
      <point x="107" y="565"/>
      <point x="47" y="524"/>
      <point x="47" y="435" type="curve" smooth="yes"/>
      <point x="47" y="415"/>
      <point x="50" y="393"/>
      <point x="56" y="369" type="curve"/>
      <point x="114" y="372" type="line"/>
      <point x="108" y="394"/>
      <point x="106" y="413"/>
      <point x="106" y="429" type="curve" smooth="yes"/>
      <point x="106" y="490"/>
      <point x="141" y="516"/>
      <point x="173" y="516" type="curve" smooth="yes"/>
      <point x="213" y="516"/>
      <point x="245" y="485"/>
      <point x="246" y="406" type="curve" smooth="yes"/>
      <point x="246" y="338"/>
      <point x="180" y="314"/>
      <point x="127" y="275" type="curve" smooth="yes"/>
      <point x="69" y="233"/>
      <point x="32" y="191"/>
      <point x="32" y="120" type="curve" smooth="yes"/>
      <point x="32" y="46"/>
      <point x="73" y="-7"/>
    </contour>
    <contour>
      <point x="147" y="50" type="curve" smooth="yes"/>
      <point x="108" y="50"/>
      <point x="94" y="79"/>
      <point x="94" y="123" type="curve" smooth="yes"/>
      <point x="94" y="172"/>
      <point x="123" y="209"/>
      <point x="179" y="248" type="curve" smooth="yes"/>
      <point x="209" y="269"/>
      <point x="231" y="286"/>
      <point x="247" y="304" type="curve"/>
      <point x="248" y="276"/>
      <point x="248" y="247"/>
      <point x="249" y="219" type="curve" smooth="yes"/>
      <point x="251" y="120"/>
      <point x="206" y="50"/>
    </contour>
    <contour>
      <point x="315" y="315" type="line"/>
      <point x="316" y="342"/>
      <point x="318" y="367"/>
      <point x="321" y="390" type="curve" smooth="yes"/>
      <point x="331" y="460"/>
      <point x="354" y="509"/>
      <point x="405" y="509" type="curve" smooth="yes"/>
      <point x="458" y="509"/>
      <point x="473" y="470"/>
      <point x="473" y="409" type="curve" smooth="yes"/>
      <point x="473" y="382"/>
      <point x="470" y="351"/>
      <point x="466" y="317" type="curve"/>
    </contour>
  </outline>
</glyph>
<glyph name="eth" format="2">
  <advance width="413"/>
  <unicode hex="00F0"/>
  <outline>
    <contour>
      <point x="192" y="-10" type="curve" smooth="yes"/>
      <point x="327" y="-10"/>
      <point x="368" y="88"/>
      <point x="368" y="321" type="curve"/>
      <point x="368" y="606"/>
      <point x="263" y="680"/>
      <point x="156" y="719" type="curve"/>
      <point x="122" y="657" type="line"/>
      <point x="252" y="627"/>
      <point x="297" y="496"/>
      <point x="297" y="370" type="curve" smooth="yes"/>
      <point x="297" y="297"/>
      <point x="297" y="269"/>
      <point x="297" y="242" type="curve"/>
      <point x="297" y="114"/>
      <point x="272" y="50"/>
      <point x="202" y="50" type="curve" smooth="yes"/>
      <point x="127" y="50"/>
      <point x="113" y="104"/>
      <point x="113" y="211" type="curve" smooth="yes"/>
      <point x="113" y="300"/>
      <point x="129" y="364"/>
      <point x="198" y="364" type="curve" smooth="yes"/>
      <point x="274" y="364"/>
      <point x="297" y="317"/>
      <point x="297" y="243" type="curve"/>
      <point x="329" y="322" type="line"/>
      <point x="311" y="394"/>
      <point x="257" y="425"/>
      <point x="202" y="425" type="curve" smooth="yes"/>
      <point x="101" y="425"/>
      <point x="43" y="342"/>
      <point x="43" y="203" type="curve" smooth="yes"/>
      <point x="43" y="66"/>
      <point x="92" y="-10"/>
    </contour>
    <contour>
      <point x="160" y="493" type="line"/>
      <point x="160" y="493"/>
      <point x="218" y="529"/>
      <point x="273" y="561" type="curve"/>
      <point x="310" y="582"/>
      <point x="403" y="634"/>
      <point x="403" y="634" type="curve"/>
      <point x="369" y="687" type="line"/>
      <point x="369" y="687"/>
      <point x="290" y="636"/>
      <point x="250" y="613" type="curve"/>
      <point x="190" y="580"/>
      <point x="132" y="549"/>
      <point x="132" y="549" type="curve"/>
    </contour>
  </outline>
</glyph>
<glyph name="oslash" format="2">
  <advance width="398"/>
  <unicode hex="00F8"/>
  <anchor x="199" y="555" name="top"/>
  <outline>
    <contour>
      <point x="194" y="-10" type="curve"/>
      <point x="278" y="-10"/>
      <point x="320" y="35"/>
      <point x="340" y="116" type="curve" smooth="yes"/>
      <point x="351" y="161"/>
      <point x="354" y="217"/>
      <point x="354" y="283" type="curve" smooth="yes"/>
      <point x="354" y="339"/>
      <point x="350" y="390"/>
      <point x="340" y="433" type="curve" smooth="yes"/>
      <point x="321" y="514"/>
      <point x="283" y="566"/>
      <point x="207" y="566" type="curve" smooth="yes"/>
      <point x="129" y="566"/>
      <point x="84" y="521"/>
      <point x="61" y="442" type="curve" smooth="yes"/>
      <point x="49" y="400"/>
      <point x="44" y="349"/>
      <point x="44" y="290" type="curve" smooth="yes"/>
      <point x="44" y="227"/>
      <point x="48" y="170"/>
      <point x="58" y="123" type="curve" smooth="yes"/>
      <point x="75" y="41"/>
      <point x="116" y="-10"/>
    </contour>
    <contour>
      <point x="201" y="49" type="curve" smooth="yes"/>
      <point x="153" y="49"/>
      <point x="130" y="85"/>
      <point x="118" y="140" type="curve" smooth="yes"/>
      <point x="110" y="177"/>
      <point x="109" y="222"/>
      <point x="109" y="271" type="curve" smooth="yes"/>
      <point x="109" y="327"/>
      <point x="111" y="381"/>
      <point x="122" y="424" type="curve" smooth="yes"/>
      <point x="135" y="474"/>
      <point x="157" y="508"/>
      <point x="201" y="508" type="curve" smooth="yes"/>
      <point x="246" y="508"/>
      <point x="268" y="470"/>
      <point x="279" y="414" type="curve" smooth="yes"/>
      <point x="287" y="372"/>
      <point x="289" y="319"/>
      <point x="289" y="264" type="curve" smooth="yes"/>
      <point x="289" y="216"/>
      <point x="288" y="172"/>
      <point x="281" y="136" type="curve" smooth="yes"/>
      <point x="271" y="83"/>
      <point x="249" y="49"/>
    </contour>
    <contour>
      <point x="108" y="-60" type="line"/>
      <point x="137" y="30"/>
      <point x="185" y="176"/>
      <point x="212" y="250" type="curve"/>
      <point x="239" y="324"/>
      <point x="312" y="496"/>
      <point x="360" y="605" type="curve"/>
      <point x="296" y="620" type="line"/>
      <point x="265" y="532"/>
      <point x="210" y="376"/>
      <point x="171" y="267" type="curve"/>
      <point x="131" y="158"/>
      <point x="75" y="25"/>
      <point x="44" y="-46" type="curve"/>
    </contour>
  </outline>
</glyph>
<glyph name="idotless" format="2">
  <advance width="204"/>
  <unicode hex="0131"/>
  <anchor x="104" y="0" name="bottom"/>
  <anchor x="103" y="555" name="top"/>
  <outline>
    <contour>
      <point x="144" y="0" type="line"/>
      <point x="144" y="0"/>
      <point x="135" y="141"/>
      <point x="135" y="285" type="curve"/>
      <point x="135" y="428"/>
      <point x="140" y="557"/>
      <point x="140" y="557" type="curve"/>
      <point x="64" y="556" type="line"/>
      <point x="64" y="556"/>
      <point x="73" y="432"/>
      <point x="73" y="286" type="curve"/>
      <point x="73" y="140"/>
      <point x="64" y="1"/>
      <point x="64" y="1" type="curve"/>
    </contour>
  </outline>
</glyph>
<glyph name="kgreenlandic" format="2">
  <advance width="388"/>
  <unicode hex="0138"/>
  <outline>
    <contour>
      <point x="329" y="0" type="curve"/>
      <point x="408" y="3" type="line"/>
      <point x="323" y="103"/>
      <point x="244" y="204"/>
      <point x="174" y="295" type="curve"/>
      <point x="246" y="391"/>
      <point x="313" y="478"/>
      <point x="380" y="559" type="curve"/>
      <point x="308" y="561" type="line"/>
      <point x="255" y="485"/>
      <point x="195" y="404"/>
      <point x="105" y="289" type="curve"/>
      <point x="176" y="197"/>
      <point x="262" y="88"/>
    </contour>
    <contour>
      <point x="60" y="0" type="curve"/>
      <point x="135" y="1" type="line"/>
      <point x="132" y="92"/>
      <point x="128" y="252"/>
      <point x="128" y="359" type="curve"/>
      <point x="128" y="422"/>
      <point x="129" y="498"/>
      <point x="131" y="560" type="curve"/>
      <point x="65" y="555" type="line"/>
      <point x="65" y="492"/>
      <point x="66" y="419"/>
      <point x="66" y="357" type="curve"/>
      <point x="66" y="253"/>
      <point x="63" y="92"/>
    </contour>
  </outline>
</glyph>
<glyph name="ldot" format="2">
  <advance width="231"/>
  <unicode hex="0140"/>
  <outline>
    <contour>
      <point x="60" y="2" type="curve"/>
      <point x="135" y="10" type="line"/>
      <point x="135" y="10"/>
      <point x="125" y="212"/>
      <point x="125" y="358" type="curve"/>
      <point x="125" y="504"/>
      <point x="135" y="698"/>
      <point x="135" y="698" type="curve"/>
      <point x="61" y="697" type="line"/>
      <point x="61" y="697"/>
      <point x="63" y="500"/>
      <point x="63" y="357" type="curve"/>
      <point x="63" y="221"/>
      <point x="63" y="63"/>
    </contour>
    <contour>
      <point x="249" y="308" type="line"/>
      <point x="246" y="400" type="line"/>
      <point x="167" y="395" type="line"/>
      <point x="172" y="310" type="line"/>
    </contour>
  </outline>
</glyph>
<glyph name="Eng" format="2">
  <advance width="479"/>
  <unicode hex="014A"/>
  <outline>
    <contour>
      <point x="297" y="-156" type="line"/>
      <point x="373" y="-156"/>
      <point x="415" y="-108"/>
      <point x="415" y="-17" type="curve" smooth="yes"/>
      <point x="414" y="112"/>
      <point x="413" y="240"/>
      <point x="412" y="369" type="curve" smooth="yes"/>
      <point x="412" y="503"/>
      <point x="414" y="633"/>
      <point x="417" y="715" type="curve"/>
      <point x="342" y="715" type="line"/>
      <point x="344" y="598"/>
      <point x="345" y="482"/>
      <point x="345" y="374" type="curve" smooth="yes"/>
      <point x="345" y="328"/>
      <point x="346" y="296"/>
      <point x="346" y="215" type="curve"/>
      <point x="323" y="275"/>
      <point x="298" y="344"/>
      <point x="272" y="413" type="curve" smooth="yes"/>
      <point x="234" y="516"/>
      <point x="196" y="622"/>
      <point x="170" y="704" type="curve"/>
      <point x="62" y="704" type="line"/>
      <point x="65" y="614"/>
      <point x="67" y="481"/>
      <point x="67" y="349" type="curve" smooth="yes"/>
      <point x="67" y="220"/>
      <point x="66" y="91"/>
      <point x="65" y="1" type="curve"/>
      <point x="137" y="0" type="line"/>
      <point x="135" y="121"/>
      <point x="135" y="239"/>
      <point x="134" y="342" type="curve" smooth="yes"/>
      <point x="134" y="441"/>
      <point x="133" y="528"/>
      <point x="133" y="593" type="curve"/>
      <point x="152" y="540"/>
      <point x="188" y="447"/>
      <point x="226" y="345" type="curve" smooth="yes"/>
      <point x="268" y="231"/>
      <point x="314" y="106"/>
      <point x="348" y="8" type="curve"/>
      <point x="348" y="-76"/>
      <point x="338" y="-102"/>
      <point x="291" y="-102" type="curve"/>
    </contour>
  </outline>
</glyph>
<glyph name="eng" format="2">
  <advance width="410"/>
  <unicode hex="014B"/>
  <outline>
    <contour>
      <point x="199" y="-156" type="line"/>
      <point x="286" y="-156"/>
      <point x="343" y="-110"/>
      <point x="347" y="3" type="curve" smooth="yes"/>
      <point x="350" y="94"/>
      <point x="349" y="154"/>
      <point x="349" y="300" type="curve" smooth="yes"/>
      <point x="349" y="410" type="line" smooth="yes"/>
      <point x="349" y="520"/>
      <point x="306" y="562"/>
      <point x="245" y="562" type="curve" smooth="yes"/>
      <point x="189" y="562"/>
      <point x="152" y="528"/>
      <point x="130" y="480" type="curve"/>
      <point x="130" y="506"/>
      <point x="131" y="533"/>
      <point x="131" y="559" type="curve"/>
      <point x="64" y="556" type="line"/>
      <point x="66" y="503"/>
      <point x="68" y="393"/>
      <point x="68" y="286" type="curve" smooth="yes"/>
      <point x="68" y="143"/>
      <point x="62" y="57"/>
      <point x="59" y="1" type="curve"/>
      <point x="134" y="1" type="line"/>
      <point x="133" y="58"/>
      <point x="130" y="143"/>
      <point x="130" y="298" type="curve" smooth="yes"/>
      <point x="130" y="453"/>
      <point x="184" y="504"/>
      <point x="231" y="504" type="curve" smooth="yes"/>
      <point x="265" y="504"/>
      <point x="287" y="480"/>
      <point x="287" y="405" type="curve" smooth="yes"/>
      <point x="287" y="299" type="line" smooth="yes"/>
      <point x="287" y="155"/>
      <point x="286" y="48"/>
      <point x="283" y="-15" type="curve" smooth="yes"/>
      <point x="280" y="-87"/>
      <point x="240" y="-104"/>
      <point x="197" y="-104" type="curve"/>
    </contour>
  </outline>
</glyph>
<glyph name="OE" format="2">
  <advance width="654"/>
  <unicode hex="0152"/>
  <outline>
    <contour>
      <point x="222" y="-5" type="curve" smooth="yes"/>
      <point x="293" y="-5"/>
      <point x="331" y="0"/>
      <point x="368" y="0" type="curve" smooth="yes"/>
      <point x="621" y="0" type="line"/>
      <point x="621" y="61" type="line"/>
      <point x="400" y="65" type="line"/>
      <point x="398" y="204" type="line"/>
      <point x="616" y="207" type="line"/>
      <point x="618" y="268" type="line"/>
      <point x="398" y="271" type="line"/>
      <point x="397" y="393" type="line" smooth="yes"/>
      <point x="397" y="433"/>
      <point x="398" y="593"/>
      <point x="399" y="625" type="curve"/>
      <point x="609" y="626" type="line"/>
      <point x="609" y="693" type="line"/>
      <point x="389" y="693" type="line" smooth="yes"/>
      <point x="327" y="693"/>
      <point x="285" y="705"/>
      <point x="240" y="705" type="curve" smooth="yes"/>
      <point x="83" y="705"/>
      <point x="48" y="553"/>
      <point x="48" y="357" type="curve" smooth="yes"/>
      <point x="48" y="146"/>
      <point x="66" y="-5"/>
    </contour>
    <contour>
      <point x="247" y="55" type="curve" smooth="yes"/>
      <point x="126" y="55"/>
      <point x="122" y="182"/>
      <point x="122" y="345" type="curve" smooth="yes"/>
      <point x="122" y="500"/>
      <point x="132" y="647"/>
      <point x="243" y="647" type="curve" smooth="yes"/>
      <point x="267" y="647"/>
      <point x="294" y="642"/>
      <point x="324" y="634" type="curve"/>
      <point x="325" y="580"/>
      <point x="326" y="492"/>
      <point x="326" y="391" type="curve" smooth="yes"/>
      <point x="326" y="278"/>
      <point x="325" y="144"/>
      <point x="324" y="66" type="curve"/>
      <point x="297" y="60"/>
      <point x="271" y="55"/>
    </contour>
  </outline>
</glyph>
<glyph name="oe" format="2">
  <advance width="620"/>
  <unicode hex="0153"/>
  <outline>
    <contour>
      <point x="194" y="-10" type="curve"/>
      <point x="278" y="-10"/>
      <point x="320" y="35"/>
      <point x="340" y="116" type="curve" smooth="yes"/>
      <point x="351" y="161"/>
      <point x="354" y="217"/>
      <point x="354" y="283" type="curve" smooth="yes"/>
      <point x="354" y="339"/>
      <point x="350" y="390"/>
      <point x="340" y="433" type="curve" smooth="yes"/>
      <point x="321" y="514"/>
      <point x="283" y="566"/>
      <point x="207" y="566" type="curve" smooth="yes"/>
      <point x="129" y="566"/>
      <point x="84" y="521"/>
      <point x="61" y="442" type="curve" smooth="yes"/>
      <point x="49" y="400"/>
      <point x="44" y="349"/>
      <point x="44" y="290" type="curve" smooth="yes"/>
      <point x="44" y="227"/>
      <point x="48" y="170"/>
      <point x="58" y="123" type="curve" smooth="yes"/>
      <point x="75" y="41"/>
      <point x="116" y="-10"/>
    </contour>
    <contour>
      <point x="201" y="49" type="curve" smooth="yes"/>
      <point x="153" y="49"/>
      <point x="130" y="85"/>
      <point x="118" y="140" type="curve" smooth="yes"/>
      <point x="110" y="177"/>
      <point x="109" y="222"/>
      <point x="109" y="271" type="curve" smooth="yes"/>
      <point x="109" y="327"/>
      <point x="111" y="381"/>
      <point x="122" y="424" type="curve" smooth="yes"/>
      <point x="135" y="474"/>
      <point x="157" y="508"/>
      <point x="201" y="508" type="curve" smooth="yes"/>
      <point x="246" y="508"/>
      <point x="268" y="470"/>
      <point x="279" y="414" type="curve" smooth="yes"/>
      <point x="287" y="372"/>
      <point x="289" y="319"/>
      <point x="289" y="264" type="curve" smooth="yes"/>
      <point x="289" y="216"/>
      <point x="288" y="172"/>
      <point x="281" y="136" type="curve" smooth="yes"/>
      <point x="271" y="83"/>
      <point x="249" y="49"/>
    </contour>
    <contour>
      <point x="440" y="-12" type="curve" smooth="yes"/>
      <point x="534" y="-12"/>
      <point x="577" y="49"/>
      <point x="577" y="139" type="curve" smooth="yes"/>
      <point x="577" y="154"/>
      <point x="576" y="169"/>
      <point x="574" y="185" type="curve"/>
      <point x="515" y="185" type="line"/>
      <point x="517" y="170"/>
      <point x="518" y="156"/>
      <point x="518" y="143" type="curve" smooth="yes"/>
      <point x="518" y="86"/>
      <point x="498" y="44"/>
      <point x="444" y="44" type="curve" smooth="yes"/>
      <point x="397" y="44"/>
      <point x="374" y="79"/>
      <point x="364" y="134" type="curve" smooth="yes"/>
      <point x="356" y="176"/>
      <point x="355" y="229"/>
      <point x="355" y="288" type="curve" smooth="yes"/>
      <point x="355" y="324"/>
      <point x="357" y="359"/>
      <point x="361" y="390" type="curve" smooth="yes"/>
      <point x="371" y="460"/>
      <point x="394" y="509"/>
      <point x="445" y="509" type="curve" smooth="yes"/>
      <point x="498" y="509"/>
      <point x="513" y="470"/>
      <point x="513" y="409" type="curve" smooth="yes"/>
      <point x="513" y="381"/>
      <point x="510" y="349"/>
      <point x="506" y="314" type="curve"/>
      <point x="564" y="263" type="line"/>
      <point x="571" y="308"/>
      <point x="576" y="356"/>
      <point x="576" y="393" type="curve" smooth="yes"/>
      <point x="576" y="502"/>
      <point x="538" y="564"/>
      <point x="451" y="564" type="curve" smooth="yes"/>
      <point x="363" y="564"/>
      <point x="320" y="506"/>
      <point x="301" y="422" type="curve" smooth="yes"/>
      <point x="292" y="383"/>
      <point x="289" y="337"/>
      <point x="289" y="289" type="curve" smooth="yes"/>
      <point x="289" y="221"/>
      <point x="293" y="158"/>
      <point x="306" y="108" type="curve" smooth="yes"/>
      <point x="325" y="35"/>
      <point x="364" y="-12"/>
    </contour>
    <contour>
      <point x="316" y="256" type="line"/>
      <point x="423" y="261"/>
      <point x="564" y="263"/>
      <point x="564" y="263" type="curve"/>
      <point x="564" y="317" type="line"/>
      <point x="315" y="315" type="line"/>
    </contour>
  </outline>
</glyph>
<glyph name="Schwa" format="2">
  <advance width="426"/>
  <unicode hex="018F"/>
  <outline>
    <contour>
      <point x="190" y="-8" type="curve" smooth="yes"/>
      <point x="291" y="-8"/>
      <point x="338" y="59"/>
      <point x="360" y="152" type="curve" smooth="yes"/>
      <point x="375" y="212"/>
      <point x="378" y="283"/>
      <point x="378" y="353" type="curve" smooth="yes"/>
      <point x="378" y="427"/>
      <point x="376" y="495"/>
      <point x="364" y="551" type="curve" smooth="yes"/>
      <point x="345" y="644"/>
      <point x="301" y="703"/>
      <point x="200" y="703" type="curve"/>
      <point x="96" y="703"/>
      <point x="44" y="634"/>
      <point x="44" y="538" type="curve" smooth="yes"/>
      <point x="44" y="521"/>
      <point x="46" y="503"/>
      <point x="49" y="485" type="curve"/>
      <point x="115" y="489" type="line"/>
      <point x="114" y="506"/>
      <point x="112" y="522"/>
      <point x="112" y="537" type="curve" smooth="yes"/>
      <point x="112" y="606"/>
      <point x="130" y="642"/>
      <point x="201" y="642" type="curve" smooth="yes"/>
      <point x="262" y="642"/>
      <point x="282" y="606"/>
      <point x="296" y="536" type="curve" smooth="yes"/>
      <point x="305" y="490"/>
      <point x="306" y="424"/>
      <point x="306" y="357" type="curve" smooth="yes"/>
      <point x="306" y="304"/>
      <point x="305" y="231"/>
      <point x="295" y="174" type="curve" smooth="yes"/>
      <point x="282" y="102"/>
      <point x="252" y="52"/>
      <point x="194" y="52" type="curve" smooth="yes"/>
      <point x="128" y="52"/>
      <point x="110" y="111"/>
      <point x="110" y="201" type="curve" smooth="yes"/>
      <point x="110" y="248"/>
      <point x="116" y="298"/>
      <point x="121" y="340" type="curve"/>
      <point x="52" y="341" type="line"/>
      <point x="44" y="288"/>
      <point x="38" y="236"/>
      <point x="38" y="188" type="curve" smooth="yes"/>
      <point x="38" y="77"/>
      <point x="71" y="-8"/>
    </contour>
    <contour>
      <point x="58" y="283" type="line"/>
      <point x="345" y="285" type="line"/>
      <point x="344" y="348" type="line"/>
      <point x="262" y="343"/>
      <point x="52" y="341"/>
      <point x="52" y="341" type="curve"/>
    </contour>
  </outline>
</glyph>
<glyph name="florin" format="2">
  <advance width="500"/>
  <unicode hex="0192"/>
  <outline>
    <contour>
      <point x="118" y="-144" type="curve" smooth="yes"/>
      <point x="198" y="-144"/>
      <point x="239" y="-95"/>
      <point x="246" y="-14" type="curve"/>
      <point x="252" y="47"/>
      <point x="256" y="130"/>
      <point x="267" y="273" type="curve"/>
      <point x="277" y="417"/>
      <point x="290" y="496"/>
      <point x="295" y="560" type="curve"/>
      <point x="299" y="620"/>
      <point x="314" y="651"/>
      <point x="362" y="651" type="curve" smooth="yes"/>
      <point x="385" y="651"/>
      <point x="417" y="643"/>
      <point x="458" y="629" type="curve"/>
      <point x="478" y="677" type="line"/>
      <point x="433" y="697"/>
      <point x="394" y="704"/>
      <point x="362" y="704" type="curve" smooth="yes"/>
      <point x="281" y="704"/>
      <point x="240" y="650"/>
      <point x="234" y="564" type="curve"/>
      <point x="228" y="473"/>
      <point x="222" y="418"/>
      <point x="211" y="272" type="curve"/>
      <point x="200" y="126"/>
      <point x="192" y="43"/>
      <point x="187" y="-4" type="curve"/>
      <point x="182" y="-58"/>
      <point x="170" y="-88"/>
      <point x="120" y="-88" type="curve" smooth="yes"/>
      <point x="98" y="-88"/>
      <point x="63" y="-82"/>
      <point x="25" y="-69" type="curve"/>
      <point x="8" y="-121" type="line"/>
      <point x="53" y="-136"/>
      <point x="87" y="-144"/>
    </contour>
    <contour>
      <point x="130" y="495" type="line"/>
      <point x="174" y="496"/>
      <point x="247" y="498"/>
      <point x="283" y="499" type="curve"/>
      <point x="298" y="499"/>
      <point x="429" y="499"/>
      <point x="425" y="499" type="curve"/>
      <point x="441" y="552" type="line"/>
      <point x="397" y="552"/>
      <point x="326" y="551"/>
      <point x="290" y="551" type="curve"/>
      <point x="255" y="551"/>
      <point x="187" y="552"/>
      <point x="145" y="552" type="curve"/>
    </contour>
  </outline>
</glyph>
<glyph name="Nhookleft" format="2">
  <advance width="479"/>
  <unicode hex="019D"/>
  <outline>
    <contour>
      <point x="7" y="-94" type="curve"/>
      <point x="14" y="-148" type="line"/>
      <point x="100" y="-148"/>
      <point x="133" y="-100"/>
      <point x="133" y="-9" type="curve" smooth="yes"/>
      <point x="133" y="82"/>
      <point x="134" y="196"/>
      <point x="134" y="342" type="curve" smooth="yes"/>
      <point x="134" y="441"/>
      <point x="133" y="528"/>
      <point x="133" y="593" type="curve"/>
      <point x="154" y="530"/>
      <point x="179" y="445"/>
      <point x="205" y="355" type="curve" smooth="yes"/>
      <point x="240" y="233"/>
      <point x="276" y="101"/>
      <point x="303" y="1" type="curve"/>
      <point x="415" y="9" type="line"/>
      <point x="413" y="108"/>
      <point x="412" y="241"/>
      <point x="412" y="369" type="curve" smooth="yes"/>
      <point x="412" y="503"/>
      <point x="414" y="633"/>
      <point x="417" y="715" type="curve"/>
      <point x="342" y="715" type="line"/>
      <point x="344" y="598"/>
      <point x="344" y="482"/>
      <point x="345" y="374" type="curve" smooth="yes"/>
      <point x="345" y="280"/>
      <point x="346" y="191"/>
      <point x="346" y="110" type="curve"/>
      <point x="328" y="167"/>
      <point x="300" y="261"/>
      <point x="271" y="362" type="curve" smooth="yes"/>
      <point x="237" y="485"/>
      <point x="200" y="617"/>
      <point x="178" y="704" type="curve"/>
      <point x="62" y="704" type="line"/>
      <point x="65" y="614"/>
      <point x="67" y="481"/>
      <point x="67" y="349" type="curve" smooth="yes"/>
      <point x="67" y="205"/>
      <point x="65" y="59"/>
      <point x="62" y="-6" type="curve" smooth="yes"/>
      <point x="59" y="-68"/>
      <point x="40" y="-94"/>
    </contour>
  </outline>
</glyph>
<glyph name="ohorn" format="2">
  <advance width="398"/>
  <unicode hex="01A1"/>
  <anchor x="199" y="0" name="bottom"/>
  <anchor x="197" y="276" name="center"/>
  <anchor x="245" y="1" name="ogonek"/>
  <anchor x="206" y="555" name="top"/>
  <anchor x="237" y="555" name="topright"/>
  <outline>
    <contour>
      <point x="194" y="-10" type="curve"/>
      <point x="278" y="-10"/>
      <point x="320" y="35"/>
      <point x="340" y="116" type="curve" smooth="yes"/>
      <point x="351" y="161"/>
      <point x="354" y="217"/>
      <point x="354" y="283" type="curve" smooth="yes"/>
      <point x="354" y="339"/>
      <point x="350" y="390"/>
      <point x="340" y="433" type="curve" smooth="yes"/>
      <point x="321" y="514"/>
      <point x="283" y="566"/>
      <point x="207" y="566" type="curve" smooth="yes"/>
      <point x="129" y="566"/>
      <point x="84" y="521"/>
      <point x="61" y="442" type="curve" smooth="yes"/>
      <point x="49" y="400"/>
      <point x="44" y="349"/>
      <point x="44" y="290" type="curve" smooth="yes"/>
      <point x="44" y="227"/>
      <point x="48" y="170"/>
      <point x="58" y="123" type="curve" smooth="yes"/>
      <point x="75" y="41"/>
      <point x="116" y="-10"/>
    </contour>
    <contour>
      <point x="201" y="49" type="curve" smooth="yes"/>
      <point x="153" y="49"/>
      <point x="130" y="85"/>
      <point x="118" y="140" type="curve" smooth="yes"/>
      <point x="110" y="177"/>
      <point x="109" y="222"/>
      <point x="109" y="271" type="curve" smooth="yes"/>
      <point x="109" y="327"/>
      <point x="111" y="381"/>
      <point x="122" y="424" type="curve" smooth="yes"/>
      <point x="135" y="474"/>
      <point x="157" y="508"/>
      <point x="201" y="508" type="curve" smooth="yes"/>
      <point x="246" y="508"/>
      <point x="268" y="470"/>
      <point x="279" y="414" type="curve" smooth="yes"/>
      <point x="287" y="372"/>
      <point x="289" y="319"/>
      <point x="289" y="264" type="curve" smooth="yes"/>
      <point x="289" y="216"/>
      <point x="288" y="172"/>
      <point x="281" y="136" type="curve" smooth="yes"/>
      <point x="271" y="83"/>
      <point x="249" y="49"/>
    </contour>
    <contour>
      <point x="279" y="460" type="line"/>
      <point x="355" y="474"/>
      <point x="407" y="532"/>
      <point x="412" y="595" type="curve"/>
      <point x="413" y="624"/>
      <point x="415" y="659"/>
      <point x="415" y="677" type="curve"/>
      <point x="327" y="682" type="line"/>
      <point x="333" y="594" type="line"/>
      <point x="374" y="593" type="line"/>
      <point x="374" y="533"/>
      <point x="303" y="495"/>
      <point x="272" y="488" type="curve"/>
    </contour>
  </outline>
</glyph>
<glyph name="uhorn" format="2">
  <advance width="393"/>
  <unicode hex="01B0"/>
  <anchor x="200" y="0" name="bottom"/>
  <anchor x="321" y="0" name="ogonek"/>
  <anchor x="199" y="555" name="top"/>
  <anchor x="277" y="575" name="topright"/>
  <outline>
    <contour>
      <point x="152" y="-10" type="curve" smooth="yes"/>
      <point x="273" y="-10"/>
      <point x="299" y="130"/>
      <point x="299" y="288" type="curve"/>
      <point x="275" y="281" type="line"/>
      <point x="275" y="136"/>
      <point x="219" y="43"/>
      <point x="159" y="43" type="curve" smooth="yes"/>
      <point x="122" y="43"/>
      <point x="113" y="81"/>
      <point x="113" y="138" type="curve" smooth="yes"/>
      <point x="113" y="160"/>
      <point x="115" y="216"/>
      <point x="118" y="283" type="curve" smooth="yes"/>
      <point x="122" y="375"/>
      <point x="128" y="496"/>
      <point x="132" y="564" type="curve"/>
      <point x="63" y="558" type="line"/>
      <point x="63" y="546"/>
      <point x="60" y="409"/>
      <point x="57" y="302" type="curve" smooth="yes"/>
      <point x="55" y="231"/>
      <point x="53" y="169"/>
      <point x="53" y="159" type="curve" smooth="yes"/>
      <point x="53" y="60"/>
      <point x="65" y="-10"/>
    </contour>
    <contour>
      <point x="279" y="0" type="line"/>
      <point x="345" y="0" type="line"/>
      <point x="342" y="95"/>
      <point x="340" y="189"/>
      <point x="337" y="284" type="curve" smooth="yes"/>
      <point x="336" y="314"/>
      <point x="339" y="499"/>
      <point x="341" y="564" type="curve"/>
      <point x="270" y="565" type="line"/>
      <point x="272" y="474"/>
      <point x="275" y="343"/>
      <point x="275" y="281" type="curve" smooth="yes"/>
      <point x="275" y="222"/>
      <point x="275" y="164"/>
      <point x="273" y="105" type="curve"/>
    </contour>
    <contour>
      <point x="319" y="480" type="line"/>
      <point x="395" y="494"/>
      <point x="447" y="552"/>
      <point x="452" y="615" type="curve"/>
      <point x="453" y="644"/>
      <point x="455" y="679"/>
      <point x="455" y="697" type="curve"/>
      <point x="367" y="702" type="line"/>
      <point x="373" y="614" type="line"/>
      <point x="414" y="613" type="line"/>
      <point x="414" y="553"/>
      <point x="343" y="515"/>
      <point x="312" y="508" type="curve"/>
    </contour>
  </outline>
</glyph>
<glyph name="LJ" format="2">
  <advance width="736"/>
  <unicode hex="01C7"/>
  <outline>
    <contour>
      <point x="520" y="-10" type="curve" smooth="yes"/>
      <point x="638" y="-10"/>
      <point x="676" y="74"/>
      <point x="676" y="201" type="curve"/>
      <point x="676" y="271"/>
      <point x="676" y="334"/>
      <point x="676" y="402" type="curve"/>
      <point x="676" y="492"/>
      <point x="676" y="604"/>
      <point x="678" y="697" type="curve"/>
      <point x="600" y="695" type="line"/>
      <point x="604" y="608"/>
      <point x="605" y="464"/>
      <point x="605" y="396" type="curve"/>
      <point x="606" y="319"/>
      <point x="606" y="243"/>
      <point x="606" y="203" type="curve"/>
      <point x="606" y="120"/>
      <point x="592" y="48"/>
      <point x="522" y="48" type="curve" smooth="yes"/>
      <point x="455" y="48"/>
      <point x="435" y="94"/>
      <point x="435" y="179" type="curve" smooth="yes"/>
      <point x="435" y="213"/>
      <point x="438" y="253"/>
      <point x="443" y="298" type="curve"/>
      <point x="379" y="299" type="line"/>
      <point x="374" y="259"/>
      <point x="369" y="219"/>
      <point x="369" y="181" type="curve" smooth="yes"/>
      <point x="369" y="77"/>
      <point x="400" y="-10"/>
    </contour>
    <contour>
      <point x="62" y="-5" type="line"/>
      <point x="332" y="3" type="line"/>
      <point x="332" y="64" type="line"/>
      <point x="106" y="67" type="line"/>
    </contour>
    <contour>
      <point x="62" y="-5" type="curve"/>
      <point x="139" y="5" type="line"/>
      <point x="137" y="117"/>
      <point x="135" y="298"/>
      <point x="135" y="383" type="curve"/>
      <point x="135" y="468"/>
      <point x="139" y="617"/>
      <point x="142" y="706" type="curve"/>
      <point x="62" y="700" type="line"/>
      <point x="63" y="636"/>
      <point x="65" y="506"/>
      <point x="65" y="381" type="curve"/>
      <point x="65" y="256"/>
      <point x="63" y="87"/>
    </contour>
  </outline>
</glyph>
<glyph name="jdotless" format="2">
  <advance width="188"/>
  <unicode hex="0237"/>
  <anchor x="99" y="555" name="top"/>
  <outline>
    <contour>
      <point x="-21" y="-166" type="line"/>
      <point x="66" y="-166"/>
      <point x="123" y="-120"/>
      <point x="127" y="-7" type="curve" smooth="yes"/>
      <point x="130" y="84"/>
      <point x="129" y="137"/>
      <point x="129" y="283" type="curve"/>
      <point x="129" y="429"/>
      <point x="137" y="554"/>
      <point x="137" y="554" type="curve"/>
      <point x="61" y="555" type="line"/>
      <point x="61" y="555"/>
      <point x="65" y="425"/>
      <point x="65" y="282" type="curve"/>
      <point x="65" y="138"/>
      <point x="66" y="38"/>
      <point x="63" y="-27" type="curve" smooth="yes"/>
      <point x="60" y="-97"/>
      <point x="20" y="-114"/>
      <point x="-23" y="-114" type="curve"/>
    </contour>
  </outline>
</glyph>
<glyph name="nhookleft" format="2">
  <advance width="410"/>
  <unicode hex="0272"/>
  <outline>
    <contour>
      <point x="358" y="-3" type="line"/>
      <point x="356" y="48"/>
      <point x="349" y="157"/>
      <point x="349" y="303" type="curve" smooth="yes"/>
      <point x="349" y="340"/>
      <point x="349" y="334"/>
      <point x="349" y="410" type="curve" smooth="yes"/>
      <point x="349" y="520"/>
      <point x="306" y="562"/>
      <point x="245" y="562" type="curve" smooth="yes"/>
      <point x="111" y="562"/>
      <point x="92" y="373"/>
      <point x="92" y="251" type="curve"/>
      <point x="130" y="298" type="line"/>
      <point x="130" y="453"/>
      <point x="184" y="504"/>
      <point x="231" y="504" type="curve" smooth="yes"/>
      <point x="265" y="504"/>
      <point x="287" y="480"/>
      <point x="287" y="405" type="curve" smooth="yes"/>
      <point x="287" y="361"/>
      <point x="287" y="322"/>
      <point x="287" y="296" type="curve" smooth="yes"/>
      <point x="287" y="171"/>
      <point x="281" y="46"/>
      <point x="278" y="1" type="curve"/>
    </contour>
    <contour>
      <point x="-20" y="-156" type="line"/>
      <point x="67" y="-156"/>
      <point x="124" y="-110"/>
      <point x="128" y="3" type="curve" smooth="yes"/>
      <point x="131" y="94"/>
      <point x="130" y="152"/>
      <point x="130" y="298" type="curve"/>
      <point x="128" y="405"/>
      <point x="129" y="515"/>
      <point x="130" y="559" type="curve"/>
      <point x="65" y="555" type="line"/>
      <point x="68" y="483"/>
      <point x="69" y="406"/>
      <point x="68" y="282" type="curve"/>
      <point x="68" y="138"/>
      <point x="67" y="48"/>
      <point x="64" y="-17" type="curve" smooth="yes"/>
      <point x="61" y="-87"/>
      <point x="21" y="-104"/>
      <point x="-22" y="-104" type="curve"/>
    </contour>
  </outline>
</glyph>
<glyph name="primemod" format="2">
  <advance width="341"/>
  <unicode hex="02B9"/>
  <outline>
    <contour>
      <point x="136" y="529" type="line"/>
      <point x="136" y="529"/>
      <point x="178" y="588"/>
      <point x="206" y="619" type="curve" smooth="yes"/>
      <point x="233" y="652"/>
      <point x="266" y="684"/>
      <point x="266" y="684" type="curve"/>
      <point x="184" y="731" type="line"/>
      <point x="184" y="731"/>
      <point x="161" y="690"/>
      <point x="135" y="648" type="curve" smooth="yes"/>
      <point x="107" y="603"/>
      <point x="75" y="554"/>
      <point x="75" y="554" type="curve"/>
    </contour>
  </outline>
</glyph>
<glyph name="doubleprimemod" format="2">
  <advance width="531"/>
  <unicode hex="02BA"/>
  <outline>
    <contour>
      <point x="326" y="529" type="line"/>
      <point x="326" y="529"/>
      <point x="368" y="588"/>
      <point x="396" y="619" type="curve"/>
      <point x="423" y="652"/>
      <point x="456" y="684"/>
      <point x="456" y="684" type="curve"/>
      <point x="374" y="731" type="line"/>
      <point x="374" y="731"/>
      <point x="351" y="690"/>
      <point x="325" y="648" type="curve"/>
      <point x="297" y="603"/>
      <point x="265" y="554"/>
      <point x="265" y="554" type="curve"/>
    </contour>
    <contour>
      <point x="136" y="529" type="line"/>
      <point x="136" y="529"/>
      <point x="178" y="588"/>
      <point x="206" y="619" type="curve"/>
      <point x="233" y="652"/>
      <point x="266" y="684"/>
      <point x="266" y="684" type="curve"/>
      <point x="184" y="731" type="line"/>
      <point x="184" y="731"/>
      <point x="161" y="690"/>
      <point x="135" y="648" type="curve"/>
      <point x="107" y="603"/>
      <point x="75" y="554"/>
      <point x="75" y="554" type="curve"/>
    </contour>
  </outline>
</glyph>
<glyph name="apostrophemod" format="2">
  <advance width="209"/>
  <unicode hex="02BC"/>
  <outline>
    <contour>
      <point x="129" y="476" type="line"/>
      <point x="152" y="514"/>
      <point x="166" y="560"/>
      <point x="166" y="611" type="curve" smooth="yes"/>
      <point x="166" y="729" type="line"/>
      <point x="85" y="722" type="line"/>
      <point x="87" y="610" type="line"/>
      <point x="126" y="607" type="line"/>
      <point x="126" y="566"/>
      <point x="116" y="531"/>
      <point x="94" y="493" type="curve"/>
    </contour>
  </outline>
</glyph>
<glyph name="circumflex" format="2">
  <advance width="305"/>
  <unicode hex="02C6"/>
  <anchor x="153" y="555" name="_top"/>
  <outline>
    <contour>
      <point x="240" y="619" type="line"/>
      <point x="265" y="649" type="line"/>
      <point x="187" y="716" type="line"/>
      <point x="117" y="718" type="line"/>
      <point x="41" y="647" type="line"/>
      <point x="67" y="621" type="line"/>
      <point x="152" y="670" type="line"/>
    </contour>
  </outline>
</glyph>
<glyph name="dotaccent" format="2">
  <advance width="305"/>
  <unicode hex="02D9"/>
  <anchor x="153" y="555" name="_top"/>
  <outline>
    <contour>
      <point x="118" y="647" type="line"/>
      <point x="189" y="648" type="line"/>
      <point x="192" y="727" type="line"/>
      <point x="115" y="733" type="line"/>
    </contour>
  </outline>
</glyph>
<glyph name="ring" format="2">
  <advance width="305"/>
  <unicode hex="02DA"/>
  <anchor x="153" y="555" name="_top"/>
  <outline>
    <contour>
      <point x="153" y="618" type="curve"/>
      <point x="198" y="618"/>
      <point x="229" y="642"/>
      <point x="229" y="676" type="curve"/>
      <point x="229" y="706"/>
      <point x="198" y="727"/>
      <point x="151" y="727" type="curve"/>
      <point x="104" y="727"/>
      <point x="74" y="704"/>
      <point x="74" y="668" type="curve"/>
      <point x="74" y="636"/>
      <point x="104" y="618"/>
    </contour>
    <contour>
      <point x="153" y="648" type="curve"/>
      <point x="129" y="648"/>
      <point x="115" y="656"/>
      <point x="115" y="674" type="curve"/>
      <point x="115" y="689"/>
      <point x="130" y="697"/>
      <point x="151" y="697" type="curve"/>
      <point x="169" y="697"/>
      <point x="188" y="691"/>
      <point x="188" y="674" type="curve"/>
      <point x="188" y="655"/>
      <point x="170" y="648"/>
    </contour>
  </outline>
</glyph>
